<svg width="8" height="5" viewBox="0 0 8 5" fill="none" xmlns="http://www.w3.org/2000/svg">
<path fill-rule="evenodd" clip-rule="evenodd" d="M7.96801 0.566754C7.94162 0.493493 7.89993 0.437948 7.75387 0.281494C7.52988 0.0415481 7.47638 0.00886765 7.30673 0.00825104C7.21558 0.00791773 7.16471 0.0163837 7.11914 0.0394484C7.07673 0.0608966 6.56478 0.594568 5.52843 1.69756L4.00028 3.32404L2.47218 1.69576C1.28354 0.429149 0.928472 0.0599966 0.873756 0.0338321C0.826733 0.0113507 0.769703 0.000135015 0.701794 1.69303e-06C0.541493 -0.000331612 0.462296 0.0483976 0.247046 0.279728C0.0956087 0.442448 0.0603094 0.49026 0.0320921 0.570887C-0.0104771 0.692426 -0.0106802 0.788618 0.0313883 0.911258C0.0630765 1.00363 0.141976 1.09039 1.89562 2.96097C3.92146 5.12185 3.79427 4.99871 4.00036 4.99871C4.20644 4.99871 4.07925 5.12185 6.10515 2.96097C7.85975 1.08946 7.93776 1.00368 7.96939 0.911258C8.01064 0.790735 8.01022 0.68396 7.96801 0.566754Z" fill="#F1F1F1"/>
</svg>
