<svg width="10" height="5" viewBox="0 0 10 5" fill="none" xmlns="http://www.w3.org/2000/svg">
<path fill-rule="evenodd" clip-rule="evenodd" d="M0.170437 0.00847011C0.0929382 0.0226334 0 0.132532 0 0.210011C0 0.246474 0.0553444 0.327182 0.141514 0.416358C0.219339 0.496938 1.32125 1.56119 2.59023 2.78142C4.85717 4.96125 4.89928 5 5.00165 5C5.10402 5 5.14613 4.96125 7.41307 2.78142C8.68205 1.56119 9.78396 0.496938 9.86179 0.416358C10.0218 0.250695 10.037 0.182702 9.93771 0.0747859C9.89588 0.0293094 9.83694 0.00341339 9.77515 0.00337461L5.05158 0.000409463C2.40028 -0.00126877 0.203763 0.00236744 0.170437 0.00847011Z" fill="#4665D3"/>
</svg>
