<svg width="25" height="25" viewBox="0 0 25 25" fill="none" xmlns="http://www.w3.org/2000/svg">
<path fill-rule="evenodd" clip-rule="evenodd" d="M0.78569 0.0763946C0.354796 0.228635 0 0.742323 0 1.21395C0 1.31186 0.0356555 1.5003 0.0792235 1.63275C0.151902 1.85364 0.596814 2.31256 5.46378 7.18688L10.7691 12.5002L5.48708 17.789C2.58194 20.6978 0.168069 23.1516 0.12284 23.242C-0.0981746 23.6837 0.00493317 24.2822 0.36393 24.6414C0.704659 24.9822 1.16305 25.0853 1.63976 24.9283C1.86058 24.8556 2.31936 24.4106 7.19214 19.5423L12.5038 14.2355L17.8155 19.5423C22.6883 24.4106 23.1471 24.8556 23.3679 24.9283C23.844 25.0851 24.3031 24.9821 24.6426 24.6424C24.9822 24.3028 25.0851 23.8436 24.9284 23.3673C24.8558 23.1465 24.4108 22.6875 19.544 17.8133L14.2388 12.5L19.544 7.18678C24.4108 2.31256 24.8558 1.85364 24.9284 1.63275C25.0851 1.15654 24.9822 0.697326 24.6426 0.357668C24.3031 0.0180098 23.844 -0.084982 23.3679 0.0717531C23.1471 0.144453 22.6883 0.589497 17.8155 5.45776L12.5038 10.7646L7.19214 5.45776C2.31936 0.589497 1.86058 0.144453 1.63976 0.0717531C1.3446 -0.0254246 1.06966 -0.02391 0.78569 0.0763946Z" fill="#F6F6F6"/>
</svg>
