<svg width="17" height="17" viewBox="0 0 17 17" fill="none" xmlns="http://www.w3.org/2000/svg">
<path fill-rule="evenodd" clip-rule="evenodd" d="M7.70449 0.0199462C6.05031 0.179942 4.41068 0.852356 3.12499 1.89802C2.74681 2.2056 2.14804 2.80896 1.84643 3.18646C1.08379 4.14092 0.458828 5.43196 0.199635 6.58828C0.036866 7.31462 0 7.6677 0 8.50091C0 9.33412 0.036866 9.68721 0.199635 10.4135C0.444987 11.5081 1.00503 12.7043 1.70575 13.6304C3.06726 15.4297 5.03204 16.5845 7.33397 16.9382C7.86999 17.0206 9.12702 17.0206 9.66305 16.9382C11.1612 16.708 12.4598 16.168 13.646 15.2823C14.0652 14.9692 14.9686 14.0661 15.2818 13.647C16.1678 12.4611 16.7079 11.1628 16.9382 9.66512C17.0206 9.12925 17.0206 7.87257 16.9382 7.3367C16.667 5.57316 15.9201 3.98681 14.7865 2.76645C13.4064 1.28095 11.6919 0.372569 9.69632 0.0696745C9.27841 0.00624175 8.13993 -0.0221982 7.70449 0.0199462ZM9.83633 3.40321C10.4532 3.69462 10.7147 4.36784 10.444 4.96737C10.3459 5.18451 10.0692 5.45937 9.84661 5.56075C9.1974 5.85643 8.38312 5.59538 8.07338 4.99232C7.94785 4.7479 7.93088 4.3365 8.03492 4.06052C8.12915 3.81061 8.41569 3.51241 8.67625 3.39316C9.03366 3.22957 9.47695 3.2334 9.83633 3.40321ZM8.54998 6.85003C9.32856 7.01718 9.74167 7.57793 9.67885 8.3824C9.64385 8.83082 9.60409 9.00951 9.29575 10.1036C8.90566 11.4877 8.85609 11.7098 8.85159 12.0933C8.84591 12.5761 8.94932 12.7035 9.39221 12.7595C9.63243 12.7899 9.94463 12.7508 10.2216 12.6555C10.3227 12.6208 10.4089 12.5923 10.4131 12.5923C10.4459 12.5923 10.2659 13.1695 10.2262 13.1918C10.1017 13.2614 9.09478 13.6199 8.91441 13.6589C8.66074 13.7136 8.04284 13.7131 7.78421 13.658C7.47617 13.5924 7.23781 13.4636 7.01495 13.2424C6.72362 12.9532 6.65371 12.7619 6.65571 12.2596C6.6576 11.7827 6.69999 11.5767 7.05484 10.3198C7.42201 9.01915 7.47561 8.77929 7.48003 8.41776C7.48426 8.07162 7.42756 7.93447 7.23299 7.82018C7.1358 7.7631 7.06286 7.75292 6.76833 7.75515C6.4799 7.75735 6.37688 7.77295 6.17761 7.8447L5.93622 7.93158L5.95382 7.85867C5.96347 7.81855 5.99724 7.68311 6.02882 7.5576L6.08625 7.32945L6.26925 7.25574C6.63514 7.10828 7.27774 6.8981 7.49454 6.85495C7.78248 6.79764 8.29481 6.79525 8.54998 6.85003Z" fill="#4664D3"/>
</svg>
