<svg width="10" height="17" viewBox="0 0 10 17" fill="none" xmlns="http://www.w3.org/2000/svg">
<path fill-rule="evenodd" clip-rule="evenodd" d="M8.86649 0.0679802C9.01301 0.124056 9.1241 0.212654 9.43701 0.523029C9.9169 0.999007 9.98226 1.11269 9.9835 1.47319C9.98416 1.6669 9.96723 1.775 9.9211 1.87183C9.87821 1.96196 8.81086 3.04985 6.60488 5.25208L3.35193 8.49941L6.60848 11.7466C9.1417 14.2725 9.88001 15.027 9.93234 15.1433C9.9773 15.2432 9.99973 15.3644 10 15.5087C10.0007 15.8493 9.9032 16.0176 9.44054 16.475C9.1151 16.7968 9.01948 16.8718 8.85823 16.9318C8.61515 17.0223 8.42276 17.0227 8.17748 16.9333C7.99273 16.866 7.81922 16.6983 4.07807 12.9718C-0.2437 8.66691 0.00257778 8.93719 0.00257778 8.49924C0.00257778 8.0613 -0.2437 8.33158 4.07807 4.02656C7.82108 0.29803 7.99263 0.132261 8.17748 0.0650568C8.41853 -0.022611 8.63208 -0.0217141 8.86649 0.0679802Z" fill="#F1F1F1"/>
</svg>
