<svg width="10" height="17" viewBox="0 0 10 17" fill="none" xmlns="http://www.w3.org/2000/svg">
<path fill-rule="evenodd" clip-rule="evenodd" d="M1.13351 0.0679802C0.986986 0.124056 0.875896 0.212654 0.562989 0.523029C0.0830963 0.999007 0.0177353 1.11269 0.0165021 1.47319C0.0158355 1.6669 0.0327674 1.775 0.0788968 1.87183C0.121793 1.96196 1.18914 3.04985 3.39512 5.25208L6.64807 8.49941L3.39152 11.7466C0.858297 14.2725 0.119993 15.027 0.0676643 15.1433C0.0227014 15.2432 0.00027003 15.3644 3.38605e-06 15.5087C-0.000663224 15.8493 0.0967953 16.0176 0.559456 16.475C0.884895 16.7968 0.98052 16.8718 1.14177 16.9318C1.38485 17.0223 1.57724 17.0227 1.82252 16.9333C2.00727 16.866 2.18078 16.6983 5.92193 12.9718C10.2437 8.66691 9.99742 8.93719 9.99742 8.49924C9.99742 8.0613 10.2437 8.33158 5.92193 4.02656C2.17892 0.29803 2.00737 0.132261 1.82252 0.0650568C1.58147 -0.022611 1.36792 -0.0217141 1.13351 0.0679802Z" fill="#F1F1F1"/>
</svg>
