<svg width="349" height="323" viewBox="0 0 349 323" fill="none" xmlns="http://www.w3.org/2000/svg">
<path d="M2.3125 306.557H343.729V313.951C343.729 315.794 342.968 317.561 341.614 318.864C340.26 320.166 338.424 320.898 336.509 320.898H9.5323C7.61749 320.898 5.78111 320.166 4.42713 318.864C3.07316 317.561 2.3125 315.794 2.3125 313.951V306.557Z" fill="black"/>
<path d="M337.89 312.724H8.1517C7.22433 312.723 6.31049 312.51 5.48587 312.101C4.66125 311.693 3.94955 311.102 3.40969 310.376C2.86983 309.651 2.51735 308.812 2.38142 307.929C2.24549 307.047 2.33003 306.145 2.62803 305.3L32.2577 221.173C33.5417 217.522 35.9831 214.35 39.2383 212.104C42.4936 209.858 46.3989 208.65 50.4047 208.651H295.637C299.643 208.65 303.548 209.858 306.804 212.104C310.059 214.35 312.5 217.522 313.784 221.173L343.414 305.3C343.712 306.145 343.797 307.047 343.661 307.929C343.525 308.812 343.172 309.651 342.632 310.376C342.093 311.102 341.381 311.693 340.556 312.101C339.732 312.51 338.818 312.723 337.89 312.724Z" fill="white"/>
<path d="M337.89 313.388H8.15156C7.11656 313.385 6.09707 313.146 5.17716 312.69C4.25724 312.233 3.46326 311.573 2.86071 310.763C2.25816 309.953 1.86429 309.018 1.71159 308.033C1.55889 307.048 1.65174 306.042 1.98247 305.098L31.5971 220.956C32.9252 217.169 35.4542 213.878 38.828 211.546C42.2018 209.215 46.2506 207.96 50.4046 207.958H295.637C299.791 207.96 303.84 209.215 307.214 211.546C310.588 213.878 313.117 217.169 314.445 220.956L344.134 305.098C344.465 306.042 344.558 307.048 344.405 308.033C344.253 309.018 343.859 309.953 343.256 310.763C342.654 311.573 341.86 312.233 340.94 312.69C340.02 313.146 339 313.385 337.965 313.388H337.89ZM50.4046 209.301C46.532 209.304 42.7583 210.478 39.6175 212.658C36.4767 214.837 34.1277 217.912 32.903 221.447L3.27332 305.517C3.011 306.262 2.93706 307.057 3.05762 307.836C3.17819 308.614 3.48978 309.354 3.96661 309.993C4.44344 310.633 5.07176 311.154 5.79953 311.513C6.5273 311.872 7.33358 312.06 8.15156 312.059H337.89C338.708 312.06 339.515 311.872 340.242 311.513C340.97 311.154 341.598 310.633 342.075 309.993C342.552 309.354 342.864 308.614 342.984 307.836C343.105 307.057 343.031 306.262 342.769 305.517L313.139 221.447C311.904 217.923 309.551 214.861 306.411 212.692C303.271 210.523 299.502 209.357 295.637 209.359L50.4046 209.301Z" fill="#231F20"/>
<path d="M304.388 263.33H42.4344C41.6849 263.332 40.9455 263.164 40.2754 262.841C39.6053 262.518 39.023 262.049 38.5752 261.47C38.1274 260.892 37.8264 260.221 37.6964 259.511C37.5663 258.8 37.6108 258.071 37.8263 257.38L48.3333 223.238C48.6654 222.185 49.338 221.262 50.2531 220.602C51.1682 219.942 52.2782 219.581 53.4217 219.57H292.08C293.361 219.578 294.606 219.981 295.632 220.719C296.658 221.457 297.412 222.492 297.784 223.671L308.396 258.059C308.588 258.67 308.629 259.315 308.515 259.944C308.401 260.573 308.136 261.167 307.741 261.68C307.345 262.192 306.831 262.608 306.238 262.895C305.646 263.182 304.991 263.331 304.328 263.33H304.388ZM53.4217 221.014C52.6018 221.02 51.8055 221.279 51.1493 221.752C50.4931 222.225 50.0112 222.887 49.7743 223.642L39.2673 257.799C39.1199 258.274 39.0898 258.775 39.1795 259.262C39.2692 259.75 39.4761 260.211 39.7838 260.608C40.0915 261.005 40.4914 261.328 40.9516 261.549C41.4119 261.771 41.9196 261.887 42.4344 261.886H304.388C304.817 261.886 305.239 261.789 305.622 261.603C306.005 261.418 306.337 261.149 306.592 260.817C306.847 260.486 307.019 260.102 307.092 259.696C307.165 259.29 307.139 258.872 307.015 258.478L296.403 224.076C296.122 223.196 295.558 222.425 294.792 221.874C294.025 221.324 293.096 221.023 292.14 221.014H53.4217Z" fill="#D1D3D4"/>
<path d="M218.426 301.358H127.616C126.852 301.362 126.097 301.199 125.408 300.881C124.719 300.563 124.114 300.099 123.638 299.523C123.157 298.953 122.815 298.285 122.638 297.57C122.462 296.855 122.455 296.111 122.618 295.393L126.956 276.401C127.363 274.743 128.338 273.265 129.723 272.204C131.109 271.143 132.825 270.561 134.596 270.552H211.447C213.226 270.564 214.948 271.154 216.335 272.226C217.721 273.299 218.691 274.79 219.087 276.459L223.425 295.451C223.588 296.169 223.58 296.913 223.404 297.628C223.227 298.343 222.885 299.01 222.404 299.581C221.923 300.146 221.315 300.599 220.626 300.907C219.937 301.215 219.185 301.369 218.426 301.358ZM134.596 271.996C133.156 272.002 131.762 272.478 130.641 273.347C129.52 274.216 128.74 275.425 128.427 276.776L124.089 295.754C123.972 296.261 123.975 296.788 124.098 297.294C124.221 297.8 124.46 298.273 124.799 298.678C125.138 299.083 125.567 299.41 126.054 299.633C126.542 299.857 127.076 299.973 127.616 299.971H218.426C218.967 299.973 219.5 299.857 219.988 299.633C220.475 299.41 220.904 299.083 221.243 298.678C221.582 298.273 221.822 297.8 221.945 297.294C222.068 296.788 222.071 296.261 221.954 295.754L217.616 276.776C217.303 275.425 216.522 274.216 215.401 273.347C214.28 272.478 212.886 272.002 211.447 271.996H134.596Z" fill="#D1D3D4"/>
<path d="M299.615 27.1809H46.2017C40.805 27.1809 36.4302 31.3904 36.4302 36.583V199.249C36.4302 204.442 40.805 208.651 46.2017 208.651H299.615C305.011 208.651 309.386 204.442 309.386 199.249V36.583C309.386 31.3904 305.011 27.1809 299.615 27.1809Z" fill="#231F20"/>
<path d="M299.6 209.373H46.2018C43.4152 209.373 40.7427 208.308 38.7722 206.412C36.8018 204.516 35.6948 201.945 35.6948 199.263V36.583C35.6948 33.9017 36.8018 31.3303 38.7722 29.4343C40.7427 27.5384 43.4152 26.4733 46.2018 26.4733H299.6C302.386 26.4733 305.059 27.5384 307.029 29.4343C309 31.3303 310.107 33.9017 310.107 36.583V199.235C310.111 200.565 309.842 201.882 309.316 203.112C308.789 204.342 308.016 205.46 307.04 206.402C306.064 207.344 304.904 208.091 303.628 208.601C302.351 209.111 300.982 209.373 299.6 209.373ZM46.2018 27.9175C43.8133 27.9175 41.5225 28.8305 39.8336 30.4556C38.1447 32.0807 37.1958 34.2848 37.1958 36.583V199.235C37.1958 201.533 38.1447 203.737 39.8336 205.362C41.5225 206.987 43.8133 207.9 46.2018 207.9H299.6C301.988 207.9 304.279 206.987 305.968 205.362C307.657 203.737 308.606 201.533 308.606 199.235V36.583C308.606 34.2848 307.657 32.0807 305.968 30.4556C304.279 28.8305 301.988 27.9175 299.6 27.9175H46.2018Z" fill="#231F20"/>
<path d="M294.797 39.6881H50.4346V195.884H294.797V39.6881Z" fill="url(#paint0_linear_2_1147)"/>
<path d="M69.7527 0.678971H276.29C278.089 0.678971 279.815 1.36674 281.087 2.59099C282.359 3.81523 283.074 5.47565 283.074 7.20699V195.855H62.9531V7.22143C62.9512 6.36172 63.1257 5.51012 63.4667 4.71549C63.8077 3.92086 64.3085 3.19887 64.9403 2.59097C65.572 1.98307 66.3224 1.50122 67.1483 1.17311C67.9741 0.844993 68.8592 0.677067 69.7527 0.678971Z" fill="white"/>
<path d="M283.089 196.505H62.9528C62.7736 196.505 62.6018 196.436 62.4752 196.315C62.3485 196.193 62.2773 196.027 62.2773 195.855V7.22138C62.2773 5.30618 63.068 3.46943 64.4755 2.11518C65.883 0.760931 67.7919 0.00012207 69.7823 0.00012207H276.289C278.28 0.00012207 280.189 0.760931 281.596 2.11518C283.004 3.46943 283.794 5.30618 283.794 7.22138V195.855C283.794 195.943 283.776 196.03 283.74 196.111C283.704 196.191 283.652 196.264 283.586 196.325C283.52 196.386 283.442 196.433 283.357 196.464C283.271 196.495 283.18 196.509 283.089 196.505ZM63.6432 195.191H282.398V7.22138C282.398 5.66241 281.755 4.16729 280.609 3.06494C279.463 1.96258 277.91 1.34328 276.289 1.34328H69.7523C68.1321 1.34328 66.5782 1.96258 65.4326 3.06494C64.2869 4.16729 63.6432 5.66241 63.6432 7.22138V195.191Z" fill="#231F20"/>
<path d="M283.089 21.3751H62.9527C62.7695 21.3751 62.5939 21.3051 62.4644 21.1805C62.335 21.0559 62.2622 20.8869 62.2622 20.7107C62.2622 20.5345 62.335 20.3656 62.4644 20.241C62.5939 20.1164 62.7695 20.0464 62.9527 20.0464H283.089C283.272 20.0464 283.447 20.1164 283.577 20.241C283.706 20.3656 283.779 20.5345 283.779 20.7107C283.779 20.8869 283.706 21.0559 283.577 21.1805C283.447 21.3051 283.272 21.3751 283.089 21.3751Z" fill="#231F20"/>
<path d="M138.738 35.5143H84.4321C80.2457 35.5143 76.8521 38.7797 76.8521 42.8077V60.9187C76.8521 64.9467 80.2457 68.2121 84.4321 68.2121H138.738C142.924 68.2121 146.318 64.9467 146.318 60.9187V42.8077C146.318 38.7797 142.924 35.5143 138.738 35.5143Z" fill="#E6E7E8"/>
<path d="M138.738 77.2242H84.4321C80.2457 77.2242 76.8521 80.4896 76.8521 84.5177V175.708C76.8521 179.736 80.2457 183.001 84.4321 183.001H138.738C142.924 183.001 146.318 179.736 146.318 175.708V84.5177C146.318 80.4896 142.924 77.2242 138.738 77.2242Z" fill="#E6E7E8"/>
<path d="M261.61 35.5143H163.084C158.898 35.5143 155.504 38.7797 155.504 42.8077V175.693C155.504 179.721 158.898 182.987 163.084 182.987H261.61C265.796 182.987 269.19 179.721 269.19 175.693V42.8077C269.19 38.7797 265.796 35.5143 261.61 35.5143Z" fill="#E6E7E8"/>
<path d="M81.595 13.4316C83.3939 13.4316 84.8522 12.0285 84.8522 10.2976C84.8522 8.56672 83.3939 7.16357 81.595 7.16357C79.7962 7.16357 78.3379 8.56672 78.3379 10.2976C78.3379 12.0285 79.7962 13.4316 81.595 13.4316Z" fill="#E6E7E8"/>
<path d="M94.2034 13.4316C96.0023 13.4316 97.4606 12.0285 97.4606 10.2976C97.4606 8.56672 96.0023 7.16357 94.2034 7.16357C92.4046 7.16357 90.9463 8.56672 90.9463 10.2976C90.9463 12.0285 92.4046 13.4316 94.2034 13.4316Z" fill="#E6E7E8"/>
<path d="M106.812 13.4316C108.611 13.4316 110.069 12.0285 110.069 10.2976C110.069 8.56672 108.611 7.16357 106.812 7.16357C105.013 7.16357 103.555 8.56672 103.555 10.2976C103.555 12.0285 105.013 13.4316 106.812 13.4316Z" fill="#E6E7E8"/>
<path d="M265.902 11.0053H231.56C231.469 11.0053 231.379 10.9882 231.295 10.9548C231.212 10.9214 231.135 10.8725 231.071 10.8108C231.007 10.7491 230.956 10.6758 230.922 10.5952C230.887 10.5146 230.869 10.4282 230.869 10.341C230.869 10.2544 230.887 10.1687 230.922 10.0889C230.957 10.0091 231.008 9.93679 231.072 9.87625C231.137 9.81571 231.213 9.76814 231.297 9.73634C231.38 9.70454 231.47 9.68915 231.56 9.69108H265.932C266.021 9.69108 266.109 9.70789 266.191 9.74055C266.273 9.77321 266.347 9.82108 266.41 9.88143C266.473 9.94178 266.522 10.0134 266.556 10.0923C266.59 10.1711 266.608 10.2556 266.608 10.341C266.608 10.4295 266.59 10.5171 266.554 10.5986C266.518 10.6802 266.466 10.7541 266.4 10.8159C266.335 10.8778 266.257 10.9265 266.171 10.959C266.086 10.9915 265.994 11.0073 265.902 11.0053Z" fill="#E6E7E8"/>
<path d="M172.811 248.166C191.048 248.166 205.833 245.256 205.833 241.667C205.833 238.077 191.048 235.168 172.811 235.168C154.573 235.168 139.789 238.077 139.789 241.667C139.789 245.256 154.573 248.166 172.811 248.166Z" fill="#E6E7E8"/>
<path d="M257.152 55.1272V58.5357C257.152 75.0579 256.987 91.5801 257.152 108.102C257.557 140.439 247.035 169.31 227.417 195.234C214.009 213.082 195.98 227.242 175.122 236.309C174.457 236.65 173.715 236.828 172.961 236.828C172.207 236.828 171.465 236.65 170.799 236.309C137.778 221.534 115.188 197.227 100.808 165.439C92.5815 147.457 88.4856 127.978 88.8 108.333C89.0402 91.739 88.8 75.1157 88.8 58.5068V54.925C93.5132 54.925 97.9111 54.925 102.309 54.925C116.734 54.7228 131.083 54.0151 145.162 50.5923C154.346 48.4538 163.089 44.8406 171.025 39.9048C171.565 39.4687 172.248 39.2297 172.953 39.2297C173.659 39.2297 174.342 39.4687 174.882 39.9048C186.948 47.4095 200.758 51.92 215.079 53.0331C228.032 54.1451 241.076 54.4773 254.105 55.055C255.065 55.1561 255.966 55.1272 257.152 55.1272Z" fill="url(#paint1_linear_2_1147)"/>
<path d="M173.021 237.478C172.156 237.456 171.306 237.254 170.529 236.886C138.828 222.718 115.157 198.758 100.208 165.699C91.9832 147.62 87.8883 128.052 88.1996 108.319C88.3647 96.765 88.3347 85.1099 88.2897 73.7869C88.2897 68.6887 88.2897 63.5905 88.2897 58.4923V54.925C88.2935 54.75 88.3675 54.5831 88.4961 54.4593C88.6248 54.3355 88.7982 54.2643 88.9801 54.2606H93.393C96.4851 54.2606 99.4871 54.2606 102.399 54.2606C116.133 54.0729 130.798 53.423 145.087 49.9279C154.2 47.8156 162.873 44.2311 170.739 39.3271C171.392 38.8219 172.205 38.5465 173.043 38.5465C173.881 38.5465 174.694 38.8219 175.347 39.3271C187.318 46.7697 201.022 51.2361 215.229 52.3254C224.235 53.1053 233.511 53.4808 242.442 53.7696C246.36 53.9285 250.292 54.0873 254.21 54.2895C254.78 54.2895 255.365 54.2895 256.026 54.2895H257.152C257.335 54.2895 257.51 54.3595 257.64 54.4841C257.769 54.6087 257.842 54.7777 257.842 54.9539V58.5356C257.842 63.6772 257.842 68.8331 257.842 73.9747C257.842 85.1532 257.767 96.7216 257.842 108.102C258.232 139.486 248.191 168.934 227.987 195.624C214.502 213.546 196.395 227.777 175.452 236.915C174.695 237.272 173.865 237.465 173.021 237.478ZM89.5955 55.5894V58.4779C89.5955 63.5809 89.5955 68.6791 89.5955 73.7725C89.5955 85.0954 89.6856 96.8083 89.5055 108.319C89.2372 127.871 93.332 147.251 101.513 165.15C116.328 197.906 139.759 221.635 171.16 235.673C171.735 235.975 172.38 236.133 173.036 236.133C173.691 236.133 174.337 235.975 174.912 235.673C195.655 226.637 213.587 212.549 226.937 194.801C246.96 168.342 256.957 139.168 256.536 108.073C256.401 96.6927 256.431 85.1099 256.536 73.9314C256.536 68.7706 256.536 63.6242 256.536 58.4923V55.7916H256.101C255.411 55.7916 254.795 55.7916 254.195 55.7916C250.277 55.6038 246.36 55.4449 242.442 55.2861C233.436 54.9106 224.235 54.5351 215.169 53.7552C200.731 52.6383 186.806 48.0928 174.642 40.5258C174.214 40.1604 173.661 39.9585 173.088 39.9585C172.516 39.9585 171.963 40.1604 171.535 40.5258C163.537 45.5047 154.722 49.1474 145.463 51.2999C130.993 54.7084 116.223 55.3583 102.474 55.5749C99.4721 55.5749 96.4701 55.5749 93.378 55.5749L89.5955 55.5894Z" fill="#231F20"/>
<path d="M173.021 227.889C172.922 227.91 172.819 227.91 172.721 227.889C143.676 214.428 122.782 192.909 108.868 162.117C101.165 145.229 97.3157 126.948 97.5807 108.507C97.7608 96.8805 97.7158 85.1532 97.6707 73.8447V64.1249C97.6781 63.951 97.7532 63.7861 97.8812 63.663C98.0091 63.5399 98.1804 63.4676 98.3612 63.4605H102.534C116.838 63.2583 132.164 62.5651 147.369 58.9111C156.259 56.8292 164.785 53.5058 172.675 49.0469C172.781 48.99 172.9 48.9601 173.021 48.9601C173.142 48.9601 173.261 48.99 173.366 49.0469C185.873 56.1603 199.894 60.4515 214.373 61.5975C223.649 62.4062 233.016 62.7817 242.067 63.1572L247.725 63.3883C247.902 63.3921 248.07 63.4622 248.193 63.5837C248.317 63.7052 248.386 63.8684 248.386 64.0382V74.2491C248.386 85.3987 248.311 96.9383 248.461 108.319C248.821 138.114 239.65 164.963 220.407 190.381C208.265 206.511 192.084 219.428 173.366 227.932C173.249 227.948 173.13 227.933 173.021 227.889ZM99.0216 64.6882V73.7436C99.0216 85.0954 99.0216 96.8516 98.9316 108.406C98.6607 126.662 102.464 144.761 110.084 161.482C123.833 191.811 144.412 213.114 172.991 226.473C191.374 218.052 207.265 205.324 219.206 189.457C238.269 164.284 247.365 137.695 246.99 108.189C246.855 96.8083 246.885 85.2543 246.99 74.0902V64.5582L242.067 64.356C233.061 63.9805 223.619 63.605 214.313 62.7962C199.748 61.6505 185.637 57.3713 173.021 50.2745C165.114 54.6869 156.592 57.9891 147.714 60.081C132.359 63.7638 116.929 64.4137 102.549 64.6593C101.393 64.6882 100.222 64.6882 99.0517 64.6882H99.0216Z" fill="white"/>
<path d="M163.745 169.786C162.449 169.789 161.167 169.534 159.978 169.036C158.79 168.539 157.722 167.811 156.84 166.898L128.321 136.8C126.662 135.013 125.802 132.67 125.928 130.277C126.054 127.885 127.155 125.637 128.993 124.021C130.83 122.405 133.256 121.551 135.744 121.645C138.231 121.739 140.58 122.773 142.28 124.523L164 147.4L217 93.3276C218.728 91.6038 221.092 90.605 223.58 90.5477C226.068 90.4903 228.48 91.3792 230.291 93.0215C232.103 94.6637 233.168 96.927 233.257 99.3203C233.345 101.714 232.45 104.044 230.764 105.806L170.724 167.013C169.822 167.913 168.737 168.624 167.536 169.102C166.334 169.579 165.044 169.812 163.745 169.786Z" fill="white"/>
<defs>
<linearGradient id="paint0_linear_2_1147" x1="50.4346" y1="54.7069" x2="308.757" y2="77.4285" gradientUnits="userSpaceOnUse">
<stop stop-color="#C61E36"/>
<stop offset="1" stop-color="#4665D3"/>
</linearGradient>
<linearGradient id="paint1_linear_2_1147" x1="88.7832" y1="58.2296" x2="267.749" y2="66.8037" gradientUnits="userSpaceOnUse">
<stop stop-color="#C61E36"/>
<stop offset="1" stop-color="#4665D3"/>
</linearGradient>
</defs>
</svg>
