<svg width="440" height="314" viewBox="0 0 440 314" fill="none" xmlns="http://www.w3.org/2000/svg">
<g clip-path="url(#clip0_2_982)">
<path d="M264.793 313.586C261.228 313.626 257.675 313.148 254.247 312.166C245.203 309.44 237.109 301.845 232.063 291.354C227.541 281.955 225.727 271.606 223.983 261.54C223.965 261.451 223.965 261.358 223.984 261.268C224.003 261.179 224.041 261.094 224.094 261.019C224.147 260.945 224.215 260.882 224.294 260.835C224.372 260.788 224.459 260.757 224.55 260.745C224.639 260.729 224.729 260.73 224.817 260.75C224.905 260.769 224.989 260.805 225.062 260.856C225.136 260.908 225.199 260.974 225.247 261.05C225.296 261.126 225.329 261.21 225.344 261.299C227.073 271.237 228.859 281.487 233.296 290.715C238.187 300.865 245.969 308.177 254.644 310.803C260.952 312.691 267.826 312.223 274.319 311.456C288.224 309.809 296.701 305.494 300.259 298.282C300.386 297.998 300.514 297.742 300.599 297.501C298.374 298.125 296.176 298.92 294.022 299.73C292.236 300.383 290.393 301.05 288.55 301.632C279.582 304.451 270.069 305.074 260.81 303.449C256.345 302.654 253.623 300.496 253.524 297.685C253.425 294.874 255.849 292.631 260.172 291.382C272.018 287.934 284.567 287.703 296.531 290.715C299.933 291.567 301.804 292.986 302.201 295.045C302.243 295.27 302.272 295.497 302.286 295.726C302.825 295.598 303.363 295.485 303.916 295.385C309.671 294.363 315.681 294.945 321.493 295.499C329.743 296.294 337.539 297.046 344.57 293.582C344.735 293.504 344.925 293.495 345.098 293.556C345.27 293.617 345.412 293.744 345.491 293.909C345.532 293.99 345.557 294.078 345.563 294.169C345.57 294.259 345.558 294.35 345.529 294.436C345.5 294.522 345.454 294.601 345.394 294.669C345.334 294.737 345.261 294.792 345.179 294.832C337.794 298.452 329.445 297.671 321.365 296.876C315.695 296.322 309.728 295.755 304.157 296.748C303.477 296.862 302.739 297.018 302.13 297.174C301.963 297.803 301.73 298.412 301.435 298.991C297.665 306.658 288.82 311.215 274.432 312.933C271.235 313.342 268.016 313.56 264.793 313.586ZM279.578 289.962C273.141 289.964 266.736 290.877 260.555 292.674C258.825 293.171 254.8 294.676 254.885 297.614C254.97 300.553 259.605 301.873 261.022 302.058C270.056 303.673 279.344 303.098 288.111 300.383C289.925 299.815 291.754 299.148 293.512 298.509C295.935 297.614 298.402 296.706 300.939 296.039C300.968 295.798 300.968 295.555 300.939 295.314C300.613 293.81 299.068 292.745 296.219 292.021C290.778 290.65 285.188 289.959 279.578 289.962Z" fill="#E6E7E8"/>
<path d="M432.012 96.319H339.747C336.021 96.319 333 99.3445 333 103.077V300.695C333 304.427 336.021 307.453 339.747 307.453H432.012C435.739 307.453 438.76 304.427 438.76 300.695V103.077C438.76 99.3445 435.739 96.319 432.012 96.319Z" fill="white"/>
<path d="M431.732 308.134H339.467C337.498 308.13 335.611 307.345 334.219 305.951C332.827 304.557 332.043 302.667 332.039 300.695V103.062C332.043 101.091 332.827 99.2006 334.219 97.8063C335.611 96.412 337.498 95.627 339.467 95.6233H431.732C433.703 95.6233 435.594 96.4066 436.989 97.8013C438.384 99.196 439.17 101.088 439.174 103.062V300.695C439.17 302.669 438.384 304.561 436.989 305.956C435.594 307.351 433.703 308.134 431.732 308.134ZM339.467 97.0004C337.861 97.0004 336.322 97.639 335.187 98.7759C334.052 99.9127 333.414 101.455 333.414 103.062V300.695C333.414 302.303 334.052 303.845 335.187 304.982C336.322 306.118 337.861 306.757 339.467 306.757H431.732C433.337 306.757 434.877 306.118 436.012 304.982C437.147 303.845 437.785 302.303 437.785 300.695V103.062C437.785 101.455 437.147 99.9127 436.012 98.7759C434.877 97.639 433.337 97.0004 431.732 97.0004H339.467Z" fill="#231F20"/>
<path d="M432.923 115.414H338.276V277.895H432.923V115.414Z" fill="url(#paint0_linear_2_982)"/>
<path d="M395.161 106.115H368.228C368.138 106.117 368.048 106.1 367.964 106.067C367.879 106.034 367.803 105.984 367.738 105.92C367.673 105.857 367.622 105.781 367.587 105.697C367.552 105.614 367.534 105.524 367.534 105.433C367.534 105.249 367.607 105.072 367.737 104.941C367.867 104.811 368.044 104.738 368.228 104.738H395.161C395.251 104.738 395.341 104.756 395.424 104.791C395.508 104.826 395.584 104.877 395.647 104.942C395.71 105.007 395.76 105.084 395.793 105.168C395.827 105.252 395.843 105.343 395.841 105.433C395.843 105.523 395.827 105.613 395.793 105.696C395.76 105.78 395.71 105.856 395.646 105.919C395.583 105.983 395.507 106.033 395.423 106.067C395.34 106.1 395.251 106.117 395.161 106.115Z" fill="#E6E7E8"/>
<path d="M402.546 106.115H398.931C398.751 106.115 398.578 106.043 398.45 105.915C398.323 105.787 398.251 105.614 398.251 105.433C398.251 105.251 398.322 105.076 398.449 104.946C398.577 104.816 398.75 104.741 398.931 104.738H402.546C402.73 104.738 402.907 104.811 403.037 104.941C403.167 105.072 403.241 105.249 403.241 105.433C403.241 105.524 403.223 105.614 403.187 105.697C403.152 105.781 403.101 105.857 403.036 105.92C402.972 105.984 402.895 106.034 402.811 106.067C402.727 106.1 402.637 106.117 402.546 106.115Z" fill="#E6E7E8"/>
<path d="M420.902 217.502H350.24C348.834 217.502 347.485 216.943 346.491 215.947C345.497 214.951 344.938 213.601 344.938 212.193V177.24C344.937 176.542 345.072 175.85 345.338 175.204C345.604 174.558 345.994 173.971 346.486 173.477C346.979 172.982 347.564 172.59 348.208 172.322C348.852 172.054 349.543 171.917 350.24 171.917H420.846C422.255 171.917 423.607 172.477 424.604 173.476C425.601 174.474 426.161 175.828 426.161 177.24V212.193C426.158 213.592 425.604 214.934 424.619 215.928C423.635 216.922 422.3 217.487 420.902 217.502ZM350.24 173.308C349.199 173.308 348.2 173.722 347.464 174.46C346.727 175.197 346.313 176.197 346.313 177.24V212.193C346.313 213.236 346.727 214.236 347.464 214.973C348.2 215.711 349.199 216.125 350.24 216.125H420.846C421.887 216.125 422.886 215.711 423.622 214.973C424.358 214.236 424.772 213.236 424.772 212.193V177.24C424.772 176.197 424.358 175.197 423.622 174.46C422.886 173.722 421.887 173.308 420.846 173.308H350.24Z" fill="white"/>
<path d="M345.676 213.485C345.533 213.482 345.395 213.435 345.28 213.352C345.165 213.268 345.078 213.151 345.032 213.016C344.986 212.881 344.982 212.735 345.021 212.598C345.06 212.461 345.14 212.339 345.25 212.249L380.234 184.523C380.37 184.42 380.539 184.37 380.708 184.383C380.878 184.396 381.037 184.471 381.156 184.594L402.035 206.287C402.164 206.417 402.237 206.593 402.237 206.777C402.237 206.96 402.164 207.136 402.035 207.266C401.972 207.33 401.897 207.38 401.814 207.415C401.732 207.449 401.643 207.467 401.553 207.467C401.464 207.467 401.375 207.449 401.293 207.415C401.21 207.38 401.135 207.33 401.071 207.266L380.631 185.971L346.129 213.314C346.005 213.426 345.843 213.487 345.676 213.485Z" fill="white"/>
<path d="M425.523 206.528C425.426 206.527 425.33 206.505 425.242 206.463C425.154 206.421 425.076 206.361 425.013 206.287L413.418 193.126L400.164 204.214C400.025 204.331 399.845 204.387 399.665 204.371C399.484 204.355 399.317 204.268 399.2 204.129C399.084 203.99 399.027 203.81 399.043 203.629C399.059 203.448 399.146 203.28 399.285 203.164L413.049 191.636C413.176 191.512 413.347 191.442 413.524 191.442C413.702 191.442 413.872 191.512 413.999 191.636L426.034 205.307C426.097 205.371 426.147 205.446 426.182 205.529C426.216 205.611 426.234 205.7 426.234 205.79C426.234 205.88 426.216 205.968 426.182 206.051C426.147 206.134 426.097 206.209 426.034 206.273C425.975 206.353 425.898 206.418 425.809 206.462C425.721 206.507 425.622 206.529 425.523 206.528Z" fill="white"/>
<path d="M401.539 190.443C400.476 190.446 399.435 190.133 398.549 189.542C397.664 188.952 396.973 188.112 396.564 187.128C396.156 186.145 396.049 185.062 396.255 184.016C396.462 182.971 396.974 182.011 397.726 181.258C398.479 180.505 399.437 179.992 400.481 179.785C401.524 179.578 402.605 179.685 403.588 180.094C404.57 180.503 405.409 181.195 405.998 182.082C406.587 182.969 406.9 184.011 406.897 185.077C406.894 186.499 406.328 187.862 405.324 188.867C404.32 189.873 402.959 190.439 401.539 190.443ZM401.539 181.073C400.748 181.071 399.974 181.303 399.315 181.741C398.655 182.179 398.141 182.804 397.836 183.535C397.531 184.266 397.45 185.072 397.603 185.849C397.756 186.627 398.135 187.341 398.694 187.903C399.252 188.464 399.964 188.847 400.74 189.002C401.516 189.158 402.32 189.08 403.052 188.777C403.783 188.474 404.408 187.961 404.848 187.303C405.288 186.644 405.522 185.869 405.523 185.077C405.523 184.018 405.103 183.001 404.357 182.251C403.61 181.501 402.597 181.077 401.539 181.073Z" fill="white"/>
<path d="M355.74 251.447H351.927C349.25 251.447 347.079 253.62 347.079 256.302V262.265C347.079 264.946 349.25 267.12 351.927 267.12H355.74C358.417 267.12 360.588 264.946 360.588 262.265V256.302C360.588 253.62 358.417 251.447 355.74 251.447Z" fill="white"/>
<path d="M376.917 251.447H373.104C370.427 251.447 368.256 253.62 368.256 256.302V262.265C368.256 264.946 370.427 267.12 373.104 267.12H376.917C379.595 267.12 381.765 264.946 381.765 262.265V256.302C381.765 253.62 379.595 251.447 376.917 251.447Z" fill="white"/>
<path d="M398.095 251.447H394.281C391.604 251.447 389.434 253.62 389.434 256.302V262.265C389.434 264.946 391.604 267.12 394.281 267.12H398.095C400.772 267.12 402.942 264.946 402.942 262.265V256.302C402.942 253.62 400.772 251.447 398.095 251.447Z" fill="white"/>
<path d="M419.272 251.447H415.459C412.782 251.447 410.611 253.62 410.611 256.302V262.265C410.611 264.946 412.782 267.12 415.459 267.12H419.272C421.95 267.12 424.12 264.946 424.12 262.265V256.302C424.12 253.62 421.95 251.447 419.272 251.447Z" fill="white"/>
<path d="M424.517 128.957H346.682C346.591 128.959 346.501 128.943 346.417 128.91C346.333 128.876 346.256 128.826 346.192 128.763C346.127 128.699 346.076 128.624 346.04 128.54C346.005 128.456 345.987 128.367 345.987 128.276C345.987 128.091 346.06 127.914 346.191 127.784C346.321 127.653 346.498 127.58 346.682 127.58H424.517C424.701 127.58 424.878 127.653 425.008 127.784C425.138 127.914 425.211 128.091 425.211 128.276C425.211 128.367 425.193 128.456 425.158 128.54C425.123 128.624 425.072 128.699 425.007 128.763C424.942 128.826 424.866 128.876 424.782 128.91C424.697 128.943 424.607 128.959 424.517 128.957Z" fill="white"/>
<path d="M424.517 139.946H346.682C346.494 139.946 346.314 139.871 346.181 139.738C346.048 139.605 345.973 139.424 345.973 139.236C345.973 139.047 346.048 138.867 346.181 138.734C346.314 138.601 346.494 138.526 346.682 138.526H424.517C424.705 138.526 424.885 138.601 425.018 138.734C425.151 138.867 425.226 139.047 425.226 139.236C425.226 139.424 425.151 139.605 425.018 139.738C424.885 139.871 424.705 139.946 424.517 139.946Z" fill="white"/>
<path d="M424.517 150.934H346.682C346.498 150.934 346.321 150.86 346.191 150.73C346.06 150.6 345.987 150.423 345.987 150.238C345.987 150.147 346.005 150.058 346.04 149.974C346.076 149.89 346.127 149.815 346.192 149.751C346.256 149.688 346.333 149.638 346.417 149.604C346.501 149.571 346.591 149.555 346.682 149.557H424.517C424.607 149.555 424.697 149.571 424.782 149.604C424.866 149.638 424.942 149.688 425.007 149.751C425.072 149.815 425.123 149.89 425.158 149.974C425.193 150.058 425.211 150.147 425.211 150.238C425.211 150.423 425.138 150.6 425.008 150.73C424.878 150.86 424.701 150.934 424.517 150.934Z" fill="white"/>
<path d="M424.517 161.922H346.682C346.494 161.922 346.314 161.847 346.181 161.714C346.048 161.581 345.973 161.401 345.973 161.212C345.973 161.024 346.048 160.843 346.181 160.71C346.314 160.577 346.494 160.502 346.682 160.502H424.517C424.705 160.502 424.885 160.577 425.018 160.71C425.151 160.843 425.226 161.024 425.226 161.212C425.226 161.401 425.151 161.581 425.018 161.714C424.885 161.847 424.705 161.922 424.517 161.922Z" fill="white"/>
<path d="M424.517 229.981H346.682C346.494 229.981 346.314 229.906 346.181 229.773C346.048 229.64 345.973 229.46 345.973 229.271C345.973 229.083 346.048 228.903 346.181 228.769C346.314 228.636 346.494 228.562 346.682 228.562H424.517C424.705 228.562 424.885 228.636 425.018 228.769C425.151 228.903 425.226 229.083 425.226 229.271C425.226 229.46 425.151 229.64 425.018 229.773C424.885 229.906 424.705 229.981 424.517 229.981Z" fill="white"/>
<path d="M424.517 240.984H346.682C346.591 240.986 346.501 240.969 346.417 240.936C346.333 240.903 346.256 240.853 346.192 240.789C346.127 240.726 346.076 240.65 346.04 240.566C346.005 240.483 345.987 240.393 345.987 240.302C345.987 240.118 346.06 239.941 346.191 239.81C346.321 239.68 346.498 239.607 346.682 239.607H424.517C424.701 239.607 424.878 239.68 425.008 239.81C425.138 239.941 425.211 240.118 425.211 240.302C425.211 240.393 425.193 240.483 425.158 240.566C425.123 240.65 425.072 240.726 425.007 240.789C424.942 240.853 424.866 240.903 424.782 240.936C424.697 240.969 424.607 240.986 424.517 240.984Z" fill="white"/>
<path d="M410.016 22.1411C410.016 22.1411 411.76 14.702 410.144 10.4714C409.668 9.27832 408.828 8.26649 407.743 7.58058C406.658 6.89467 405.385 6.5698 404.105 6.65244C404.105 6.65244 392.368 4.04025 388.98 0.973755L390.511 6.3969C388.469 6.25321 386.475 5.7081 384.643 4.79268C384.406 5.71978 384.422 6.69345 384.689 7.61229C384.956 8.53114 385.463 9.36156 386.159 10.0171C385.314 10.4227 384.389 10.6332 383.452 10.6332C382.515 10.6332 381.59 10.4227 380.745 10.0171C380.745 10.0171 383.962 17.9247 391.447 17.1154C396.323 16.3914 404.956 23.7737 410.016 22.1411Z" fill="white"/>
<path d="M408.358 23.078C405.678 23.078 402.546 21.6583 399.484 20.2387C396.422 18.819 393.545 17.3993 391.489 17.6975C383.565 18.6203 380.149 10.3294 380.064 10.2442C380.014 10.1104 380.005 9.96413 380.041 9.82543C380.076 9.68674 380.153 9.56233 380.262 9.46918C380.37 9.37603 380.505 9.31867 380.647 9.30493C380.789 9.29118 380.932 9.32172 381.056 9.39237C382.236 10.009 383.609 10.1414 384.884 9.76149C384.367 9.02869 384.014 8.19246 383.85 7.31025C383.686 6.42804 383.715 5.52073 383.934 4.65066C383.957 4.55358 384.002 4.46322 384.066 4.38679C384.13 4.31037 384.211 4.25002 384.303 4.21057C384.395 4.17191 384.493 4.152 384.593 4.152C384.693 4.152 384.792 4.17191 384.884 4.21057C386.362 4.89196 387.926 5.36953 389.533 5.63024L388.272 1.17247C388.232 1.02751 388.24 0.87383 388.293 0.733524C388.347 0.593218 388.444 0.473522 388.569 0.391647C388.697 0.313489 388.846 0.279483 388.995 0.294878C389.143 0.310272 389.283 0.37421 389.391 0.476827C392.453 3.31617 402.985 5.71542 404.119 5.98516C405.538 5.89221 406.949 6.25518 408.147 7.02122C409.346 7.78726 410.268 8.91638 410.781 10.2442C412.468 14.6168 410.781 21.9991 410.682 22.3114C410.66 22.426 410.608 22.5325 410.53 22.6199C410.453 22.7073 410.354 22.7724 410.243 22.8083C409.633 22.9989 408.996 23.09 408.358 23.078ZM391.971 16.2352C394.296 16.2352 397.103 17.5555 400.065 18.9326C403.453 20.5226 406.954 22.1552 409.435 21.5874C409.761 20.0257 410.852 14.1625 409.506 10.7269C409.081 9.66055 408.329 8.75706 407.359 8.14709C406.388 7.53712 405.248 7.2523 404.105 7.33385H403.892C403.467 7.23447 394.636 5.26113 390.1 2.63473L391.107 6.19811C391.135 6.30182 391.14 6.41066 391.12 6.51642C391.1 6.62217 391.057 6.72207 390.993 6.80857C390.928 6.89302 390.844 6.96128 390.748 7.00805C390.652 7.05483 390.547 7.07887 390.44 7.07831C388.6 6.96859 386.794 6.52609 385.111 5.77221C385.029 6.45867 385.115 7.15475 385.362 7.80031C385.609 8.44588 386.009 9.02153 386.528 9.47756C386.613 9.5531 386.68 9.64777 386.722 9.75386C386.763 9.85995 386.78 9.97444 386.769 10.088C386.758 10.2035 386.716 10.314 386.649 10.4086C386.582 10.5032 386.491 10.5787 386.386 10.6275C385.054 11.2283 383.576 11.4257 382.134 11.1954C383.438 13.3249 386.386 16.8741 391.333 16.292C391.544 16.2584 391.758 16.2395 391.971 16.2352Z" fill="#231F20"/>
<path d="M419.924 84.3937C419.924 84.3937 430.159 61.9771 428.911 47.2834C427.664 32.5898 418.053 31.667 414.736 31.4825C411.419 31.2979 393.743 28.9129 387.293 36.8204C380.844 44.728 382.516 82.8179 382.516 82.8179L419.924 84.3937Z" fill="url(#paint1_linear_2_982)"/>
<path d="M381.765 75.2794C374.238 78.7278 367.048 82.8723 360.29 87.659C354.308 91.7192 350.92 134.579 350.92 134.579C350.92 134.579 352.154 141.465 360.106 140.386L381.042 92.642C381.042 92.642 388.512 75.0948 381.765 75.2794Z" fill="#231F20"/>
<path d="M358.476 141.152C356.561 141.201 354.69 140.578 353.186 139.39C351.682 138.203 350.64 136.526 350.24 134.65C350.233 134.594 350.233 134.536 350.24 134.48C350.594 130.05 353.841 91.1798 359.907 87.0485C366.716 82.2541 373.952 78.1005 381.524 74.6406C381.603 74.6195 381.686 74.6195 381.765 74.6406C382.295 74.6004 382.827 74.6998 383.307 74.9289C383.787 75.158 384.198 75.5089 384.501 75.9467C387.152 79.8508 382.261 91.5631 381.666 92.9827L360.73 140.741C360.682 140.848 360.607 140.941 360.512 141.01C360.418 141.08 360.307 141.124 360.191 141.138C359.62 141.182 359.047 141.187 358.476 141.152ZM351.658 134.508C351.814 135.246 353.174 140.4 359.681 139.718L380.461 92.3439C381.879 88.9367 385.281 79.4533 383.395 76.7275C383.239 76.4982 383.027 76.3126 382.779 76.1884C382.531 76.0642 382.255 76.0054 381.978 76.0176C374.544 79.4616 367.429 83.5567 360.715 88.2552C356.009 91.3643 352.565 122.583 351.658 134.508Z" fill="#231F20"/>
<path d="M420.76 79.6804C420.76 79.6804 390.695 80.5464 383.622 79.51C383.622 79.51 383.225 79.5952 378.037 89.1638C372.849 98.7324 380.305 142.473 380.305 142.473C380.305 142.473 387.137 149.713 392.538 148.676L398.931 98.8034C398.931 98.8034 409.832 99.1299 415.941 94.7857C420.137 91.7334 419.952 85.2171 420.76 79.6804Z" fill="#231F20"/>
<path d="M391.433 149.471C386.018 149.471 380.093 143.225 379.795 142.941C379.702 142.844 379.643 142.719 379.625 142.586C379.313 140.797 372.183 98.5762 377.428 88.8372C382.672 79.0983 383.098 78.8995 383.48 78.8995H383.721C390.653 79.9359 420.449 79.0841 420.746 79.0699C420.848 79.0636 420.95 79.0808 421.044 79.1201C421.138 79.1594 421.222 79.2197 421.289 79.2965C421.356 79.3733 421.404 79.4644 421.431 79.563C421.457 79.6615 421.461 79.7648 421.441 79.8649C421.299 80.8871 421.172 81.9518 421.058 83.0166C420.534 87.8151 419.995 92.7697 416.281 95.4387C410.895 99.3002 401.993 99.5842 399.541 99.5842L393.219 148.705C393.201 148.85 393.138 148.985 393.038 149.092C392.939 149.199 392.809 149.272 392.666 149.301C392.261 149.394 391.848 149.451 391.433 149.471ZM380.943 142.146C381.893 143.111 387.435 148.478 391.914 148.066L398.251 98.7182C398.269 98.5462 398.353 98.3879 398.485 98.2766C398.617 98.1654 398.787 98.1099 398.959 98.1219C399.073 98.1219 409.69 98.3774 415.488 94.232C418.691 91.9179 419.201 87.2756 419.74 82.7752C419.825 81.9802 419.91 81.171 420.009 80.3902C415.161 80.518 390.993 81.1142 383.962 80.234C383.551 80.8303 382.29 82.832 378.675 89.4903C373.799 98.42 380.39 138.838 380.943 142.146Z" fill="#231F20"/>
<path d="M387.279 36.8204C387.279 36.8204 382.517 46.0057 379.71 50.719C377.026 54.763 374.045 58.6019 370.794 62.2042C370.794 62.2042 349.177 69.8988 349.049 70.3105C348.922 70.7222 351.091 78.0052 351.091 78.0052C351.091 78.0052 373.771 76.3725 377.513 74.5979C381.255 72.8234 388.853 64.0924 388.853 64.0924L387.279 36.8204Z" fill="#B12A50"/>
<path d="M396.082 31.8942L397.372 39.7308C398.178 40.894 399.38 41.7232 400.752 42.0629C402.124 42.4026 403.574 42.2296 404.828 41.5764C409.775 39.3901 409.775 35.6421 409.775 35.6421L407.138 21.1615C407.138 21.1615 402.574 19.3869 400.207 10.4713C400.207 10.4713 388.867 11.3373 389.646 15.5821C389.646 15.5821 389.505 23.5749 390.709 27.4648C391.142 28.608 391.865 29.6182 392.807 30.3951C393.75 31.1721 394.879 31.6889 396.082 31.8942Z" fill="white"/>
<path d="M402.049 42.9109C401.013 42.8781 399.999 42.6045 399.086 42.1118C398.173 41.619 397.388 40.9206 396.791 40.0715C396.745 39.9916 396.712 39.9055 396.691 39.816L395.472 32.4195C394.228 32.1705 393.07 31.5989 392.115 30.7619C391.16 29.9249 390.441 28.8517 390.029 27.6494C388.796 23.6885 388.923 15.8661 388.923 15.5396C388.869 15.1495 388.897 14.7525 389.004 14.3737C389.112 13.9948 389.296 13.6425 389.547 13.3391C391.773 10.4998 399.271 9.81831 400.122 9.76153C400.283 9.74926 400.443 9.79357 400.575 9.88684C400.707 9.98012 400.802 10.1165 400.845 10.2726C403.07 18.6629 407.323 20.4801 407.365 20.4943C407.474 20.5359 407.57 20.6048 407.644 20.6943C407.719 20.7838 407.769 20.8909 407.79 21.0053L410.427 35.486C410.427 35.7841 410.427 39.8728 405.111 42.1869C404.152 42.6391 403.109 42.8857 402.049 42.9109ZM398.024 39.4611C398.754 40.4528 399.815 41.1489 401.015 41.4225C402.214 41.6961 403.472 41.529 404.558 40.9517C408.953 39.021 409.066 35.7699 409.066 35.628L406.5 21.63C405.338 21.0195 401.766 18.5635 399.668 11.2096C397.202 11.4651 392.084 12.3453 390.624 14.2193C390.482 14.3881 390.379 14.5865 390.323 14.8001C390.266 15.0137 390.258 15.2372 390.298 15.4544C390.298 15.6674 390.185 23.5182 391.347 27.2661C391.721 28.2887 392.361 29.1926 393.201 29.8841C394.041 30.5755 395.05 31.0294 396.124 31.1986L396.408 31.2838C396.499 31.3357 396.579 31.4071 396.64 31.493C396.701 31.5788 396.743 31.677 396.762 31.7807L398.024 39.4611Z" fill="#231F20"/>
<path d="M404.105 21.4454C404.16 20.7121 404.449 20.0157 404.927 19.4579C405.396 18.9564 405.948 18.5387 406.557 18.2228C406.875 18.0206 407.233 17.8899 407.606 17.8394C407.873 17.8371 408.137 17.8852 408.386 17.9814C408.966 18.163 409.467 18.5389 409.803 19.0462C410.024 19.4863 410.136 19.9732 410.129 20.4658C410.169 21.0127 410.131 21.5624 410.016 22.0985C409.893 22.631 409.666 23.1338 409.347 23.5774C409.028 24.021 408.624 24.3966 408.159 24.6823C407.218 25.2463 406.095 25.4243 405.026 25.1792" fill="white"/>
<path d="M405.99 26.031C405.608 26.0266 405.228 25.979 404.857 25.889C404.678 25.8453 404.524 25.7326 404.429 25.5757C404.333 25.4187 404.303 25.2302 404.346 25.0514C404.368 24.9633 404.406 24.8804 404.46 24.8075C404.514 24.7346 404.582 24.6732 404.66 24.6269C404.738 24.5806 404.824 24.5504 404.914 24.538C405.004 24.5255 405.095 24.5312 405.183 24.5545C406.077 24.7568 407.015 24.6096 407.805 24.1428C408.581 23.6531 409.136 22.8786 409.35 21.9849C409.444 21.5179 409.477 21.0408 409.449 20.5653C409.462 20.1727 409.379 19.783 409.208 19.4295C408.947 19.0494 408.561 18.7731 408.117 18.6487C407.951 18.596 407.78 18.5626 407.606 18.5493C407.337 18.5987 407.081 18.7052 406.855 18.8617C406.325 19.1323 405.846 19.4925 405.438 19.9264C405.05 20.3693 404.821 20.9287 404.786 21.5164C404.771 21.6997 404.686 21.8702 404.549 21.992C404.411 22.1138 404.232 22.1774 404.049 22.1695C403.958 22.1641 403.869 22.1406 403.788 22.1004C403.706 22.0601 403.634 22.004 403.574 21.9351C403.515 21.8663 403.47 21.7863 403.441 21.6998C403.413 21.6132 403.403 21.5219 403.411 21.4313C403.472 20.5474 403.815 19.7065 404.389 19.032C404.904 18.4538 405.518 17.973 406.203 17.6123C406.633 17.3458 407.118 17.1807 407.621 17.1296C407.978 17.1287 408.334 17.1912 408.67 17.3142C409.434 17.544 410.085 18.05 410.498 18.7339C410.782 19.2819 410.928 19.8911 410.923 20.5085C410.959 21.1172 410.916 21.7279 410.796 22.3257C410.544 23.387 409.943 24.3326 409.089 25.01C408.236 25.6873 407.179 26.057 406.09 26.0594L405.99 26.031Z" fill="#231F20"/>
<path d="M396.932 19.3442C396.932 19.3442 394.806 23.7736 395.515 24.3841C396.224 24.9945 397.995 24.2705 397.995 24.2705" fill="white"/>
<path d="M396.422 25.3069C395.954 25.3303 395.493 25.1897 395.118 24.9094C394.82 24.668 393.956 23.9582 396.323 19.0461C396.402 18.8847 396.541 18.7605 396.711 18.6996C396.88 18.6387 397.066 18.6458 397.23 18.7196C397.313 18.7576 397.387 18.8119 397.449 18.8793C397.51 18.9467 397.558 19.0258 397.588 19.1118C397.619 19.1979 397.631 19.2892 397.626 19.3804C397.62 19.4715 397.597 19.5606 397.556 19.6424C396.867 20.9803 396.389 22.417 396.138 23.9014C396.71 23.9701 397.29 23.8766 397.811 23.6317C397.981 23.5645 398.17 23.5653 398.339 23.6341C398.508 23.7028 398.644 23.8342 398.718 24.0008C398.753 24.0856 398.771 24.1764 398.77 24.268C398.77 24.3597 398.751 24.4503 398.716 24.5347C398.68 24.6192 398.628 24.6957 398.563 24.76C398.498 24.8243 398.42 24.875 398.336 24.9094C397.727 25.1561 397.079 25.2908 396.422 25.3069Z" fill="#231F20"/>
<path d="M400.431 19.1603C400.805 19.1223 401.065 18.6678 401.012 18.1451C400.959 17.6225 400.613 17.2296 400.239 17.2677C399.865 17.3057 399.605 17.7602 399.658 18.2829C399.711 18.8055 400.057 19.1983 400.431 19.1603Z" fill="#231F20"/>
<path d="M394.691 20.1731C395.065 20.1376 395.328 19.685 395.279 19.162C395.23 18.639 394.886 18.2437 394.512 18.2791C394.138 18.3146 393.875 18.7672 393.924 19.2902C393.974 19.8132 394.317 20.2085 394.691 20.1731Z" fill="#231F20"/>
<path d="M397.556 28.7851C396.258 28.7576 394.975 28.493 393.771 28.0043C393.688 27.9689 393.612 27.917 393.549 27.8518C393.486 27.7867 393.436 27.7095 393.403 27.6248C393.37 27.5401 393.354 27.4497 393.357 27.3588C393.359 27.268 393.38 27.1785 393.417 27.0957C393.494 26.9317 393.631 26.8035 393.8 26.7375C393.969 26.6715 394.156 26.6727 394.324 26.7408C394.324 26.7408 397.542 28.1605 399.711 26.9254C400.279 26.5563 400.753 26.0604 401.098 25.4766C401.442 24.8928 401.647 24.237 401.695 23.5607C401.725 23.3725 401.829 23.2039 401.983 23.0921C402.137 22.9803 402.329 22.9344 402.517 22.9645C402.705 22.9946 402.874 23.0983 402.985 23.2527C403.097 23.4071 403.143 23.5996 403.113 23.7879C403.034 24.6725 402.75 25.5263 402.282 26.2808C401.814 27.0352 401.176 27.6693 400.419 28.1321C399.539 28.5978 398.551 28.8231 397.556 28.7851Z" fill="#231F20"/>
<path d="M396.082 31.8942C396.082 31.8942 401.128 32.2065 403.737 30.0912C403.737 30.0912 401.639 37.1896 396.975 37.1896L396.082 31.8942Z" fill="#231F20"/>
<path d="M397.018 37.9704C396.855 37.9717 396.697 37.9133 396.574 37.806C396.451 37.6988 396.372 37.5502 396.351 37.3883L395.458 32.022C395.439 31.9184 395.444 31.8117 395.474 31.7105C395.503 31.6093 395.556 31.5166 395.628 31.4399C395.697 31.3624 395.783 31.3017 395.879 31.2623C395.974 31.2229 396.078 31.206 396.181 31.2128C396.181 31.2128 401.001 31.4825 403.354 29.5659C403.469 29.4773 403.61 29.4274 403.755 29.423C403.901 29.4187 404.044 29.4603 404.165 29.5419C404.285 29.6235 404.377 29.7409 404.428 29.8777C404.478 30.0145 404.484 30.1637 404.445 30.3042C404.36 30.6023 402.163 37.8852 397.032 37.9704H397.018ZM397.018 32.6182L397.67 36.5365C400.079 36.1248 401.681 33.4842 402.518 31.6671C400.714 32.3193 398.807 32.6368 396.89 32.604L397.018 32.6182Z" fill="#231F20"/>
<path d="M424.12 35.131C428.16 35.8408 444.504 73.6893 438.905 78.0051C430.173 84.7486 399.782 78.0051 399.782 78.0051L402.262 66.2644C402.262 66.2644 421.796 66.8181 422.107 62.8004C422.419 58.7828 410.767 40.185 412.27 37.4025C413.772 34.6199 424.12 35.131 424.12 35.131Z" fill="#6E4FA2"/>
<path d="M404.36 70.0692C401.116 70.276 397.859 70.1189 394.65 69.6007C392.275 69.0227 389.837 68.7414 387.393 68.7631C384.172 68.9167 381.004 69.6426 378.037 70.9068C377.911 70.9466 377.798 71.0203 377.711 71.1198C377.428 71.5173 378.108 71.9148 378.604 71.929C379.892 71.9541 381.176 71.7915 382.417 71.4463C379.346 72.583 376.442 74.1302 373.785 76.0461C373.473 76.259 373.147 76.5997 373.289 76.9404C373.43 77.2812 374.054 77.2244 374.451 77.0398L381.425 73.8456C379.616 74.572 377.939 75.5938 376.464 76.8695C376.265 77.054 376.024 77.2954 376.095 77.5651C376.166 77.8348 376.889 77.9484 377.328 77.7355C379.453 76.6712 381.483 75.4268 383.395 74.0159L379.143 77.338C379.143 77.6787 379.469 77.9768 379.823 77.991C380.178 77.9686 380.521 77.8509 380.815 77.6503L385.621 74.8109L382.63 76.9121C382.148 77.2386 381.609 77.7781 381.85 78.3317C382.091 78.8854 383.041 78.7576 383.665 78.4879C386.13 77.4175 388.707 76.627 391.347 76.1312C392.268 75.8309 393.219 75.6356 394.182 75.5492C395.667 75.7455 397.133 76.0685 398.563 76.5145C400.745 76.9972 402.914 77.4941 405.083 77.9342" fill="white"/>
<path d="M382.545 79.3964C382.337 79.4005 382.131 79.3668 381.935 79.297C381.775 79.2383 381.628 79.1477 381.504 79.0305C381.38 78.9134 381.281 78.7722 381.212 78.6156C381.15 78.4771 381.116 78.3274 381.113 78.1755C380.722 78.4513 380.259 78.6045 379.781 78.6156C379.588 78.6057 379.399 78.5566 379.226 78.4711C379.053 78.3857 378.899 78.2658 378.774 78.1187C378.695 78.0237 378.628 77.9187 378.576 77.8064C378.278 77.9767 377.966 78.1329 377.654 78.2891C377.418 78.4195 377.156 78.4972 376.887 78.5168C376.618 78.5364 376.348 78.4974 376.095 78.4026C375.951 78.3348 375.824 78.2339 375.726 78.1081C375.627 77.9824 375.56 77.8353 375.528 77.6786C375.5 77.5381 375.5 77.3933 375.528 77.2527L374.763 77.6076C374.326 77.8373 373.818 77.8882 373.345 77.7496C373.212 77.7015 373.09 77.6261 372.988 77.5283C372.885 77.4306 372.804 77.3126 372.75 77.1817C372.622 76.912 372.466 76.2163 373.444 75.5207C375.008 74.3911 376.658 73.3849 378.377 72.511C378.126 72.4826 377.885 72.3976 377.671 72.2623C377.458 72.1271 377.277 71.9452 377.144 71.7302C377.067 71.5725 377.034 71.3966 377.049 71.2214C377.064 71.0463 377.126 70.8786 377.229 70.7364C377.379 70.5426 377.581 70.395 377.81 70.3105C380.849 69.0155 384.094 68.2751 387.393 68.1242C389.582 68.0725 391.768 68.3015 393.899 68.8057L394.792 68.9618C397.959 69.4726 401.173 69.6297 404.374 69.4303C404.539 69.4302 404.697 69.4935 404.816 69.6073C404.934 69.721 405.005 69.8763 405.012 70.0408C405.013 70.2068 404.95 70.3668 404.836 70.4881C404.723 70.6094 404.568 70.683 404.403 70.6938C401.111 70.8871 397.808 70.7253 394.551 70.2111L393.644 70.0408C391.609 69.5636 389.524 69.3395 387.435 69.3735C384.454 69.5243 381.518 70.1671 378.746 71.2759C379.934 71.3016 381.119 71.1485 382.261 70.8216C382.419 70.7689 382.591 70.7811 382.74 70.8557C382.889 70.9302 383.002 71.061 383.055 71.2191C383.108 71.3772 383.095 71.5498 383.021 71.6989C382.947 71.848 382.816 71.9614 382.658 72.0141C379.707 73.1039 376.91 74.5737 374.337 76.3867L379.54 74.0017C380.078 73.7319 380.617 73.4764 381.17 73.2634C381.322 73.1975 381.494 73.1949 381.648 73.2562C381.803 73.3174 381.926 73.4375 381.992 73.5899C382.058 73.7424 382.06 73.9149 381.999 74.0693C381.938 74.2237 381.818 74.3475 381.666 74.4134L380.093 75.1374C379.035 75.69 378.037 76.3513 377.116 77.1107C379.189 76.0712 381.168 74.8503 383.027 73.4622C383.093 73.4122 383.168 73.3759 383.248 73.3553C383.328 73.3346 383.411 73.3301 383.493 73.342C383.575 73.3539 383.653 73.3819 383.724 73.4245C383.795 73.4671 383.857 73.5233 383.906 73.5899C383.956 73.655 383.993 73.7296 384.015 73.8092C384.037 73.8888 384.043 73.9719 384.032 74.0537C384.022 74.1356 383.995 74.2145 383.954 74.286C383.913 74.3575 383.858 74.42 383.792 74.4701L380.362 77.0824H380.447L385.252 74.243C385.392 74.18 385.549 74.1694 385.696 74.2131C385.843 74.2568 385.969 74.3519 386.052 74.481C386.134 74.6102 386.168 74.7648 386.146 74.9166C386.124 75.0683 386.048 75.2072 385.933 75.3078L382.928 77.4089C382.446 77.7496 382.346 78.0051 382.361 78.0335C382.701 78.1002 383.054 78.0396 383.353 77.8632C385.868 76.7691 388.497 75.9596 391.192 75.4497L392.099 75.2084C392.772 74.9913 393.475 74.8811 394.182 74.8819C395.266 74.9669 396.336 75.1765 397.372 75.5065C397.825 75.6343 398.265 75.7621 398.69 75.8472L405.211 77.3521C405.291 77.3707 405.366 77.405 405.433 77.4529C405.5 77.5008 405.557 77.5614 405.6 77.6313C405.644 77.7011 405.673 77.7789 405.686 77.8601C405.7 77.9413 405.697 78.0243 405.678 78.1045C405.66 78.1847 405.626 78.2604 405.578 78.3273C405.53 78.3942 405.469 78.4511 405.4 78.4946C405.33 78.5381 405.252 78.5674 405.171 78.5809C405.09 78.5943 405.007 78.5916 404.927 78.573C402.758 78.0761 400.59 77.565 398.407 77.1533C397.967 77.054 397.514 76.9262 396.989 76.7984C396.068 76.5025 395.117 76.3074 394.154 76.2163C393.565 76.226 392.981 76.3315 392.425 76.5287C392.099 76.6139 391.773 76.7132 391.433 76.77C388.83 77.2792 386.291 78.0743 383.863 79.1409C383.445 79.3118 382.997 79.3987 382.545 79.3964Z" fill="#231F20"/>
<path d="M389.377 40.1425C388.3 41.2356 385.592 58.442 384.6 66.5626L389.377 40.1425Z" fill="white"/>
<path d="M384.6 67.2014H384.515C384.352 67.1802 384.203 67.0951 384.103 66.9648C384.002 66.8345 383.956 66.6695 383.976 66.5058C384.586 61.4518 387.506 41.1646 388.938 39.7024C389.059 39.608 389.21 39.5607 389.364 39.5691C389.517 39.5775 389.662 39.641 389.773 39.7481C389.883 39.8552 389.951 39.9985 389.964 40.1518C389.978 40.3052 389.935 40.4581 389.845 40.5826C388.923 41.8461 386.315 57.7038 385.224 66.662C385.2 66.8112 385.125 66.9474 385.011 67.0461C384.896 67.1449 384.751 67.1999 384.6 67.2014Z" fill="#231F20"/>
<path d="M348.61 82.7611L349.092 85.9838L393.573 92.4859L392.822 89.1638L348.61 82.7611Z" fill="white"/>
<path d="M393.573 93.1814H393.474L348.993 86.6651C348.847 86.6427 348.711 86.5741 348.607 86.4694C348.502 86.3648 348.434 86.2294 348.411 86.0831L347.93 82.8604C347.909 82.7535 347.916 82.6433 347.948 82.5394C347.98 82.4354 348.037 82.341 348.114 82.2641C348.193 82.19 348.287 82.1338 348.39 82.0995C348.493 82.0652 348.601 82.0536 348.709 82.0654L392.921 88.4823C393.057 88.502 393.185 88.5628 393.286 88.6566C393.387 88.7504 393.458 88.8728 393.488 89.0076L394.183 92.3438C394.211 92.4504 394.212 92.5627 394.185 92.6696C394.158 92.7766 394.103 92.8747 394.027 92.9543C393.91 93.0857 393.748 93.1671 393.573 93.1814ZM349.631 85.3732L392.623 91.6624L392.198 89.7742L349.361 83.5702L349.631 85.3732Z" fill="#231F20"/>
<path d="M348.61 82.7611C348.61 82.7611 358.731 74.0585 359.071 74.1437C359.411 74.2289 404.899 79.6804 404.899 79.6804L392.765 89.1638L348.61 82.7611Z" fill="white"/>
<path d="M392.765 89.8595L348.511 83.3999C348.379 83.3789 348.256 83.3211 348.156 83.2332C348.056 83.1453 347.982 83.0309 347.944 82.9031C347.905 82.7769 347.905 82.6422 347.943 82.5159C347.98 82.3895 348.055 82.2772 348.156 82.1932C358.561 73.2493 358.788 73.3203 359.227 73.4196C359.907 73.5332 389.462 77.0824 404.984 78.9422C405.121 78.9601 405.249 79.0182 405.352 79.1092C405.456 79.2002 405.53 79.32 405.565 79.4533C405.606 79.584 405.604 79.7243 405.561 79.8542C405.518 79.9841 405.435 80.0972 405.324 80.1773L393.247 89.6607C393.184 89.7239 393.109 89.774 393.026 89.8081C392.943 89.8422 392.855 89.8597 392.765 89.8595ZM350.24 82.2926L392.652 88.4398L403.198 80.1631C389.505 78.5163 362.289 75.251 359.255 74.8535C358.235 75.4924 353.628 79.3681 350.24 82.2926Z" fill="#231F20"/>
<path d="M393.573 92.4859L405.182 82.7611L404.899 79.6804L392.822 89.1638L393.573 92.4859Z" fill="white"/>
<path d="M393.573 93.1815C393.503 93.1949 393.431 93.1949 393.36 93.1815C393.247 93.1477 393.145 93.0836 393.065 92.9961C392.985 92.9085 392.93 92.8009 392.907 92.6846L392.156 89.3625C392.123 89.2357 392.129 89.1021 392.172 88.9784C392.214 88.8547 392.293 88.7464 392.397 88.6669L404.474 79.1409C404.572 79.0639 404.689 79.0148 404.813 78.9987C404.936 78.9826 405.062 79.0002 405.177 79.0496C405.291 79.099 405.39 79.1783 405.464 79.2793C405.537 79.3803 405.582 79.4992 405.593 79.6236L405.863 82.7043C405.875 82.8159 405.859 82.9287 405.817 83.0327C405.775 83.1367 405.708 83.2287 405.622 83.3005L394.012 93.0395C393.885 93.1337 393.731 93.1835 393.573 93.1815ZM393.573 89.4335L393.984 91.2365L404.445 82.4629L404.318 81.0433L393.573 89.4335Z" fill="#231F20"/>
<path d="M348.61 82.7611L340.062 54.0695L386.953 62.0764L392.822 89.1638L348.61 82.7611Z" fill="white"/>
<path d="M392.765 89.8595L348.511 83.4C348.378 83.3823 348.253 83.3257 348.152 83.2373C348.051 83.1489 347.979 83.0326 347.944 82.9031L339.439 54.2257C339.406 54.1129 339.402 53.9936 339.428 53.879C339.454 53.7644 339.508 53.6582 339.586 53.5703C339.664 53.4824 339.763 53.4157 339.873 53.3764C339.984 53.3371 340.102 53.3265 340.218 53.3455L387.095 61.395C387.229 61.4173 387.353 61.4793 387.452 61.5729C387.55 61.6665 387.619 61.7875 387.648 61.9203L393.488 89.0787C393.514 89.1865 393.511 89.2991 393.482 89.4059C393.452 89.5127 393.396 89.6102 393.318 89.6891C393.244 89.7565 393.156 89.8066 393.06 89.8361C392.965 89.8655 392.864 89.8735 392.765 89.8595ZM349.078 82.1365L391.886 88.3404L386.372 62.6727L341.012 54.9355L349.078 82.1365Z" fill="#231F20"/>
<path d="M414.566 82.0939H414.453L404.97 80.4612C404.812 80.4324 404.668 80.3507 404.563 80.2295C404.457 80.1083 404.396 79.9547 404.389 79.794L404.091 68.4366C404.083 68.2619 404.144 68.0912 404.261 67.9611C404.378 67.831 404.54 67.752 404.715 67.741L421.484 66.009L414.028 40.3271C413.979 40.152 414.001 39.9649 414.088 39.8058C414.176 39.6466 414.322 39.528 414.495 39.4753C414.583 39.4491 414.675 39.4405 414.766 39.4498C414.856 39.4592 414.944 39.4864 415.025 39.53C415.105 39.5735 415.176 39.6324 415.234 39.7034C415.291 39.7744 415.334 39.8561 415.36 39.9438L423.029 66.3639C423.058 66.4589 423.065 66.5592 423.05 66.6575C423.036 66.7557 422.999 66.8494 422.944 66.9318C422.887 67.0156 422.814 67.0867 422.729 67.1405C422.643 67.1943 422.548 67.2296 422.448 67.2441L405.438 68.9903L405.721 79.1693L414.651 80.7026C414.744 80.711 414.835 80.7376 414.918 80.7811C415.001 80.8245 415.074 80.8838 415.134 80.9557C415.194 81.0275 415.239 81.1105 415.267 81.1998C415.295 81.2891 415.305 81.3831 415.296 81.4763C415.288 81.5695 415.261 81.6602 415.218 81.7431C415.175 81.826 415.115 81.8996 415.044 81.9595C414.972 82.0195 414.889 82.0648 414.8 82.0927C414.711 82.1206 414.617 82.1306 414.524 82.1223L414.566 82.0939Z" fill="#231F20"/>
<path d="M352.352 126.927C351.571 126.204 350.752 125.521 349.9 124.883C348.057 123.463 344.102 121.461 342.968 124.727C342.259 126.743 343.351 129.426 344.102 131.286C345.586 134.842 347.848 138.02 350.722 140.584C353.231 142.856 361.226 146.135 360.644 139.804C360.49 138.658 360.125 137.55 359.567 136.538C357.763 132.923 355.319 129.667 352.352 126.927Z" fill="white"/>
<path d="M357.696 144.119C354.974 143.899 352.39 142.826 350.311 141.053C347.365 138.426 345.045 135.171 343.521 131.527C342.756 129.625 341.593 126.771 342.373 124.514C342.512 124.041 342.764 123.608 343.108 123.255C343.451 122.901 343.875 122.636 344.343 122.484C346.654 121.788 349.701 123.903 350.283 124.386C351.149 125.034 351.982 125.726 352.777 126.459C355.809 129.247 358.307 132.567 360.148 136.254C360.74 137.338 361.124 138.522 361.282 139.747C361.509 142.217 360.489 143.282 359.581 143.722C358.994 144.003 358.347 144.139 357.696 144.119ZM345.336 123.605C345.125 123.603 344.914 123.631 344.712 123.69C344.43 123.783 344.177 123.947 343.976 124.166C343.775 124.384 343.633 124.651 343.564 124.94C342.94 126.728 343.989 129.326 344.683 131.044C346.133 134.515 348.342 137.615 351.147 140.116C352.933 141.749 357.129 143.552 359.029 142.6C359.837 142.189 360.163 141.294 360.035 139.86C359.88 138.794 359.535 137.765 359.014 136.822C357.256 133.267 354.852 130.071 351.927 127.396C351.161 126.686 350.354 125.976 349.531 125.394C348.332 124.408 346.876 123.787 345.336 123.605Z" fill="#231F20"/>
<path d="M379.356 130.462C378.81 130.079 378.15 129.894 377.484 129.937C377.068 130.036 376.685 130.247 376.379 130.547C375.808 131.137 375.376 131.847 375.116 132.626C374.856 133.405 374.774 134.233 374.876 135.048C375.08 136.674 375.585 138.249 376.365 139.69C378.533 144.205 381.468 148.577 385.819 151.047C386.6 151.512 387.453 151.843 388.343 152.027C396.082 153.447 392.878 145.752 390.979 142.274C388.287 137.323 384.259 133.23 379.356 130.462Z" fill="white"/>
<path d="M390.001 152.794C389.406 152.788 388.813 152.731 388.229 152.623C387.274 152.427 386.359 152.072 385.521 151.573C381.694 149.415 378.519 145.624 375.797 139.974C374.992 138.457 374.464 136.808 374.238 135.104C374.126 134.193 374.222 133.269 374.519 132.401C374.816 131.532 375.306 130.743 375.953 130.093C376.342 129.706 376.834 129.439 377.371 129.326C378.176 129.249 378.983 129.455 379.653 129.908C384.651 132.734 388.764 136.898 391.532 141.933C392.949 144.46 394.976 149.031 393.275 151.431C392.884 151.91 392.38 152.286 391.809 152.523C391.237 152.761 390.616 152.854 390.001 152.794ZM377.754 130.547H377.583C377.287 130.624 377.017 130.781 376.804 131.002C376.3 131.522 375.921 132.15 375.695 132.839C375.469 133.527 375.402 134.258 375.5 134.977C375.692 136.529 376.173 138.031 376.917 139.406C379.511 144.829 382.587 148.435 386.103 150.451C386.82 150.886 387.606 151.193 388.427 151.36C390.369 151.715 391.645 151.473 392.212 150.678C393.318 149.131 391.999 145.454 390.398 142.529C387.761 137.705 383.834 133.713 379.058 131.002C378.665 130.748 378.218 130.592 377.754 130.547Z" fill="#231F20"/>
<path d="M376.251 106.115C376.08 106.115 375.915 106.051 375.789 105.936C375.663 105.82 375.585 105.661 375.571 105.49C375.571 105.178 374.791 97.5541 376.095 93.2099C376.12 93.1232 376.162 93.0423 376.218 92.9718C376.275 92.9014 376.344 92.8427 376.423 92.7992C376.502 92.7557 376.589 92.7282 376.679 92.7183C376.768 92.7084 376.859 92.7162 376.946 92.7414C377.032 92.7665 377.113 92.8085 377.183 92.865C377.254 92.9214 377.312 92.9911 377.356 93.0702C377.399 93.1493 377.426 93.2362 377.436 93.326C377.446 93.4157 377.438 93.5065 377.413 93.5932C376.194 97.6818 376.917 105.291 376.931 105.362C376.947 105.545 376.891 105.726 376.774 105.867C376.657 106.008 376.49 106.097 376.308 106.115H376.251Z" fill="white"/>
<path d="M293.228 52.6072H11.6274C5.7168 52.6072 0.925293 57.406 0.925293 63.3257V256.841C0.925293 262.761 5.7168 267.56 11.6274 267.56H293.228C299.139 267.56 303.93 262.761 303.93 256.841V63.3257C303.93 57.406 299.139 52.6072 293.228 52.6072Z" fill="white"/>
<path d="M293.228 268.256H11.6276C8.62578 268.237 5.75219 267.034 3.62955 264.909C1.5069 262.783 0.306185 259.905 0.287598 256.898V63.3258C0.287598 60.3136 1.48235 57.4248 3.60901 55.2949C5.73567 53.165 8.62004 51.9684 11.6276 51.9684H293.228C296.236 51.9684 299.12 53.165 301.247 55.2949C303.373 57.4248 304.568 60.3136 304.568 63.3258V256.856C304.574 258.351 304.285 259.832 303.717 261.215C303.15 262.598 302.315 263.855 301.262 264.914C300.208 265.973 298.956 266.814 297.578 267.387C296.199 267.96 294.721 268.256 293.228 268.256ZM11.6276 53.3029C8.97212 53.3029 6.42521 54.3584 4.54618 56.2376C2.66714 58.1169 1.60963 60.6662 1.60587 63.3258V256.856C1.60963 259.515 2.66714 262.064 4.54618 263.944C6.42521 265.823 8.97212 266.879 11.6276 266.879H293.228C295.881 266.875 298.424 265.818 300.3 263.939C302.176 262.06 303.232 259.513 303.236 256.856V63.3258C303.232 60.6687 302.176 58.1215 300.3 56.2427C298.424 54.3638 295.881 53.3066 293.228 53.3029H11.6276Z" fill="#231F20"/>
<path d="M292.718 80.4044H12.1235V256.259H292.718V80.4044Z" fill="#231F20"/>
<path d="M292.718 256.969H12.1238C11.9358 256.969 11.7555 256.894 11.6226 256.761C11.4897 256.628 11.415 256.448 11.415 256.259V80.4044C11.415 80.2162 11.4897 80.0356 11.6226 79.9025C11.7555 79.7694 11.9358 79.6946 12.1238 79.6946H292.789C292.977 79.6946 293.157 79.7694 293.29 79.9025C293.423 80.0356 293.498 80.2162 293.498 80.4044V256.259C293.498 256.359 293.478 256.457 293.438 256.548C293.398 256.64 293.339 256.721 293.266 256.788C293.192 256.855 293.105 256.906 293.011 256.937C292.917 256.968 292.817 256.979 292.718 256.969ZM12.8751 255.549H292.123V81.1143H12.8751V255.549Z" fill="#231F20"/>
<path d="M292.718 63.9078H12.1235V80.4044H292.718V63.9078Z" fill="url(#paint2_linear_2_982)"/>
<path d="M292.718 81.1143H12.1238C11.9358 81.1143 11.7555 81.0395 11.6226 80.9064C11.4897 80.7733 11.415 80.5927 11.415 80.4044V63.9078C11.415 63.7196 11.4897 63.539 11.6226 63.4059C11.7555 63.2728 11.9358 63.198 12.1238 63.198H292.789C292.977 63.198 293.157 63.2728 293.29 63.4059C293.423 63.539 293.498 63.7196 293.498 63.9078V80.4044C293.498 80.5039 293.478 80.6024 293.438 80.6935C293.398 80.7846 293.339 80.8663 293.266 80.9332C293.192 81.0002 293.105 81.0509 293.011 81.0821C292.917 81.1133 292.817 81.1242 292.718 81.1143ZM12.8751 79.6946H292.123V64.6177H12.8751V79.6946Z" fill="url(#paint3_linear_2_982)"/>
<path d="M68.3844 97.9089H44.2869C44.1963 97.9108 44.1063 97.8946 44.0221 97.8612C43.9379 97.8278 43.8612 97.7779 43.7966 97.7144C43.7319 97.651 43.6805 97.5752 43.6454 97.4916C43.6103 97.408 43.5923 97.3182 43.5923 97.2275C43.5923 97.043 43.6655 96.8661 43.7957 96.7356C43.926 96.6051 44.1027 96.5319 44.2869 96.5319H68.3844C68.4749 96.5318 68.5646 96.5499 68.6481 96.5851C68.7316 96.6202 68.8072 96.6717 68.8706 96.7364C68.9339 96.8012 68.9838 96.878 69.0171 96.9624C69.0504 97.0467 69.0666 97.1368 69.0648 97.2275C69.0667 97.3175 69.0504 97.407 69.0169 97.4906C68.9834 97.5741 68.9334 97.65 68.8698 97.7137C68.8062 97.7773 68.7304 97.8275 68.647 97.861C68.5636 97.8946 68.4742 97.9109 68.3844 97.9089Z" fill="white"/>
<path d="M122.746 97.9089H74.5507C74.4608 97.9109 74.3714 97.8946 74.288 97.861C74.2046 97.8275 74.1288 97.7773 74.0652 97.7137C74.0017 97.65 73.9516 97.5741 73.9181 97.4906C73.8846 97.407 73.8683 97.3175 73.8703 97.2275C73.8684 97.1368 73.8846 97.0467 73.9179 96.9624C73.9513 96.878 74.0011 96.8012 74.0645 96.7364C74.1279 96.6717 74.2035 96.6202 74.287 96.5851C74.3705 96.5499 74.4601 96.5318 74.5507 96.5319H122.746C122.93 96.5319 123.107 96.6051 123.237 96.7356C123.367 96.8661 123.44 97.043 123.44 97.2275C123.44 97.3182 123.422 97.408 123.387 97.4916C123.352 97.5752 123.301 97.651 123.236 97.7144C123.171 97.7779 123.095 97.8278 123.01 97.8612C122.926 97.8946 122.836 97.9108 122.746 97.9089Z" fill="url(#paint4_linear_2_982)"/>
<path d="M139.401 108.017H91.2058C91.0178 108.017 90.8376 107.942 90.7047 107.809C90.5717 107.676 90.4971 107.496 90.4971 107.307C90.4971 107.119 90.5717 106.938 90.7047 106.805C90.8376 106.672 91.0178 106.597 91.2058 106.597H139.401C139.589 106.597 139.769 106.672 139.902 106.805C140.035 106.938 140.11 107.119 140.11 107.307C140.11 107.496 140.035 107.676 139.902 107.809C139.769 107.942 139.589 108.017 139.401 108.017Z" fill="url(#paint5_linear_2_982)"/>
<path d="M74.0401 108.017H49.9426C49.7547 108.017 49.5744 107.942 49.4415 107.809C49.3086 107.676 49.2339 107.496 49.2339 107.307C49.2339 107.119 49.3086 106.938 49.4415 106.805C49.5744 106.672 49.7547 106.597 49.9426 106.597H74.0401C74.2281 106.597 74.4084 106.672 74.5413 106.805C74.6742 106.938 74.7489 107.119 74.7489 107.307C74.7489 107.496 74.6742 107.676 74.5413 107.809C74.4084 107.942 74.2281 108.017 74.0401 108.017Z" fill="white"/>
<path d="M79.71 118.111H55.6125C55.4283 118.111 55.2517 118.038 55.1214 117.907C54.9911 117.777 54.918 117.6 54.918 117.415C54.9179 117.325 54.936 117.235 54.9711 117.151C55.0062 117.068 55.0575 116.992 55.1222 116.928C55.1869 116.865 55.2636 116.815 55.3478 116.782C55.432 116.748 55.522 116.732 55.6125 116.734H79.71C79.7999 116.732 79.8893 116.748 79.9727 116.782C80.0561 116.815 80.1319 116.866 80.1955 116.929C80.259 116.993 80.3091 117.069 80.3426 117.152C80.3761 117.236 80.3924 117.325 80.3904 117.415C80.3923 117.506 80.3761 117.596 80.3428 117.68C80.3094 117.765 80.2596 117.842 80.1962 117.906C80.1329 117.971 80.0572 118.023 79.9737 118.058C79.8902 118.093 79.8006 118.111 79.71 118.111Z" fill="white"/>
<path d="M148.005 118.111H87.7475C87.6569 118.111 87.5672 118.093 87.4838 118.058C87.4003 118.023 87.3246 117.971 87.2613 117.906C87.1979 117.842 87.1481 117.765 87.1147 117.68C87.0814 117.596 87.0652 117.506 87.067 117.415C87.0651 117.325 87.0814 117.236 87.1149 117.152C87.1484 117.069 87.1985 116.993 87.262 116.929C87.3256 116.866 87.4014 116.815 87.4848 116.782C87.5682 116.748 87.6576 116.732 87.7475 116.734H148.005C148.096 116.732 148.186 116.748 148.27 116.782C148.354 116.815 148.431 116.865 148.496 116.928C148.56 116.992 148.612 117.068 148.647 117.151C148.682 117.235 148.7 117.325 148.7 117.415C148.7 117.6 148.627 117.777 148.497 117.907C148.366 118.038 148.19 118.111 148.005 118.111Z" fill="url(#paint6_linear_2_982)"/>
<path d="M85.3658 128.205H61.2683C61.0865 128.201 60.9135 128.126 60.7863 127.996C60.6591 127.866 60.5879 127.691 60.5879 127.509C60.5879 127.329 60.6596 127.155 60.7872 127.027C60.9148 126.9 61.0878 126.828 61.2683 126.828H85.3658C85.4563 126.826 85.5463 126.842 85.6305 126.876C85.7147 126.909 85.7914 126.959 85.8561 127.022C85.9208 127.086 85.9722 127.162 86.0072 127.245C86.0423 127.329 86.0604 127.419 86.0604 127.509C86.0604 127.694 85.9872 127.871 85.8569 128.001C85.7267 128.132 85.55 128.205 85.3658 128.205Z" fill="white"/>
<path d="M160.465 128.205H88.8245C88.6403 128.205 88.4636 128.132 88.3333 128.001C88.2031 127.871 88.1299 127.694 88.1299 127.509C88.1299 127.419 88.1479 127.329 88.183 127.245C88.2181 127.162 88.2695 127.086 88.3342 127.022C88.3989 126.959 88.4755 126.909 88.5597 126.876C88.6439 126.842 88.7339 126.826 88.8245 126.828H160.465C160.555 126.826 160.645 126.842 160.73 126.876C160.814 126.909 160.891 126.959 160.955 127.022C161.02 127.086 161.071 127.162 161.106 127.245C161.141 127.329 161.16 127.419 161.159 127.509C161.159 127.694 161.086 127.871 160.956 128.001C160.826 128.132 160.649 128.205 160.465 128.205Z" fill="url(#paint7_linear_2_982)"/>
<path d="M78.9732 138.299H54.8757C54.6878 138.299 54.5075 138.224 54.3746 138.091C54.2417 137.958 54.167 137.777 54.167 137.589C54.167 137.401 54.2417 137.22 54.3746 137.087C54.5075 136.954 54.6878 136.879 54.8757 136.879H78.9732C79.1612 136.879 79.3415 136.954 79.4744 137.087C79.6073 137.22 79.682 137.401 79.682 137.589C79.682 137.777 79.6073 137.958 79.4744 138.091C79.3415 138.224 79.1612 138.299 78.9732 138.299Z" fill="white"/>
<path d="M122.746 138.299H83.8919C83.7039 138.299 83.5236 138.224 83.3907 138.091C83.2578 137.958 83.1831 137.777 83.1831 137.589C83.1831 137.401 83.2578 137.22 83.3907 137.087C83.5236 136.954 83.7039 136.879 83.8919 136.879H122.746C122.934 136.879 123.114 136.954 123.247 137.087C123.38 137.22 123.454 137.401 123.454 137.589C123.454 137.777 123.38 137.958 123.247 138.091C123.114 138.224 122.934 138.299 122.746 138.299Z" fill="url(#paint8_linear_2_982)"/>
<path d="M176.44 138.299H137.615C137.427 138.299 137.247 138.224 137.114 138.091C136.981 137.958 136.906 137.777 136.906 137.589C136.906 137.401 136.981 137.22 137.114 137.087C137.247 136.954 137.427 136.879 137.615 136.879H176.469C176.657 136.879 176.837 136.954 176.97 137.087C177.103 137.22 177.177 137.401 177.177 137.589C177.177 137.777 177.103 137.958 176.97 138.091C176.837 138.224 176.657 138.299 176.469 138.299H176.44Z" fill="url(#paint9_linear_2_982)"/>
<path d="M78.9732 148.393H54.8757C54.6878 148.393 54.5075 148.318 54.3746 148.185C54.2417 148.052 54.167 147.871 54.167 147.683C54.167 147.494 54.2417 147.314 54.3746 147.181C54.5075 147.048 54.6878 146.973 54.8757 146.973H78.9732C79.1612 146.973 79.3415 147.048 79.4744 147.181C79.6073 147.314 79.682 147.494 79.682 147.683C79.682 147.871 79.6073 148.052 79.4744 148.185C79.3415 148.318 79.1612 148.393 78.9732 148.393Z" fill="white"/>
<path d="M122.745 148.393H88.8245C88.6365 148.393 88.4562 148.318 88.3233 148.185C88.1904 148.052 88.1157 147.871 88.1157 147.683C88.1157 147.494 88.1904 147.314 88.3233 147.181C88.4562 147.048 88.6365 146.973 88.8245 146.973H122.745C122.933 146.973 123.113 147.048 123.246 147.181C123.379 147.314 123.454 147.494 123.454 147.683C123.454 147.871 123.379 148.052 123.246 148.185C123.113 148.318 122.933 148.393 122.745 148.393Z" fill="url(#paint10_linear_2_982)"/>
<path d="M142.335 148.393H128.472C128.284 148.393 128.104 148.318 127.971 148.185C127.838 148.052 127.763 147.871 127.763 147.683C127.763 147.494 127.838 147.314 127.971 147.181C128.104 147.048 128.284 146.973 128.472 146.973H142.335C142.523 146.973 142.703 147.048 142.836 147.181C142.969 147.314 143.044 147.494 143.044 147.683C143.044 147.871 142.969 148.052 142.836 148.185C142.703 148.318 142.523 148.393 142.335 148.393Z" fill="url(#paint11_linear_2_982)"/>
<path d="M78.9732 158.486H54.8757C54.7852 158.488 54.6952 158.472 54.611 158.439C54.5268 158.405 54.4501 158.355 54.3854 158.292C54.3207 158.228 54.2693 158.153 54.2343 158.069C54.1992 157.985 54.1811 157.896 54.1812 157.805C54.1812 157.621 54.2543 157.444 54.3846 157.313C54.5148 157.183 54.6915 157.109 54.8757 157.109H78.9732C79.0638 157.109 79.1534 157.127 79.2369 157.163C79.3204 157.198 79.3961 157.249 79.4594 157.314C79.5228 157.379 79.5726 157.456 79.606 157.54C79.6393 157.624 79.6555 157.714 79.6536 157.805C79.6556 157.895 79.6393 157.985 79.6058 158.068C79.5723 158.152 79.5222 158.228 79.4587 158.291C79.3951 158.355 79.3193 158.405 79.2359 158.439C79.1525 158.472 79.0631 158.488 78.9732 158.486Z" fill="white"/>
<path d="M134.922 158.486H85.3093C85.1288 158.486 84.9558 158.415 84.8282 158.287C84.7006 158.159 84.6289 157.986 84.6289 157.805C84.6289 157.623 84.7001 157.448 84.8273 157.318C84.9545 157.188 85.1276 157.113 85.3093 157.109H134.922C135.106 157.109 135.283 157.183 135.413 157.313C135.543 157.444 135.616 157.621 135.616 157.805C135.616 157.896 135.598 157.985 135.563 158.069C135.528 158.153 135.477 158.228 135.412 158.292C135.347 158.355 135.271 158.405 135.187 158.439C135.102 158.472 135.012 158.488 134.922 158.486Z" fill="url(#paint12_linear_2_982)"/>
<path d="M164.888 158.486H140.79C140.7 158.488 140.61 158.472 140.526 158.439C140.441 158.405 140.365 158.355 140.3 158.292C140.235 158.228 140.184 158.153 140.149 158.069C140.114 157.985 140.096 157.896 140.096 157.805C140.096 157.621 140.169 157.444 140.299 157.313C140.429 157.183 140.606 157.109 140.79 157.109H164.888C165.07 157.113 165.243 157.188 165.37 157.318C165.497 157.448 165.568 157.623 165.568 157.805C165.568 157.986 165.496 158.159 165.369 158.287C165.241 158.415 165.068 158.486 164.888 158.486Z" fill="url(#paint13_linear_2_982)"/>
<path d="M61.977 168.58H49.2195C49.0315 168.58 48.8512 168.506 48.7183 168.372C48.5854 168.239 48.5107 168.059 48.5107 167.87C48.5107 167.682 48.5854 167.502 48.7183 167.369C48.8512 167.235 49.0315 167.161 49.2195 167.161H61.977C62.165 167.161 62.3452 167.235 62.4782 167.369C62.6111 167.502 62.6857 167.682 62.6857 167.87C62.6857 168.059 62.6111 168.239 62.4782 168.372C62.3452 168.506 62.165 168.58 61.977 168.58Z" fill="white"/>
<path d="M128.472 168.58H72.5662C72.3782 168.58 72.1979 168.506 72.065 168.372C71.9321 168.239 71.8574 168.059 71.8574 167.87C71.8574 167.682 71.9321 167.502 72.065 167.369C72.1979 167.235 72.3782 167.161 72.5662 167.161H128.472C128.66 167.161 128.841 167.235 128.974 167.369C129.106 167.502 129.181 167.682 129.181 167.87C129.181 168.059 129.106 168.239 128.974 168.372C128.841 168.506 128.66 168.58 128.472 168.58Z" fill="url(#paint14_linear_2_982)"/>
<path d="M73.3028 178.688H49.2053C49.0174 178.688 48.8371 178.614 48.7042 178.48C48.5713 178.347 48.4966 178.167 48.4966 177.979C48.4966 177.79 48.5713 177.61 48.7042 177.477C48.8371 177.343 49.0174 177.269 49.2053 177.269H73.3028C73.4908 177.269 73.6711 177.343 73.804 177.477C73.9369 177.61 74.0116 177.79 74.0116 177.979C74.0116 178.167 73.9369 178.347 73.804 178.48C73.6711 178.614 73.4908 178.688 73.3028 178.688Z" fill="white"/>
<path d="M100.888 188.782H52.6928C52.6022 188.782 52.5125 188.764 52.4291 188.729C52.3456 188.694 52.2699 188.642 52.2066 188.578C52.1432 188.513 52.0934 188.436 52.06 188.352C52.0267 188.267 52.0105 188.177 52.0124 188.087C52.0104 187.997 52.0267 187.907 52.0602 187.824C52.0937 187.74 52.1438 187.664 52.2073 187.6C52.2709 187.537 52.3467 187.487 52.4301 187.453C52.5135 187.42 52.6029 187.403 52.6928 187.405H100.888C100.978 187.403 101.068 187.42 101.152 187.453C101.237 187.486 101.313 187.536 101.378 187.6C101.443 187.663 101.494 187.739 101.529 187.823C101.564 187.906 101.582 187.996 101.582 188.087C101.582 188.271 101.509 188.448 101.379 188.579C101.249 188.709 101.072 188.782 100.888 188.782Z" fill="white"/>
<path d="M142.335 188.782H108.868C108.778 188.782 108.688 188.764 108.604 188.729C108.521 188.694 108.445 188.642 108.382 188.578C108.318 188.513 108.269 188.436 108.235 188.352C108.202 188.267 108.186 188.177 108.188 188.087C108.186 187.997 108.202 187.907 108.236 187.824C108.269 187.74 108.319 187.664 108.383 187.6C108.446 187.537 108.522 187.487 108.605 187.453C108.689 187.42 108.778 187.403 108.868 187.405H142.335C142.426 187.403 142.516 187.42 142.6 187.453C142.684 187.486 142.761 187.536 142.826 187.6C142.89 187.663 142.942 187.739 142.977 187.823C143.012 187.906 143.03 187.996 143.03 188.087C143.03 188.271 142.957 188.448 142.826 188.579C142.696 188.709 142.519 188.782 142.335 188.782Z" fill="url(#paint15_linear_2_982)"/>
<path d="M188.56 188.782H147.126C147.036 188.782 146.946 188.764 146.863 188.729C146.779 188.694 146.704 188.642 146.64 188.578C146.577 188.513 146.527 188.436 146.494 188.352C146.46 188.267 146.444 188.177 146.446 188.087C146.444 187.997 146.46 187.907 146.494 187.824C146.527 187.74 146.577 187.664 146.641 187.6C146.705 187.537 146.78 187.487 146.864 187.453C146.947 187.42 147.036 187.403 147.126 187.405H188.56C188.74 187.405 188.913 187.477 189.041 187.605C189.169 187.733 189.24 187.906 189.24 188.087C189.24 188.269 189.169 188.444 189.042 188.574C188.915 188.704 188.742 188.779 188.56 188.782Z" fill="url(#paint16_linear_2_982)"/>
<path d="M125.013 198.876H54.8469C54.6627 198.876 54.486 198.803 54.3558 198.672C54.2255 198.542 54.1523 198.365 54.1523 198.181C54.1523 198.09 54.1704 198 54.2055 197.916C54.2405 197.833 54.2919 197.757 54.3566 197.694C54.4213 197.63 54.498 197.58 54.5822 197.547C54.6664 197.513 54.7564 197.497 54.8469 197.499H125.013C125.104 197.497 125.194 197.513 125.278 197.547C125.362 197.58 125.439 197.63 125.503 197.694C125.568 197.757 125.62 197.833 125.655 197.916C125.69 198 125.708 198.09 125.708 198.181C125.708 198.365 125.635 198.542 125.504 198.672C125.374 198.803 125.197 198.876 125.013 198.876Z" fill="white"/>
<path d="M161.372 198.876H129.804C129.62 198.876 129.444 198.803 129.313 198.672C129.183 198.542 129.11 198.365 129.11 198.181C129.11 198.09 129.128 198 129.163 197.916C129.198 197.833 129.249 197.757 129.314 197.694C129.379 197.63 129.456 197.58 129.54 197.547C129.624 197.513 129.714 197.497 129.804 197.499H161.372C161.462 197.497 161.551 197.513 161.635 197.547C161.718 197.581 161.794 197.631 161.858 197.694C161.921 197.758 161.971 197.834 162.005 197.917C162.038 198.001 162.055 198.09 162.053 198.181C162.054 198.271 162.038 198.361 162.005 198.446C161.972 198.53 161.922 198.607 161.858 198.672C161.795 198.736 161.719 198.788 161.636 198.823C161.552 198.858 161.463 198.876 161.372 198.876Z" fill="url(#paint17_linear_2_982)"/>
<path d="M260.583 198.876H166.717C166.535 198.872 166.362 198.797 166.235 198.667C166.107 198.537 166.036 198.363 166.036 198.181C166.036 198 166.108 197.826 166.235 197.699C166.363 197.571 166.536 197.499 166.717 197.499H260.583C260.674 197.497 260.764 197.513 260.848 197.547C260.932 197.58 261.009 197.63 261.074 197.694C261.138 197.757 261.19 197.833 261.225 197.916C261.26 198 261.278 198.09 261.278 198.181C261.278 198.365 261.205 198.542 261.075 198.672C260.944 198.803 260.768 198.876 260.583 198.876Z" fill="url(#paint18_linear_2_982)"/>
<path d="M87.7474 208.97H54.5637C54.3758 208.97 54.1955 208.895 54.0626 208.762C53.9297 208.629 53.855 208.448 53.855 208.26C53.855 208.072 53.9297 207.891 54.0626 207.758C54.1955 207.625 54.3758 207.55 54.5637 207.55H87.7474C87.9354 207.55 88.1156 207.625 88.2486 207.758C88.3815 207.891 88.4562 208.072 88.4562 208.26C88.4562 208.448 88.3815 208.629 88.2486 208.762C88.1156 208.895 87.9354 208.97 87.7474 208.97Z" fill="white"/>
<path d="M118.79 208.97H94.3528C94.1648 208.97 93.9845 208.895 93.8516 208.762C93.7187 208.629 93.644 208.448 93.644 208.26C93.644 208.072 93.7187 207.891 93.8516 207.758C93.9845 207.625 94.1648 207.55 94.3528 207.55H118.79C118.978 207.55 119.159 207.625 119.292 207.758C119.425 207.891 119.499 208.072 119.499 208.26C119.499 208.448 119.425 208.629 119.292 208.762C119.159 208.895 118.978 208.97 118.79 208.97Z" fill="url(#paint19_linear_2_982)"/>
<path d="M149.806 208.97H125.368C125.18 208.97 125 208.895 124.867 208.762C124.734 208.629 124.659 208.448 124.659 208.26C124.659 208.072 124.734 207.891 124.867 207.758C125 207.625 125.18 207.55 125.368 207.55H149.806C149.994 207.55 150.174 207.625 150.307 207.758C150.44 207.891 150.514 208.072 150.514 208.26C150.514 208.448 150.44 208.629 150.307 208.762C150.174 208.895 149.994 208.97 149.806 208.97Z" fill="url(#paint20_linear_2_982)"/>
<path d="M113.234 219.064H54.5637C54.4732 219.066 54.3832 219.05 54.299 219.016C54.2148 218.983 54.1381 218.933 54.0734 218.869C54.0087 218.806 53.9573 218.73 53.9223 218.647C53.8872 218.563 53.8691 218.473 53.8691 218.382C53.8691 218.198 53.9423 218.021 54.0726 217.891C54.2028 217.76 54.3795 217.687 54.5637 217.687H113.234C113.418 217.687 113.595 217.76 113.725 217.891C113.855 218.021 113.929 218.198 113.929 218.382C113.929 218.473 113.911 218.563 113.876 218.647C113.84 218.73 113.789 218.806 113.724 218.869C113.66 218.933 113.583 218.983 113.499 219.016C113.415 219.05 113.325 219.066 113.234 219.064Z" fill="white"/>
<path d="M149.806 219.064H120.463C120.373 219.066 120.284 219.049 120.201 219.016C120.117 218.982 120.041 218.932 119.978 218.869C119.914 218.805 119.864 218.729 119.831 218.645C119.797 218.562 119.781 218.472 119.783 218.382C119.781 218.292 119.797 218.202 119.831 218.117C119.864 218.033 119.914 217.956 119.977 217.891C120.04 217.827 120.116 217.775 120.2 217.74C120.283 217.705 120.373 217.687 120.463 217.687H149.806C149.896 217.687 149.986 217.705 150.069 217.74C150.153 217.775 150.228 217.827 150.292 217.891C150.355 217.956 150.405 218.033 150.438 218.117C150.472 218.202 150.488 218.292 150.486 218.382C150.488 218.472 150.472 218.562 150.438 218.645C150.405 218.729 150.355 218.805 150.291 218.869C150.227 218.932 150.152 218.982 150.068 219.016C149.985 219.049 149.895 219.066 149.806 219.064Z" fill="url(#paint21_linear_2_982)"/>
<path d="M201.686 219.064H157.006C156.916 219.066 156.827 219.049 156.744 219.016C156.66 218.982 156.584 218.932 156.521 218.869C156.457 218.805 156.407 218.729 156.374 218.645C156.34 218.562 156.324 218.472 156.326 218.382C156.324 218.292 156.34 218.202 156.374 218.117C156.407 218.033 156.457 217.956 156.52 217.891C156.583 217.827 156.659 217.775 156.743 217.74C156.826 217.705 156.916 217.687 157.006 217.687H201.686C201.777 217.687 201.867 217.705 201.952 217.74C202.036 217.775 202.112 217.826 202.177 217.891C202.241 217.955 202.293 218.032 202.328 218.116C202.362 218.201 202.38 218.291 202.38 218.382C202.38 218.473 202.362 218.563 202.327 218.647C202.292 218.73 202.241 218.806 202.176 218.869C202.111 218.933 202.035 218.983 201.951 219.016C201.866 219.05 201.776 219.066 201.686 219.064Z" fill="url(#paint22_linear_2_982)"/>
<path d="M251.015 219.064H206.392C206.301 219.066 206.211 219.05 206.127 219.016C206.043 218.983 205.966 218.933 205.902 218.869C205.837 218.806 205.785 218.73 205.75 218.647C205.715 218.563 205.697 218.473 205.697 218.382C205.697 218.198 205.77 218.021 205.901 217.891C206.031 217.76 206.208 217.687 206.392 217.687H251.015C251.199 217.687 251.376 217.76 251.506 217.891C251.636 218.021 251.709 218.198 251.709 218.382C251.709 218.473 251.691 218.563 251.656 218.647C251.621 218.73 251.57 218.806 251.505 218.869C251.44 218.933 251.364 218.983 251.279 219.016C251.195 219.05 251.105 219.066 251.015 219.064Z" fill="url(#paint23_linear_2_982)"/>
<path d="M104.403 229.158H69.405C69.3145 229.16 69.2245 229.144 69.1403 229.11C69.0561 229.077 68.9794 229.027 68.9147 228.963C68.85 228.9 68.7986 228.824 68.7636 228.74C68.7285 228.657 68.7104 228.567 68.7104 228.476C68.7104 228.385 68.7284 228.295 68.7633 228.21C68.7982 228.126 68.8494 228.049 68.9139 227.985C68.9784 227.92 69.0549 227.869 69.1392 227.834C69.2235 227.799 69.3138 227.781 69.405 227.781H104.403C104.494 227.781 104.583 227.799 104.667 227.834C104.75 227.869 104.826 227.921 104.889 227.985C104.953 228.05 105.002 228.127 105.036 228.211C105.069 228.296 105.085 228.386 105.084 228.476C105.085 228.566 105.069 228.656 105.036 228.739C105.002 228.823 104.952 228.899 104.889 228.963C104.825 229.026 104.749 229.076 104.666 229.11C104.582 229.143 104.493 229.16 104.403 229.158Z" fill="white"/>
<path d="M145.964 229.158H110.966C110.876 229.16 110.787 229.143 110.704 229.11C110.62 229.076 110.544 229.026 110.481 228.963C110.417 228.899 110.367 228.823 110.334 228.739C110.3 228.656 110.284 228.566 110.286 228.476C110.284 228.386 110.3 228.296 110.333 228.211C110.367 228.127 110.417 228.05 110.48 227.985C110.543 227.921 110.619 227.869 110.702 227.834C110.786 227.799 110.876 227.781 110.966 227.781H145.964C146.055 227.781 146.146 227.799 146.23 227.834C146.314 227.869 146.391 227.92 146.455 227.985C146.52 228.049 146.571 228.126 146.606 228.21C146.641 228.295 146.659 228.385 146.659 228.476C146.659 228.567 146.641 228.657 146.606 228.74C146.571 228.824 146.519 228.9 146.455 228.963C146.39 229.027 146.313 229.077 146.229 229.11C146.145 229.144 146.055 229.16 145.964 229.158Z" fill="url(#paint24_linear_2_982)"/>
<path d="M187.823 229.158H152.825C152.734 229.16 152.644 229.144 152.56 229.11C152.476 229.077 152.399 229.027 152.335 228.963C152.27 228.9 152.219 228.824 152.183 228.74C152.148 228.657 152.13 228.567 152.13 228.476C152.13 228.385 152.148 228.295 152.183 228.21C152.218 228.126 152.269 228.049 152.334 227.985C152.398 227.92 152.475 227.869 152.559 227.834C152.643 227.799 152.734 227.781 152.825 227.781H187.823C187.914 227.781 188.003 227.799 188.087 227.834C188.17 227.869 188.246 227.921 188.309 227.985C188.373 228.05 188.422 228.127 188.456 228.211C188.489 228.296 188.505 228.386 188.503 228.476C188.505 228.566 188.489 228.656 188.456 228.739C188.422 228.823 188.372 228.899 188.308 228.963C188.245 229.026 188.169 229.076 188.086 229.11C188.002 229.143 187.913 229.16 187.823 229.158Z" fill="url(#paint25_linear_2_982)"/>
<path d="M231.17 230.294H196.158C195.97 230.294 195.79 230.219 195.657 230.086C195.524 229.953 195.449 229.772 195.449 229.584C195.449 229.395 195.524 229.215 195.657 229.082C195.79 228.949 195.97 228.874 196.158 228.874H231.17C231.358 228.874 231.538 228.949 231.671 229.082C231.804 229.215 231.879 229.395 231.879 229.584C231.879 229.772 231.804 229.953 231.671 230.086C231.538 230.219 231.358 230.294 231.17 230.294Z" fill="url(#paint26_linear_2_982)"/>
<path d="M98.7331 239.252H74.6356C74.5458 239.254 74.4564 239.237 74.373 239.204C74.2896 239.17 74.2138 239.12 74.1502 239.056C74.0867 238.993 74.0366 238.917 74.0031 238.833C73.9696 238.75 73.9533 238.66 73.9552 238.57C73.9533 238.479 73.9696 238.389 74.0029 238.305C74.0363 238.221 74.0861 238.144 74.1494 238.079C74.2128 238.014 74.2885 237.963 74.3719 237.928C74.4554 237.893 74.5451 237.874 74.6356 237.875H98.7331C98.9174 237.875 99.094 237.948 99.2243 238.078C99.3545 238.209 99.4277 238.386 99.4277 238.57C99.4277 238.661 99.4097 238.751 99.3746 238.834C99.3395 238.918 99.2881 238.994 99.2234 239.057C99.1588 239.121 99.0821 239.17 98.9979 239.204C98.9137 239.237 98.8237 239.253 98.7331 239.252Z" fill="white"/>
<path d="M128.529 239.252H104.431C104.341 239.253 104.251 239.237 104.167 239.204C104.082 239.17 104.006 239.121 103.941 239.057C103.876 238.994 103.825 238.918 103.79 238.834C103.755 238.751 103.737 238.661 103.737 238.57C103.737 238.386 103.81 238.209 103.94 238.078C104.071 237.948 104.247 237.875 104.431 237.875H128.529C128.619 237.874 128.709 237.893 128.793 237.928C128.876 237.963 128.952 238.014 129.015 238.079C129.078 238.144 129.128 238.221 129.162 238.305C129.195 238.389 129.211 238.479 129.209 238.57C129.211 238.66 129.195 238.75 129.161 238.833C129.128 238.917 129.078 238.993 129.014 239.056C128.951 239.12 128.875 239.17 128.792 239.204C128.708 239.237 128.619 239.254 128.529 239.252Z" fill="url(#paint27_linear_2_982)"/>
<path d="M184.237 240.274L134.426 239.252C134.335 239.252 134.245 239.234 134.162 239.198C134.079 239.163 134.003 239.112 133.939 239.047C133.876 238.982 133.826 238.905 133.793 238.821C133.76 238.737 133.743 238.647 133.745 238.556C133.743 238.463 133.76 238.372 133.795 238.286C133.831 238.2 133.883 238.123 133.95 238.059C134.017 237.995 134.096 237.945 134.183 237.914C134.269 237.882 134.362 237.869 134.454 237.875L184.265 238.897C184.453 238.897 184.633 238.972 184.766 239.105C184.899 239.238 184.974 239.418 184.974 239.607C184.974 239.795 184.899 239.975 184.766 240.108C184.633 240.242 184.453 240.316 184.265 240.316L184.237 240.274Z" fill="url(#paint28_linear_2_982)"/>
<path d="M202.82 128.205H170.218C170.127 128.205 170.037 128.187 169.954 128.152C169.87 128.117 169.795 128.065 169.731 128C169.668 127.936 169.618 127.859 169.585 127.774C169.552 127.69 169.535 127.6 169.537 127.509C169.535 127.419 169.552 127.33 169.585 127.246C169.619 127.163 169.669 127.087 169.732 127.023C169.796 126.959 169.872 126.909 169.955 126.876C170.038 126.842 170.128 126.826 170.218 126.828H202.82C202.911 126.826 203.001 126.842 203.085 126.876C203.169 126.909 203.246 126.959 203.31 127.022C203.375 127.086 203.427 127.162 203.462 127.245C203.497 127.329 203.515 127.419 203.515 127.509C203.515 127.694 203.442 127.871 203.311 128.001C203.181 128.132 203.004 128.205 202.82 128.205Z" fill="url(#paint29_linear_2_982)"/>
<path d="M226.917 128.304C220.539 128.304 215.804 128.304 215.577 128.162C215.491 128.138 215.41 128.097 215.339 128.041C215.268 127.986 215.209 127.917 215.165 127.838C215.076 127.68 215.054 127.493 215.102 127.318C215.151 127.142 215.268 126.994 215.426 126.905C215.584 126.816 215.771 126.793 215.946 126.842C217.193 126.998 238.711 126.913 252.943 126.842C253.033 126.84 253.123 126.856 253.207 126.89C253.292 126.923 253.368 126.973 253.433 127.036C253.498 127.1 253.549 127.176 253.584 127.259C253.619 127.343 253.637 127.433 253.637 127.523C253.637 127.708 253.564 127.885 253.434 128.015C253.303 128.146 253.127 128.219 252.943 128.219C245.345 128.247 234.855 128.304 226.917 128.304Z" fill="url(#paint30_linear_2_982)"/>
<path d="M197.618 108.017H150.273C150.085 108.017 149.905 107.942 149.772 107.809C149.639 107.676 149.564 107.496 149.564 107.307C149.564 107.119 149.639 106.938 149.772 106.805C149.905 106.672 150.085 106.597 150.273 106.597H197.618C197.806 106.597 197.986 106.672 198.119 106.805C198.252 106.938 198.326 107.119 198.326 107.307C198.326 107.496 198.252 107.676 198.119 107.809C197.986 107.942 197.806 108.017 197.618 108.017Z" fill="url(#paint31_linear_2_982)"/>
<path d="M254.247 108.017H207.073C206.885 108.017 206.704 107.942 206.571 107.809C206.438 107.676 206.364 107.496 206.364 107.307C206.364 107.119 206.438 106.938 206.571 106.805C206.704 106.672 206.885 106.597 207.073 106.597H254.19C254.378 106.597 254.558 106.672 254.691 106.805C254.824 106.938 254.899 107.119 254.899 107.307C254.899 107.496 254.824 107.676 254.691 107.809C254.558 107.942 254.378 108.017 254.19 108.017H254.247Z" fill="url(#paint32_linear_2_982)"/>
<path d="M153.207 97.9658C144.461 97.9658 137.799 97.9658 137.53 97.9658C137.35 97.9345 137.19 97.8335 137.083 97.6848C136.977 97.536 136.934 97.3513 136.963 97.1708C136.991 96.9946 137.087 96.8365 137.23 96.7303C137.373 96.6241 137.552 96.5784 137.728 96.6029C138.933 96.6881 173.889 96.6029 192.231 96.6029C192.415 96.6029 192.592 96.6762 192.722 96.8067C192.853 96.9371 192.926 97.114 192.926 97.2985C192.926 97.3892 192.908 97.479 192.873 97.5626C192.838 97.6463 192.786 97.722 192.721 97.7855C192.657 97.8489 192.58 97.8988 192.496 97.9322C192.412 97.9656 192.322 97.9819 192.231 97.98C184.534 97.9374 166.447 97.9658 153.207 97.9658Z" fill="url(#paint33_linear_2_982)"/>
<path d="M205.003 97.9515C204.876 97.9489 204.753 97.91 204.648 97.8396C204.542 97.7692 204.459 97.6701 204.408 97.554C204.339 97.3781 204.338 97.1826 204.406 97.0063C204.475 96.8301 204.607 96.686 204.776 96.6029C205.329 96.3331 216.343 96.3047 237.492 96.6029C237.673 96.6101 237.844 96.6861 237.97 96.8154C238.097 96.9447 238.169 97.1175 238.172 97.2985C238.173 97.3892 238.154 97.479 238.119 97.5626C238.084 97.6462 238.033 97.722 237.968 97.7854C237.904 97.8489 237.827 97.8988 237.743 97.9322C237.658 97.9656 237.568 97.9818 237.478 97.9799C225.16 97.8522 206.435 97.7386 205.272 97.9799C205.182 97.9964 205.088 97.9866 205.003 97.9515Z" fill="white"/>
<path d="M159.331 168.58H134.922C134.734 168.58 134.553 168.506 134.42 168.372C134.288 168.239 134.213 168.059 134.213 167.87C134.213 167.682 134.288 167.502 134.42 167.369C134.553 167.235 134.734 167.161 134.922 167.161H159.331C159.519 167.161 159.699 167.235 159.832 167.369C159.965 167.502 160.04 167.682 160.04 167.87C160.04 168.059 159.965 168.239 159.832 168.372C159.699 168.506 159.519 168.58 159.331 168.58Z" fill="url(#paint34_linear_2_982)"/>
<path d="M103.326 178.688H85.366C85.178 178.688 84.9977 178.614 84.8648 178.48C84.7319 178.347 84.6572 178.167 84.6572 177.979C84.6572 177.79 84.7319 177.61 84.8648 177.477C84.9977 177.343 85.178 177.269 85.366 177.269H103.326C103.514 177.269 103.694 177.343 103.827 177.477C103.96 177.61 104.034 177.79 104.034 177.979C104.034 178.167 103.96 178.347 103.827 178.48C103.694 178.614 103.514 178.688 103.326 178.688Z" fill="url(#paint35_linear_2_982)"/>
<path d="M152.825 178.688H110.144C109.956 178.688 109.776 178.614 109.643 178.48C109.51 178.347 109.435 178.167 109.435 177.979C109.435 177.79 109.51 177.61 109.643 177.477C109.776 177.343 109.956 177.269 110.144 177.269H152.825C153.013 177.269 153.193 177.343 153.326 177.477C153.459 177.61 153.533 177.79 153.533 177.979C153.533 178.167 153.459 178.347 153.326 178.48C153.193 178.614 153.013 178.688 152.825 178.688Z" fill="white"/>
<path d="M244.055 178.688H161.372C161.184 178.688 161.004 178.614 160.871 178.48C160.738 178.347 160.664 178.167 160.664 177.979C160.664 177.79 160.738 177.61 160.871 177.477C161.004 177.343 161.184 177.269 161.372 177.269H244.055C244.243 177.269 244.423 177.343 244.556 177.477C244.689 177.61 244.764 177.79 244.764 177.979C244.764 178.167 244.689 178.347 244.556 178.48C244.423 178.614 244.243 178.688 244.055 178.688Z" fill="url(#paint36_linear_2_982)"/>
<path d="M22.7974 74.5696C24.1283 74.5696 25.2072 73.489 25.2072 72.1561C25.2072 70.8232 24.1283 69.7427 22.7974 69.7427C21.4666 69.7427 20.3877 70.8232 20.3877 72.1561C20.3877 73.489 21.4666 74.5696 22.7974 74.5696Z" fill="#231F20"/>
<path d="M31.2457 74.5696C32.5766 74.5696 33.6554 73.489 33.6554 72.1561C33.6554 70.8232 32.5766 69.7427 31.2457 69.7427C29.9148 69.7427 28.8359 70.8232 28.8359 72.1561C28.8359 73.489 29.9148 74.5696 31.2457 74.5696Z" fill="white"/>
<path d="M39.6939 74.5696C41.0248 74.5696 42.1037 73.489 42.1037 72.1561C42.1037 70.8232 41.0248 69.7427 39.6939 69.7427C38.3631 69.7427 37.2842 70.8232 37.2842 72.1561C37.2842 73.489 38.3631 74.5696 39.6939 74.5696Z" fill="white"/>
<path d="M197.505 298.679H107.337L117.529 267.56H187.313L197.505 298.679Z" fill="white"/>
<path d="M197.504 299.389H107.337C107.225 299.393 107.113 299.369 107.011 299.32C106.91 299.271 106.821 299.198 106.754 299.107C106.687 299.016 106.644 298.91 106.627 298.799C106.61 298.687 106.62 298.573 106.657 298.466L116.849 267.347C116.894 267.202 116.985 267.076 117.107 266.986C117.23 266.897 117.378 266.849 117.529 266.85H187.313C187.464 266.849 187.612 266.897 187.734 266.986C187.857 267.076 187.948 267.202 187.993 267.347L198.185 298.466C198.222 298.573 198.232 298.687 198.215 298.799C198.198 298.91 198.154 299.016 198.087 299.107C198.02 299.198 197.932 299.271 197.831 299.32C197.729 299.369 197.617 299.393 197.504 299.389ZM108.315 297.969H196.526L186.802 268.27H118.039L108.315 297.969Z" fill="#231F20"/>
<path d="M204.946 298.679H99.8952C97.4762 298.679 95.5151 300.64 95.5151 303.059C95.5151 305.478 97.4762 307.439 99.8952 307.439H204.946C207.365 307.439 209.326 305.478 209.326 303.059C209.326 300.64 207.365 298.679 204.946 298.679Z" fill="white"/>
<path d="M204.961 308.163H99.8955C98.5458 308.163 97.2515 307.626 96.2971 306.67C95.3428 305.714 94.8066 304.418 94.8066 303.066C94.8066 301.714 95.3428 300.418 96.2971 299.462C97.2515 298.506 98.5458 297.969 99.8955 297.969H204.961C206.31 297.969 207.605 298.506 208.559 299.462C209.513 300.418 210.049 301.714 210.049 303.066C210.049 304.418 209.513 305.714 208.559 306.67C207.605 307.626 206.31 308.163 204.961 308.163ZM99.8955 299.389C98.9218 299.389 97.988 299.776 97.2994 300.466C96.6109 301.156 96.2241 302.091 96.2241 303.066C96.2241 304.041 96.6109 304.976 97.2994 305.666C97.988 306.356 98.9218 306.743 99.8955 306.743H204.961C205.934 306.743 206.868 306.356 207.557 305.666C208.245 304.976 208.632 304.041 208.632 303.066C208.632 302.091 208.245 301.156 207.557 300.466C206.868 299.776 205.934 299.389 204.961 299.389H99.8955Z" fill="#231F20"/>
<path d="M110.044 290.431C111.462 289.664 189.566 275.382 189.566 275.382L187.001 267.56H117.217L110.044 290.431Z" fill="#231F20"/>
<path d="M110.031 291.141C109.868 291.139 109.712 291.079 109.591 290.97C109.488 290.881 109.414 290.763 109.379 290.632C109.343 290.5 109.348 290.361 109.393 290.232L116.565 267.361C116.606 267.22 116.692 267.096 116.81 267.009C116.927 266.922 117.071 266.876 117.217 266.878H187.001C187.146 266.875 187.288 266.919 187.405 267.003C187.523 267.088 187.61 267.209 187.653 267.347L190.219 275.155C190.246 275.249 190.254 275.348 190.241 275.446C190.228 275.543 190.196 275.637 190.145 275.721C190.095 275.805 190.027 275.877 189.947 275.934C189.867 275.991 189.776 276.03 189.68 276.05C168.276 279.968 112.27 290.317 110.3 291.07C110.215 291.11 110.124 291.134 110.031 291.141ZM117.77 268.256L111.108 289.48C120.492 287.35 175.151 277.327 188.702 274.843L186.547 268.256H117.77Z" fill="#231F20"/>
<circle cx="386" cy="293" r="8.5" stroke="#E6E7E8"/>
</g>
<defs>
<linearGradient id="paint0_linear_2_982" x1="338.276" y1="131.037" x2="438.996" y2="134.335" gradientUnits="userSpaceOnUse">
<stop stop-color="#C61E36"/>
<stop offset="1" stop-color="#4665D3"/>
</linearGradient>
<linearGradient id="paint1_linear_2_982" x1="382.321" y1="36.1372" x2="431.946" y2="38.5774" gradientUnits="userSpaceOnUse">
<stop stop-color="#C61E36"/>
<stop offset="1" stop-color="#4665D3"/>
</linearGradient>
<linearGradient id="paint2_linear_2_982" x1="12.1235" y1="65.494" x2="168.257" y2="214.805" gradientUnits="userSpaceOnUse">
<stop stop-color="#C61E36"/>
<stop offset="1" stop-color="#4665D3"/>
</linearGradient>
<linearGradient id="paint3_linear_2_982" x1="11.415" y1="64.9211" x2="179.929" y2="214.06" gradientUnits="userSpaceOnUse">
<stop stop-color="#C61E36"/>
<stop offset="1" stop-color="#4665D3"/>
</linearGradient>
<linearGradient id="paint4_linear_2_982" x1="73.8701" y1="96.6643" x2="84.2349" y2="117.638" gradientUnits="userSpaceOnUse">
<stop stop-color="#C61E36"/>
<stop offset="1" stop-color="#4665D3"/>
</linearGradient>
<linearGradient id="paint5_linear_2_982" x1="90.4971" y1="106.734" x2="101.371" y2="128.099" gradientUnits="userSpaceOnUse">
<stop stop-color="#C61E36"/>
<stop offset="1" stop-color="#4665D3"/>
</linearGradient>
<linearGradient id="paint6_linear_2_982" x1="87.0669" y1="116.866" x2="96.0237" y2="139.402" gradientUnits="userSpaceOnUse">
<stop stop-color="#C61E36"/>
<stop offset="1" stop-color="#4665D3"/>
</linearGradient>
<linearGradient id="paint7_linear_2_982" x1="88.1299" y1="126.96" x2="95.9979" y2="150.417" gradientUnits="userSpaceOnUse">
<stop stop-color="#C61E36"/>
<stop offset="1" stop-color="#4665D3"/>
</linearGradient>
<linearGradient id="paint8_linear_2_982" x1="83.1831" y1="137.016" x2="95.2901" y2="156.324" gradientUnits="userSpaceOnUse">
<stop stop-color="#C61E36"/>
<stop offset="1" stop-color="#4665D3"/>
</linearGradient>
<linearGradient id="paint9_linear_2_982" x1="136.906" y1="137.016" x2="149.013" y2="156.324" gradientUnits="userSpaceOnUse">
<stop stop-color="#C61E36"/>
<stop offset="1" stop-color="#4665D3"/>
</linearGradient>
<linearGradient id="paint10_linear_2_982" x1="88.1157" y1="147.109" x2="100.84" y2="164.917" gradientUnits="userSpaceOnUse">
<stop stop-color="#C61E36"/>
<stop offset="1" stop-color="#4665D3"/>
</linearGradient>
<linearGradient id="paint11_linear_2_982" x1="127.763" y1="147.109" x2="139.678" y2="154.32" gradientUnits="userSpaceOnUse">
<stop stop-color="#C61E36"/>
<stop offset="1" stop-color="#4665D3"/>
</linearGradient>
<linearGradient id="paint12_linear_2_982" x1="84.6289" y1="157.242" x2="94.8151" y2="178.444" gradientUnits="userSpaceOnUse">
<stop stop-color="#C61E36"/>
<stop offset="1" stop-color="#4665D3"/>
</linearGradient>
<linearGradient id="paint13_linear_2_982" x1="140.096" y1="157.242" x2="153.134" y2="170.799" gradientUnits="userSpaceOnUse">
<stop stop-color="#C61E36"/>
<stop offset="1" stop-color="#4665D3"/>
</linearGradient>
<linearGradient id="paint14_linear_2_982" x1="71.8574" y1="167.297" x2="81.7812" y2="189.826" gradientUnits="userSpaceOnUse">
<stop stop-color="#C61E36"/>
<stop offset="1" stop-color="#4665D3"/>
</linearGradient>
<linearGradient id="paint15_linear_2_982" x1="108.188" y1="187.537" x2="120.466" y2="205.001" gradientUnits="userSpaceOnUse">
<stop stop-color="#C61E36"/>
<stop offset="1" stop-color="#4665D3"/>
</linearGradient>
<linearGradient id="paint16_linear_2_982" x1="146.446" y1="187.537" x2="157.697" y2="207.193" gradientUnits="userSpaceOnUse">
<stop stop-color="#C61E36"/>
<stop offset="1" stop-color="#4665D3"/>
</linearGradient>
<linearGradient id="paint17_linear_2_982" x1="129.11" y1="197.631" x2="141.605" y2="214.436" gradientUnits="userSpaceOnUse">
<stop stop-color="#C61E36"/>
<stop offset="1" stop-color="#4665D3"/>
</linearGradient>
<linearGradient id="paint18_linear_2_982" x1="166.036" y1="197.631" x2="172.331" y2="222.108" gradientUnits="userSpaceOnUse">
<stop stop-color="#C61E36"/>
<stop offset="1" stop-color="#4665D3"/>
</linearGradient>
<linearGradient id="paint19_linear_2_982" x1="93.644" y1="207.687" x2="107.09" y2="221.455" gradientUnits="userSpaceOnUse">
<stop stop-color="#C61E36"/>
<stop offset="1" stop-color="#4665D3"/>
</linearGradient>
<linearGradient id="paint20_linear_2_982" x1="124.659" y1="207.687" x2="138.105" y2="221.455" gradientUnits="userSpaceOnUse">
<stop stop-color="#C61E36"/>
<stop offset="1" stop-color="#4665D3"/>
</linearGradient>
<linearGradient id="paint21_linear_2_982" x1="119.783" y1="217.819" x2="132.505" y2="233.765" gradientUnits="userSpaceOnUse">
<stop stop-color="#C61E36"/>
<stop offset="1" stop-color="#4665D3"/>
</linearGradient>
<linearGradient id="paint22_linear_2_982" x1="156.326" y1="217.819" x2="167.145" y2="238.16" gradientUnits="userSpaceOnUse">
<stop stop-color="#C61E36"/>
<stop offset="1" stop-color="#4665D3"/>
</linearGradient>
<linearGradient id="paint23_linear_2_982" x1="205.697" y1="217.819" x2="216.522" y2="238.152" gradientUnits="userSpaceOnUse">
<stop stop-color="#C61E36"/>
<stop offset="1" stop-color="#4665D3"/>
</linearGradient>
<linearGradient id="paint24_linear_2_982" x1="110.286" y1="227.913" x2="122.377" y2="245.866" gradientUnits="userSpaceOnUse">
<stop stop-color="#C61E36"/>
<stop offset="1" stop-color="#4665D3"/>
</linearGradient>
<linearGradient id="paint25_linear_2_982" x1="152.13" y1="227.913" x2="164.221" y2="245.866" gradientUnits="userSpaceOnUse">
<stop stop-color="#C61E36"/>
<stop offset="1" stop-color="#4665D3"/>
</linearGradient>
<linearGradient id="paint26_linear_2_982" x1="195.449" y1="229.01" x2="208.044" y2="247.181" gradientUnits="userSpaceOnUse">
<stop stop-color="#C61E36"/>
<stop offset="1" stop-color="#4665D3"/>
</linearGradient>
<linearGradient id="paint27_linear_2_982" x1="103.737" y1="238.007" x2="116.775" y2="251.565" gradientUnits="userSpaceOnUse">
<stop stop-color="#C61E36"/>
<stop offset="1" stop-color="#4665D3"/>
</linearGradient>
<linearGradient id="paint28_linear_2_982" x1="133.745" y1="238.108" x2="156.582" y2="265.03" gradientUnits="userSpaceOnUse">
<stop stop-color="#C61E36"/>
<stop offset="1" stop-color="#4665D3"/>
</linearGradient>
<linearGradient id="paint29_linear_2_982" x1="169.537" y1="126.96" x2="181.917" y2="144.131" gradientUnits="userSpaceOnUse">
<stop stop-color="#C61E36"/>
<stop offset="1" stop-color="#4665D3"/>
</linearGradient>
<linearGradient id="paint30_linear_2_982" x1="215.077" y1="126.96" x2="228.227" y2="146.123" gradientUnits="userSpaceOnUse">
<stop stop-color="#C61E36"/>
<stop offset="1" stop-color="#4665D3"/>
</linearGradient>
<linearGradient id="paint31_linear_2_982" x1="149.564" y1="106.734" x2="160.549" y2="127.946" gradientUnits="userSpaceOnUse">
<stop stop-color="#C61E36"/>
<stop offset="1" stop-color="#4665D3"/>
</linearGradient>
<linearGradient id="paint32_linear_2_982" x1="206.364" y1="106.734" x2="217.378" y2="127.904" gradientUnits="userSpaceOnUse">
<stop stop-color="#C61E36"/>
<stop offset="1" stop-color="#4665D3"/>
</linearGradient>
<linearGradient id="paint33_linear_2_982" x1="136.954" y1="96.7295" x2="146.615" y2="118.7" gradientUnits="userSpaceOnUse">
<stop stop-color="#C61E36"/>
<stop offset="1" stop-color="#4665D3"/>
</linearGradient>
<linearGradient id="paint34_linear_2_982" x1="134.213" y1="167.297" x2="147.659" y2="181.05" gradientUnits="userSpaceOnUse">
<stop stop-color="#C61E36"/>
<stop offset="1" stop-color="#4665D3"/>
</linearGradient>
<linearGradient id="paint35_linear_2_982" x1="84.6572" y1="177.405" x2="97.6492" y2="187.375" gradientUnits="userSpaceOnUse">
<stop stop-color="#C61E36"/>
<stop offset="1" stop-color="#4665D3"/>
</linearGradient>
<linearGradient id="paint36_linear_2_982" x1="160.664" y1="177.405" x2="168.072" y2="202.081" gradientUnits="userSpaceOnUse">
<stop stop-color="#C61E36"/>
<stop offset="1" stop-color="#4665D3"/>
</linearGradient>
<clipPath id="clip0_2_982">
<rect width="440" height="314" fill="white"/>
</clipPath>
</defs>
</svg>
