<svg width="257" height="383" viewBox="0 0 257 383" fill="none" xmlns="http://www.w3.org/2000/svg">
<g clip-path="url(#clip0_2_874)">
<path d="M128.614 382.879C199.464 382.879 256.899 372.818 256.899 360.407C256.899 347.996 199.464 337.934 128.614 337.934C57.7638 337.934 0.328613 347.996 0.328613 360.407C0.328613 372.818 57.7638 382.879 128.614 382.879Z" fill="#D1D3D4"/>
<path d="M220.366 159.164C209.256 149.243 213.134 116.336 213.134 116.336H91.8504C91.8504 116.336 95.7288 149.226 84.6193 159.164C73.5098 169.102 51.751 174.047 51.751 203.233V356.041H253.398V203.233C253.316 174.063 231.459 169.102 220.366 159.164Z" fill="white"/>
<path d="M253.316 356.868H51.6689C51.4509 356.868 51.242 356.781 51.0879 356.626C50.9338 356.471 50.8472 356.26 50.8472 356.041V203.233C50.8472 180.512 64.1917 171.947 74.9232 165.068C78.1355 163.134 81.1958 160.956 84.077 158.552C94.7428 149.011 91.078 116.75 91.0451 116.419C91.0277 116.303 91.0364 116.185 91.0706 116.074C91.1047 115.962 91.1634 115.86 91.2423 115.774C91.3205 115.691 91.4147 115.624 91.5193 115.579C91.6238 115.533 91.7365 115.51 91.8504 115.509H213.135C213.248 115.51 213.361 115.533 213.466 115.579C213.57 115.624 213.664 115.691 213.743 115.774C213.822 115.86 213.88 115.962 213.914 116.074C213.949 116.185 213.957 116.303 213.94 116.419C213.94 116.75 210.242 149.011 220.908 158.552C223.789 160.956 226.849 163.134 230.062 165.068C240.793 171.947 254.138 180.512 254.138 203.233V356.041C254.138 356.15 254.117 356.257 254.075 356.358C254.034 356.458 253.973 356.549 253.897 356.626C253.821 356.703 253.73 356.763 253.631 356.805C253.531 356.847 253.424 356.868 253.316 356.868ZM52.4906 355.214H252.494V203.233C252.494 181.422 240.119 173.468 229.191 166.473C225.895 164.488 222.758 162.249 219.807 159.776C209.437 150.499 211.59 122.702 212.214 117.163H92.7707C93.3295 122.702 95.5481 150.499 85.1781 159.776C82.227 162.249 79.0896 164.488 75.7942 166.473C64.8655 173.484 52.4906 181.355 52.4906 203.233V355.214Z" fill="#231F20"/>
<path d="M131.128 297.388C125.278 307.177 131.835 328.922 131.835 328.922L140.512 335.255C146.747 339.027 154.216 340.152 161.275 338.383C168.334 336.614 174.406 332.095 178.154 325.822C181.903 319.548 183.021 312.033 181.263 304.93C179.504 297.827 175.014 291.718 168.779 287.946L159.066 283.217C159.066 283.217 136.897 287.582 131.128 297.388Z" fill="url(#paint0_linear_2_874)"/>
<path d="M154.514 340.034C149.398 340.041 144.378 338.634 140.003 335.967L131.26 329.584C131.112 329.482 131.006 329.329 130.964 329.154C130.684 328.261 124.39 306.962 130.339 296.958C136.321 287.037 157.982 282.589 158.902 282.407C159.067 282.35 159.246 282.35 159.411 282.407L169.058 287.136C174.413 290.31 178.578 295.173 180.908 300.97C183.237 306.768 183.602 313.176 181.946 319.203C180.289 325.23 176.703 330.54 171.744 334.309C166.785 338.078 160.729 340.096 154.514 340.051V340.034ZM132.459 328.459L140.907 334.627C143.904 336.435 147.226 337.631 150.683 338.147C154.141 338.663 157.665 338.488 161.055 337.634C164.445 336.779 167.635 335.261 170.442 333.167C173.249 331.072 175.618 328.441 177.415 325.425C179.212 322.409 180.4 319.066 180.913 315.587C181.426 312.109 181.253 308.563 180.403 305.152C179.554 301.741 178.045 298.531 175.963 295.707C173.882 292.882 171.267 290.498 168.269 288.69L158.951 284.11C156.437 284.655 137.012 289.071 131.753 297.851C126.494 306.632 131.753 325.929 132.459 328.426V328.459Z" fill="#231F20"/>
<path d="M148.581 335.603C163.729 335.603 176.01 323.246 176.01 308.004C176.01 292.762 163.729 280.406 148.581 280.406C133.433 280.406 121.152 292.762 121.152 308.004C121.152 323.246 133.433 335.603 148.581 335.603Z" fill="url(#paint1_linear_2_874)"/>
<path d="M148.532 336.413C142.299 336.397 136.246 334.305 131.318 330.465C126.389 326.625 122.863 321.251 121.288 315.183C119.713 309.114 120.178 302.692 122.61 296.918C125.043 291.143 129.306 286.341 134.736 283.26C140.165 280.179 146.455 278.992 152.625 279.885C158.795 280.778 164.498 283.7 168.844 288.196C173.19 292.692 175.936 298.508 176.652 304.739C177.369 310.969 176.016 317.263 172.805 322.639C170.295 326.857 166.737 330.345 162.481 332.76C158.225 335.175 153.418 336.434 148.532 336.413ZM148.63 281.216C146.448 281.219 144.274 281.485 142.155 282.01C135.6 283.655 129.915 287.754 126.259 293.471C122.603 299.187 121.251 306.092 122.479 312.777C123.708 319.462 127.424 325.424 132.87 329.447C138.315 333.471 145.081 335.253 151.788 334.431C158.495 333.609 164.637 330.244 168.964 325.023C173.29 319.801 175.475 313.116 175.072 306.33C174.67 299.544 171.71 293.168 166.797 288.501C161.884 283.835 155.387 281.229 148.63 281.216Z" fill="#231F20"/>
<path d="M133.199 295.354C134.349 296.049 135.483 296.727 136.617 297.438C136.847 297.57 136.962 297.554 137.127 297.438C138.464 295.931 140.161 294.793 142.057 294.131C144.031 293.421 146.196 293.468 148.138 294.263C148.663 294.461 149.189 294.726 149.781 294.974L146.593 300.298C145.79 299.824 144.852 299.637 143.93 299.769C143.223 299.958 142.526 300.184 141.843 300.447V300.513L148.417 304.499L148.893 304.019C150.035 302.743 151.32 301.606 152.723 300.629C153.756 299.889 154.969 299.444 156.234 299.342C157.499 299.24 158.767 299.485 159.904 300.05C161.902 300.887 163.545 302.404 164.545 304.335C165.545 306.266 165.84 308.49 165.377 310.617C165.13 311.808 164.736 312.965 164.391 314.205L166.955 315.743L164.029 320.704L161.4 319.05C160.545 319.877 159.756 320.704 158.918 321.431C157.286 322.871 155.219 323.716 153.051 323.829C151.188 323.867 149.354 323.356 147.776 322.357L150.849 317.049C151.78 317.544 152.844 317.725 153.885 317.568C154.926 317.41 155.889 316.921 156.634 316.173L149.551 311.89C148.68 312.717 147.809 313.544 146.921 314.354C145.877 315.354 144.609 316.085 143.224 316.487C141.799 316.845 140.297 316.741 138.934 316.19C137.234 315.587 135.732 314.523 134.596 313.114C133.78 312.098 133.196 310.913 132.886 309.644C132.577 308.375 132.549 307.053 132.804 305.772C133.002 304.73 133.413 303.738 133.708 302.713L133.84 302.365L130.29 300.216L133.199 295.354ZM159.625 311.328C160.008 310.456 160.134 309.492 159.987 308.55C159.839 307.753 159.407 307.039 158.77 306.542C158.134 306.045 157.339 305.8 156.535 305.855C155.399 306.181 154.372 306.809 153.561 307.674L159.625 311.328ZM138.261 305.144C138.144 305.959 138.089 306.783 138.096 307.607C138.132 308.05 138.264 308.48 138.483 308.866C138.701 309.252 139.001 309.585 139.362 309.842C139.722 310.099 140.134 310.273 140.568 310.353C141.002 310.432 141.449 310.415 141.876 310.303C142.741 309.922 143.515 309.358 144.144 308.649L138.261 305.144Z" fill="white"/>
<path d="M148.285 145.274C140.988 153.972 143.799 176.494 143.799 176.494L151.309 184.2C156.84 188.962 164.025 191.319 171.283 190.752C178.541 190.184 185.278 186.739 190.012 181.174C194.745 175.608 197.087 168.379 196.523 161.076C195.959 153.773 192.535 146.994 187.004 142.231L178.278 135.964C178.278 135.964 155.681 136.593 148.285 145.274Z" fill="url(#paint2_linear_2_874)"/>
<path d="M169.124 191.624C162.414 191.603 155.933 189.169 150.849 184.762L143.273 177.007C143.155 176.87 143.076 176.705 143.043 176.527C142.928 175.601 140.2 153.542 147.727 144.679C155.254 135.815 177.308 135.104 178.294 135.071C178.469 135.078 178.638 135.129 178.787 135.22L187.514 141.504C191.919 145.272 195.069 150.31 196.537 155.937C198.005 161.564 197.72 167.51 195.722 172.969C193.723 178.428 190.107 183.138 185.362 186.463C180.617 189.788 174.972 191.566 169.19 191.558L169.124 191.624ZM144.588 176.114L151.901 183.621C157.273 188.226 164.243 190.495 171.278 189.929C178.312 189.363 184.836 186.008 189.412 180.603C193.989 175.198 196.244 168.185 195.681 161.106C195.119 154.028 191.785 147.465 186.413 142.86L177.999 136.808C175.435 136.907 155.55 138.015 148.91 145.82C142.271 153.625 144.276 173.551 144.588 176.114Z" fill="#231F20"/>
<path d="M163.849 186.267C178.997 186.267 191.277 173.91 191.277 158.668C191.277 143.426 178.997 131.07 163.849 131.07C148.7 131.07 136.42 143.426 136.42 158.668C136.42 173.91 148.7 186.267 163.849 186.267Z" fill="url(#paint3_linear_2_874)"/>
<path d="M163.832 187.077C159.279 187.076 154.794 185.968 150.758 183.847C146.722 181.726 143.256 178.656 140.654 174.896C138.052 171.137 136.391 166.8 135.814 162.256C135.237 157.712 135.759 153.095 137.338 148.797C138.916 144.5 141.503 140.651 144.879 137.577C148.255 134.502 152.319 132.295 156.725 131.142C161.132 129.988 165.75 129.924 170.186 130.954C174.623 131.983 178.746 134.077 182.205 137.056C186.592 140.834 189.723 145.873 191.177 151.497C192.63 157.12 192.337 163.056 190.335 168.506C188.333 173.956 184.719 178.657 179.981 181.978C175.242 185.298 169.606 187.078 163.832 187.077ZM163.832 131.896C157.591 131.896 151.548 134.104 146.762 138.135C141.976 142.165 138.751 147.762 137.653 153.944C136.555 160.126 137.653 166.499 140.755 171.949C143.856 177.398 148.765 181.576 154.62 183.751C160.475 185.926 166.903 185.959 172.78 183.845C178.657 181.731 183.608 177.604 186.765 172.187C189.923 166.77 191.086 160.408 190.051 154.215C189.016 148.022 185.849 142.392 181.104 138.312C176.308 134.157 170.194 131.864 163.865 131.847L163.832 131.896Z" fill="#231F20"/>
<path d="M150.75 143.637L153.791 146.25C153.822 146.288 153.86 146.318 153.904 146.339C153.949 146.36 153.997 146.371 154.045 146.371C154.094 146.371 154.142 146.36 154.186 146.339C154.231 146.318 154.269 146.288 154.3 146.25C155.855 144.994 157.696 144.147 159.658 143.786C161.718 143.426 163.838 143.832 165.623 144.927C166.116 145.224 166.577 145.572 167.086 145.902L163.076 150.615C162.356 150.02 161.46 149.683 160.529 149.656C159.8 149.72 159.076 149.825 158.359 149.97V150.119L164.194 155.08L164.752 154.666C166.081 153.603 167.532 152.703 169.075 151.988C170.215 151.427 171.485 151.187 172.749 151.295C174.014 151.403 175.226 151.854 176.256 152.599C178.285 153.86 179.737 155.874 180.299 158.205C180.771 160.106 180.633 162.109 179.905 163.927C179.477 165.068 178.902 166.142 178.36 167.234L180.628 169.185L176.946 173.534L174.596 171.517C173.61 172.195 172.723 172.873 171.753 173.451C170.056 174.554 168.044 175.059 166.031 174.889C164.018 174.718 162.117 173.881 160.627 172.509L164.572 167.862C165.4 168.516 166.419 168.88 167.472 168.898C168.525 168.916 169.555 168.587 170.406 167.961L164.144 162.571C163.142 163.232 162.156 163.91 161.137 164.555C159.943 165.363 158.573 165.868 157.143 166.027C155.677 166.152 154.21 165.804 152.953 165.035C151.381 164.152 150.08 162.854 149.189 161.281C148.55 160.143 148.169 158.877 148.072 157.573C147.976 156.27 148.166 154.961 148.63 153.74C149.04 152.76 149.506 151.805 150.027 150.88L150.208 150.549L147.053 147.837L150.75 143.637ZM174.186 163.794C174.704 162.997 174.989 162.068 175.007 161.115C175.011 160.293 174.711 159.498 174.164 158.887C173.617 158.275 172.863 157.891 172.049 157.808C170.857 157.929 169.721 158.375 168.762 159.098L174.186 163.794ZM154.218 154.154C153.964 154.931 153.772 155.727 153.643 156.535C153.605 156.979 153.665 157.426 153.817 157.844C153.968 158.262 154.209 158.642 154.522 158.957C154.835 159.272 155.213 159.515 155.629 159.667C156.045 159.82 156.489 159.88 156.93 159.842C157.841 159.618 158.697 159.207 159.444 158.635L154.218 154.154Z" fill="white"/>
<path d="M77.2241 106.398V128.738C77.2241 137.998 110.931 145.506 152.493 145.506C194.055 145.506 227.761 137.998 227.761 128.738V106.398H77.2241Z" fill="white"/>
<path d="M152.493 146.332C115.088 146.332 76.4023 139.718 76.4023 128.738V106.398C76.4023 106.179 76.4889 105.968 76.643 105.813C76.7971 105.658 77.0061 105.571 77.2241 105.571H227.761C227.979 105.571 228.188 105.658 228.342 105.813C228.496 105.968 228.583 106.179 228.583 106.398V128.738C228.583 139.751 189.897 146.332 152.493 146.332ZM78.0458 107.225V128.722C78.0458 136.427 107.956 144.662 152.493 144.662C197.029 144.662 226.939 136.394 226.939 128.722V107.225H78.0458Z" fill="#231F20"/>
<path d="M152.493 123.165C194.062 123.165 227.761 115.658 227.761 106.398C227.761 97.1376 194.062 89.6306 152.493 89.6306C110.923 89.6306 77.2241 97.1376 77.2241 106.398C77.2241 115.658 110.923 123.165 152.493 123.165Z" fill="white"/>
<path d="M152.493 123.976C115.088 123.976 76.4023 117.361 76.4023 106.398C76.4023 95.4347 115.088 88.8534 152.493 88.8534C189.897 88.8534 228.583 95.4678 228.583 106.448C228.583 117.428 189.897 123.976 152.493 123.976ZM152.493 90.507C107.956 90.507 78.0458 98.775 78.0458 106.448C78.0458 114.12 107.956 122.372 152.493 122.372C197.029 122.372 226.939 114.104 226.939 106.448C226.939 98.7915 197.029 90.507 152.493 90.507Z" fill="#231F20"/>
<path d="M152.493 378.497C208.176 378.497 253.316 368.443 253.316 356.041C253.316 343.639 208.176 333.585 152.493 333.585C96.8092 333.585 51.6689 343.639 51.6689 356.041C51.6689 368.443 96.8092 378.497 152.493 378.497Z" fill="white"/>
<path d="M152.492 379.307C95.4988 379.307 50.8472 369.088 50.8472 356.041C50.8472 342.994 95.4988 332.759 152.492 332.759C209.486 332.759 254.138 342.978 254.138 356.041C254.138 369.105 209.486 379.307 152.492 379.307ZM152.492 334.412C104.192 334.412 52.4906 343.094 52.4906 356.041C52.4906 368.989 104.192 377.654 152.492 377.654C200.792 377.654 252.494 368.972 252.494 356.041C252.494 343.11 200.792 334.412 152.492 334.412Z" fill="#231F20"/>
<path d="M63.748 336.992C63.53 336.992 63.3211 336.905 63.167 336.75C63.0129 336.595 62.9263 336.384 62.9263 336.165V198.917C62.9263 189.905 74.7096 181.157 85.096 173.418C91.3409 168.772 97.2408 164.39 98.1282 161.43C99.6475 156.245 100.568 150.902 100.873 145.506C100.87 145.395 100.89 145.285 100.933 145.182C100.976 145.08 101.04 144.989 101.121 144.913C101.202 144.838 101.298 144.781 101.402 144.747C101.507 144.712 101.618 144.7 101.727 144.712C101.835 144.716 101.941 144.742 102.039 144.787C102.137 144.833 102.226 144.897 102.299 144.977C102.372 145.057 102.429 145.151 102.466 145.253C102.504 145.355 102.521 145.463 102.516 145.572C102.207 151.114 101.264 156.601 99.7059 161.926C98.6377 165.398 92.82 169.731 86.0656 174.741C76.5009 181.868 64.5697 190.748 64.5697 198.917V336.165C64.5697 336.384 64.4831 336.595 64.329 336.75C64.1749 336.905 63.9659 336.992 63.748 336.992Z" fill="#D1D3D4"/>
<path d="M241.237 336.992C241.019 336.992 240.81 336.905 240.656 336.75C240.502 336.595 240.415 336.384 240.415 336.165V198.917C240.415 190.748 228.484 181.868 218.92 174.741C212.165 169.78 206.347 165.398 205.279 161.926C203.721 156.601 202.778 151.114 202.469 145.572C202.465 145.463 202.481 145.355 202.519 145.253C202.556 145.151 202.613 145.057 202.686 144.977C202.759 144.897 202.848 144.833 202.946 144.787C203.044 144.742 203.15 144.716 203.258 144.712C203.47 144.712 203.674 144.794 203.827 144.942C203.981 145.09 204.071 145.292 204.079 145.506C204.384 150.902 205.305 156.245 206.824 161.43C207.711 164.39 213.611 168.772 219.856 173.418C230.243 181.157 242.026 189.954 242.026 198.917V336.165C242.026 336.379 241.944 336.584 241.797 336.738C241.65 336.892 241.449 336.983 241.237 336.992Z" fill="#D1D3D4"/>
<path d="M77.5693 332.428V346.632C77.5693 352.006 90.7167 356.372 106.74 356.372C122.763 356.372 135.894 352.006 135.894 346.632V332.428H77.5693Z" fill="url(#paint4_linear_2_874)"/>
<path d="M106.74 357.199C91.9492 357.199 76.7476 353.247 76.7476 346.632V332.428C76.7476 332.209 76.8341 331.998 76.9882 331.843C77.1423 331.688 77.3513 331.601 77.5693 331.601H135.894C136.112 331.601 136.321 331.688 136.475 331.843C136.629 331.998 136.716 332.209 136.716 332.428V346.632C136.716 353.247 121.465 357.199 106.74 357.199ZM78.391 333.255V346.632C78.391 350.932 89.7799 355.545 106.74 355.545C123.7 355.545 135.072 350.932 135.072 346.632V333.255H78.391Z" fill="#231F20"/>
<path d="M106.74 342.168C122.841 342.168 135.894 337.807 135.894 332.428C135.894 327.049 122.841 322.688 106.74 322.688C90.6382 322.688 77.5854 327.049 77.5854 332.428C77.5854 337.807 90.6382 342.168 106.74 342.168Z" fill="#231F20"/>
<path d="M106.74 342.994C91.9492 342.994 76.7476 339.042 76.7476 332.428C76.7476 325.813 91.9985 321.861 106.74 321.861C121.481 321.861 136.716 325.813 136.716 332.428C136.716 339.042 121.465 342.994 106.74 342.994ZM106.74 323.515C89.7799 323.515 78.391 328.129 78.391 332.428C78.391 336.727 89.7799 341.341 106.74 341.341C123.7 341.341 135.072 336.727 135.072 332.428C135.072 328.129 123.684 323.515 106.74 323.515Z" fill="#231F20"/>
<path d="M84.4385 312.965V327.153C84.4385 332.544 97.5036 336.893 113.609 336.893C129.715 336.893 142.763 332.544 142.763 327.153V312.965H84.4385Z" fill="url(#paint5_linear_2_874)"/>
<path d="M113.61 337.719C98.8188 337.719 83.6172 333.767 83.6172 327.153V312.965C83.6172 312.746 83.7038 312.535 83.8579 312.38C84.012 312.225 84.221 312.138 84.4389 312.138H142.764C142.982 312.138 143.191 312.225 143.345 312.38C143.499 312.535 143.585 312.746 143.585 312.965V327.153C143.585 333.767 128.335 337.719 113.61 337.719ZM85.2606 313.742V327.103C85.2606 331.419 96.6495 336.016 113.61 336.016C130.57 336.016 141.942 331.419 141.942 327.103V313.742H85.2606Z" fill="#231F20"/>
<path d="M113.609 322.705C129.711 322.705 142.763 318.344 142.763 312.965C142.763 307.586 129.711 303.225 113.609 303.225C97.5078 303.225 84.4551 307.586 84.4551 312.965C84.4551 318.344 97.5078 322.705 113.609 322.705Z" fill="#231F20"/>
<path d="M113.61 323.515C98.8188 323.515 83.6172 319.563 83.6172 312.965C83.6172 306.367 98.8681 302.399 113.61 302.399C128.351 302.399 143.585 306.351 143.585 312.965C143.585 319.579 128.335 323.515 113.61 323.515ZM113.61 304.052C96.6495 304.052 85.2606 308.649 85.2606 312.965C85.2606 317.281 96.6495 321.861 113.61 321.861C130.57 321.861 141.942 317.264 141.942 312.965C141.942 308.666 130.553 304.052 113.61 304.052Z" fill="#231F20"/>
<path d="M78.5386 291.253V305.474C78.5386 310.848 91.6037 315.214 107.709 315.214C123.815 315.214 136.863 310.848 136.863 305.474V291.253H78.5386Z" fill="url(#paint6_linear_2_874)"/>
<path d="M107.644 316.024C92.853 316.024 77.6514 312.072 77.6514 305.458V291.253C77.6514 291.034 77.7379 290.824 77.892 290.669C78.0461 290.514 78.2551 290.427 78.4731 290.427H136.798C137.016 290.427 137.225 290.514 137.379 290.669C137.533 290.824 137.62 291.034 137.62 291.253V305.474C137.702 312.089 122.369 316.024 107.644 316.024ZM79.2948 292.08V305.474C79.2948 309.774 90.6837 314.387 107.644 314.387C124.604 314.387 136.058 309.757 136.058 305.474V292.08H79.2948Z" fill="#231F20"/>
<path d="M107.643 300.993C123.745 300.993 136.798 296.632 136.798 291.253C136.798 285.874 123.745 281.514 107.643 281.514C91.5421 281.514 78.4893 285.874 78.4893 291.253C78.4893 296.632 91.5421 300.993 107.643 300.993Z" fill="#231F20"/>
<path d="M107.644 301.82C92.853 301.82 77.6514 297.868 77.6514 291.253C77.6514 284.639 92.9023 280.687 107.644 280.687C122.385 280.687 137.702 284.639 137.702 291.253C137.702 297.868 122.369 301.82 107.644 301.82ZM107.644 282.34C90.6837 282.34 79.2948 286.954 79.2948 291.253C79.2948 295.553 90.6837 300.166 107.644 300.166C124.604 300.166 136.058 295.553 136.058 291.253C136.058 286.954 124.554 282.324 107.644 282.324V282.34Z" fill="#231F20"/>
<path d="M154.333 329.947V344.152C154.333 349.543 167.382 353.892 183.487 353.892C199.593 353.892 212.658 349.543 212.658 344.152V329.947H154.333Z" fill="url(#paint7_linear_2_874)"/>
<path d="M183.487 354.718C168.696 354.718 153.511 350.766 153.511 344.152V329.947C153.511 329.728 153.598 329.518 153.752 329.363C153.906 329.208 154.115 329.121 154.333 329.121H212.658C212.876 329.121 213.085 329.208 213.239 329.363C213.393 329.518 213.479 329.728 213.479 329.947V344.152C213.479 350.766 198.229 354.718 183.487 354.718ZM155.155 330.774V344.152C155.155 348.468 166.544 353.065 183.487 353.065C200.431 353.065 211.836 348.468 211.836 344.152V330.774H155.155Z" fill="#231F20"/>
<path d="M183.487 339.687C199.589 339.687 212.641 335.327 212.641 329.947C212.641 324.568 199.589 320.208 183.487 320.208C167.386 320.208 154.333 324.568 154.333 329.947C154.333 335.327 167.386 339.687 183.487 339.687Z" fill="#231F20"/>
<path d="M183.487 340.514C168.696 340.514 153.511 336.562 153.511 329.947C153.511 323.333 168.762 319.398 183.487 319.398C198.212 319.398 213.479 323.35 213.479 329.947C213.479 336.545 198.229 340.514 183.487 340.514ZM183.487 321.051C166.544 321.051 155.155 325.648 155.155 329.947C155.155 334.247 166.544 338.86 183.487 338.86C200.431 338.86 211.836 334.263 211.836 329.947C211.836 325.632 200.447 321.051 183.487 321.051Z" fill="#231F20"/>
<path d="M150.537 313.114V327.318C150.537 332.692 163.585 337.058 179.691 337.058C195.796 337.058 208.861 332.692 208.861 327.318V313.114H150.537Z" fill="url(#paint8_linear_2_874)"/>
<path d="M179.691 337.885C164.901 337.885 149.715 333.933 149.715 327.318V313.114C149.715 312.895 149.802 312.684 149.956 312.529C150.11 312.374 150.319 312.287 150.537 312.287H208.862C209.08 312.287 209.289 312.374 209.443 312.529C209.597 312.684 209.684 312.895 209.684 313.114V327.318C209.684 333.933 194.433 337.885 179.691 337.885ZM151.359 313.941V327.318C151.359 331.618 162.748 336.231 179.691 336.231C196.635 336.231 208.04 331.618 208.04 327.318V313.941H151.359Z" fill="#231F20"/>
<path d="M179.691 322.854C195.792 322.854 208.845 318.493 208.845 313.114C208.845 307.735 195.792 303.374 179.691 303.374C163.589 303.374 150.537 307.735 150.537 313.114C150.537 318.493 163.589 322.854 179.691 322.854Z" fill="#231F20"/>
<path d="M179.691 323.664C164.901 323.664 149.715 319.712 149.715 313.097C149.715 306.483 164.966 302.531 179.691 302.531C194.416 302.531 209.684 306.483 209.684 313.097C209.684 319.712 194.433 323.664 179.691 323.664ZM179.691 304.184C162.748 304.184 151.359 308.798 151.359 313.097C151.359 317.397 162.748 322.01 179.691 322.01C196.635 322.01 208.04 317.397 208.04 313.097C208.04 308.798 196.651 304.201 179.691 304.201V304.184Z" fill="#231F20"/>
<path d="M155.237 292.609V306.814C155.237 312.188 168.286 316.553 184.391 316.553C200.497 316.553 213.562 312.188 213.562 306.814V292.609H155.237Z" fill="url(#paint9_linear_2_874)"/>
<path d="M184.391 317.38C169.601 317.38 154.416 313.428 154.416 306.814V292.609C154.416 292.39 154.502 292.18 154.656 292.025C154.81 291.87 155.019 291.782 155.237 291.782H213.562C213.78 291.782 213.989 291.87 214.143 292.025C214.297 292.18 214.384 292.39 214.384 292.609V306.814C214.384 313.428 199.133 317.38 184.391 317.38ZM156.059 293.436V306.814C156.059 311.113 167.448 315.727 184.391 315.727C201.335 315.727 212.74 311.113 212.74 306.814V293.436H156.059Z" fill="#231F20"/>
<path d="M184.391 302.349C200.492 302.349 213.545 297.988 213.545 292.609C213.545 287.23 200.492 282.87 184.391 282.87C168.29 282.87 155.237 287.23 155.237 292.609C155.237 297.988 168.29 302.349 184.391 302.349Z" fill="#231F20"/>
<path d="M184.391 303.176C169.601 303.176 154.416 299.224 154.416 292.609C154.416 285.995 169.666 282.043 184.391 282.043C199.116 282.043 214.384 285.995 214.384 292.609C214.384 299.224 199.133 303.176 184.391 303.176ZM184.391 283.696C167.448 283.696 156.059 288.31 156.059 292.609C156.059 296.909 167.448 301.522 184.391 301.522C201.335 301.522 212.74 296.909 212.74 292.609C212.74 288.31 201.352 283.696 184.391 283.696Z" fill="#231F20"/>
<path d="M150.537 272.022V286.226C150.537 291.601 163.585 295.966 179.691 295.966C195.796 295.966 208.861 291.601 208.861 286.226V272.022H150.537Z" fill="url(#paint10_linear_2_874)"/>
<path d="M179.691 296.793C164.901 296.793 149.715 292.841 149.715 286.226V272.022C149.715 271.803 149.802 271.592 149.956 271.437C150.11 271.282 150.319 271.195 150.537 271.195H208.862C209.08 271.195 209.289 271.282 209.443 271.437C209.597 271.592 209.684 271.803 209.684 272.022V286.226C209.684 292.841 194.433 296.793 179.691 296.793ZM151.359 272.849V286.226C151.359 290.526 162.748 295.139 179.691 295.139C196.635 295.139 208.04 290.526 208.04 286.226V272.849H151.359Z" fill="#231F20"/>
<path d="M179.691 281.762C195.792 281.762 208.845 277.401 208.845 272.022C208.845 266.643 195.792 262.282 179.691 262.282C163.589 262.282 150.537 266.643 150.537 272.022C150.537 277.401 163.589 281.762 179.691 281.762Z" fill="#231F20"/>
<path d="M179.691 282.588C164.901 282.588 149.715 278.636 149.715 272.022C149.715 265.408 164.966 261.456 179.691 261.456C194.416 261.456 209.684 265.408 209.684 272.022C209.684 278.636 194.433 282.588 179.691 282.588ZM179.691 263.109C162.748 263.109 151.359 267.723 151.359 272.022C151.359 276.321 162.748 280.935 179.691 280.935C196.635 280.935 208.04 276.321 208.04 272.022C208.04 267.723 196.651 263.109 179.691 263.109Z" fill="#231F20"/>
<path d="M159.937 255.188V269.393C159.937 274.767 172.986 279.116 189.091 279.116C205.197 279.116 218.229 274.767 218.229 269.393V255.188H159.937Z" fill="url(#paint11_linear_2_874)"/>
<path d="M189.092 279.943C174.301 279.943 159.116 276.007 159.116 269.393V255.188C159.116 254.969 159.202 254.759 159.356 254.604C159.511 254.449 159.72 254.362 159.937 254.362H218.229C218.447 254.362 218.656 254.449 218.81 254.604C218.965 254.759 219.051 254.969 219.051 255.188V269.393C219.084 276.007 203.833 279.943 189.092 279.943ZM160.71 256.015V269.393C160.71 273.692 172.099 278.289 189.042 278.289C205.986 278.289 217.391 273.692 217.391 269.393V256.015H160.71Z" fill="#231F20"/>
<path d="M189.091 264.928C205.193 264.928 218.245 260.567 218.245 255.188C218.245 249.809 205.193 245.449 189.091 245.449C172.99 245.449 159.937 249.809 159.937 255.188C159.937 260.567 172.99 264.928 189.091 264.928Z" fill="#231F20"/>
<path d="M189.092 265.788C174.301 265.788 159.116 261.852 159.116 255.238C159.116 248.624 174.367 244.672 189.092 244.672C203.817 244.672 219.084 248.624 219.084 255.238C219.084 261.852 203.833 265.788 189.092 265.788ZM189.092 246.325C172.214 246.276 160.71 250.906 160.71 255.188C160.71 259.471 172.214 264.134 189.092 264.134C205.97 264.134 217.441 259.537 217.441 255.238C217.441 250.939 206.052 246.276 189.092 246.276V246.325Z" fill="#231F20"/>
<path d="M153.544 238.355V252.559C153.544 257.95 166.593 262.299 182.699 262.299C198.804 262.299 211.869 257.95 211.869 252.559V238.371L153.544 238.355Z" fill="url(#paint12_linear_2_874)"/>
<path d="M182.699 263.109C167.908 263.109 152.723 259.157 152.723 252.543V238.355C152.723 238.136 152.809 237.925 152.963 237.77C153.117 237.615 153.326 237.528 153.544 237.528H211.869C212.087 237.528 212.296 237.615 212.45 237.77C212.604 237.925 212.691 238.136 212.691 238.355V252.559C212.691 259.174 197.44 263.109 182.699 263.109ZM154.366 239.182V252.559C154.366 256.875 165.755 261.472 182.699 261.472C199.642 261.472 211.048 256.875 211.048 252.559V239.198L154.366 239.182Z" fill="#231F20"/>
<path d="M182.699 248.095C198.8 248.095 211.853 243.734 211.853 238.355C211.853 232.976 198.8 228.615 182.699 228.615C166.597 228.615 153.544 232.976 153.544 238.355C153.544 243.734 166.597 248.095 182.699 248.095Z" fill="url(#paint13_linear_2_874)"/>
<path d="M182.699 248.905C167.908 248.905 152.723 244.953 152.723 238.355C152.723 231.757 167.957 227.788 182.699 227.788C197.44 227.788 212.691 231.74 212.691 238.355C212.691 244.969 197.44 248.905 182.699 248.905ZM182.699 229.442C165.755 229.442 154.366 234.039 154.366 238.355C154.366 242.671 165.755 247.251 182.699 247.251C199.642 247.251 211.048 242.654 211.048 238.355C211.048 234.055 199.659 229.409 182.699 229.409V229.442Z" fill="#231F20"/>
<path d="M121.399 347.806L122.04 358.389C122.171 365.483 135.631 370.99 152.098 370.675C168.565 370.361 181.811 364.359 181.679 357.265L181.038 346.682L121.399 347.806Z" fill="url(#paint14_linear_2_874)"/>
<path d="M150.849 371.519C143.984 371.648 137.155 370.482 130.717 368.079C124.719 365.632 121.366 362.192 121.301 358.406L120.66 347.856C120.652 347.632 120.728 347.414 120.873 347.244C121.028 347.081 121.241 346.986 121.465 346.979L181.105 345.855C181.314 345.855 181.516 345.935 181.669 346.079C181.822 346.224 181.914 346.422 181.926 346.632L182.567 357.215C182.715 364.921 169.42 371.188 152.18 371.502L150.849 371.519ZM122.352 348.616L122.911 358.389C122.911 361.465 126.017 364.441 131.293 366.657C137.958 369.115 145.037 370.239 152.131 369.964C167.842 369.667 181.022 363.912 180.907 357.397L180.316 347.641L122.352 348.616Z" fill="#231F20"/>
<path d="M151.441 360.118C167.912 359.808 181.157 353.799 181.025 346.695C180.894 339.591 167.435 334.083 150.964 334.393C134.493 334.702 121.248 340.712 121.38 347.816C121.512 354.92 134.971 360.428 151.441 360.118Z" fill="url(#paint15_linear_2_874)"/>
<path d="M150.126 360.936C143.261 361.064 136.433 359.897 129.994 357.496C123.996 355.049 120.643 351.61 120.578 347.823C120.446 340.15 133.725 333.883 150.964 333.569C158.278 333.287 165.575 334.45 172.444 336.992C178.442 339.439 181.795 342.879 181.861 346.665C182.009 354.338 168.713 360.605 151.474 360.919L150.126 360.936ZM152.312 335.239H150.997C135.286 335.537 122.106 341.291 122.221 347.806C122.221 350.849 125.344 353.825 130.619 355.975C137.278 358.437 144.352 359.561 151.441 359.282C167.168 359.001 180.349 353.23 180.217 346.715C180.217 343.672 177.111 340.696 171.836 338.546C165.591 336.223 158.968 335.101 152.312 335.239Z" fill="#231F20"/>
<path d="M172.394 345.442L168.171 345.872C167.891 345.872 167.859 345.872 167.974 346.087C168.414 346.48 168.749 346.978 168.947 347.536C169.145 348.094 169.201 348.693 169.108 349.278C168.795 350.402 167.464 351.18 165.426 351.626C164.868 351.742 164.26 351.841 163.635 351.94L159.559 348.368C160.326 348.345 161.064 348.072 161.663 347.591C161.864 347.276 162.014 346.929 162.107 346.566H161.959L154.07 347.36L154.284 347.74C154.871 348.591 155.279 349.553 155.484 350.568C155.73 352.221 154.415 353.214 151.638 353.71C148.955 354.16 146.209 354.053 143.569 353.395C141.569 352.971 139.664 352.181 137.948 351.064C137.077 350.469 136.305 349.84 135.516 349.228L132.624 349.526L130.635 346.649L133.478 346.351C133.334 345.808 133.224 345.255 133.15 344.698C133.133 344.151 133.281 343.612 133.575 343.152C133.868 342.691 134.293 342.331 134.793 342.118C136.065 341.478 137.45 341.096 138.869 340.993L141.252 343.623C139.296 343.953 138.261 344.631 138.606 345.789L146.396 344.962C146.182 344.383 145.935 343.821 145.755 343.308C145.609 343.013 145.555 342.68 145.599 342.353C145.643 342.026 145.783 341.719 146.001 341.473C146.715 340.823 147.61 340.408 148.565 340.282C150.186 339.945 151.842 339.818 153.495 339.902C156.19 340.019 158.844 340.613 161.334 341.655C162.271 342.068 163.076 342.531 163.964 342.978L164.276 343.143L168.417 342.713L172.394 345.442ZM140.89 348.633C141.557 349.201 142.327 349.634 143.158 349.906C143.905 350.206 144.706 350.346 145.509 350.317C146.312 350.289 147.101 350.092 147.825 349.741C148.401 349.212 148.055 348.567 147.908 347.922L140.89 348.633ZM158.968 343.672C158.146 343.342 157.456 343.027 156.667 342.779C154.81 342.201 152.476 342.366 152.049 343.094C151.835 343.474 152.049 343.92 152.263 344.383L158.968 343.672Z" fill="white"/>
<path d="M171.047 222.976L168.927 233.361C167.283 240.256 178.787 249.087 194.794 253.088C210.801 257.09 225.115 254.742 226.808 247.846L228.928 237.462L171.047 222.976Z" fill="url(#paint16_linear_2_874)"/>
<path d="M209.7 255.866C204.599 255.824 199.522 255.157 194.58 253.882C177.916 249.715 166.297 240.653 168.121 233.163L170.241 222.795C170.263 222.686 170.306 222.583 170.368 222.492C170.43 222.401 170.51 222.324 170.603 222.265C170.797 222.152 171.026 222.117 171.244 222.166L229.125 236.652C229.329 236.703 229.506 236.831 229.619 237.009C229.732 237.188 229.773 237.403 229.733 237.611L227.613 247.995C226.709 251.716 222.683 254.312 216.29 255.354C214.11 255.7 211.907 255.871 209.7 255.866ZM171.671 223.985L169.732 233.526C168.089 239.893 179.724 248.409 194.991 252.278C201.84 254.147 208.988 254.642 216.027 253.733C221.648 252.824 225.28 250.591 226.019 247.648L227.958 238.074L171.671 223.985Z" fill="#231F20"/>
<path d="M228.947 237.489C230.652 230.594 219.074 221.761 203.088 217.759C187.102 213.757 172.76 216.103 171.055 222.998C169.351 229.893 180.928 238.726 196.915 242.728C212.901 246.729 227.242 244.384 228.947 237.489Z" fill="url(#paint17_linear_2_874)"/>
<path d="M211.803 245.482C206.708 245.438 201.636 244.772 196.7 243.498C189.567 241.863 182.822 238.835 176.848 234.585C171.671 230.649 169.338 226.449 170.274 222.778C171.211 219.107 175.205 216.511 181.597 215.469C196.24 213.852 210.976 217.54 223.159 225.87C228.32 229.806 230.67 233.989 229.733 237.66C228.813 241.348 224.803 243.944 218.394 244.986C216.213 245.327 214.01 245.492 211.803 245.482ZM188.171 216.61C186.047 216.603 183.926 216.763 181.828 217.09C176.207 218.016 172.575 220.231 171.836 223.175C171.096 226.118 173.298 229.789 177.834 233.262C189.663 241.303 203.936 244.876 218.131 243.349C223.767 242.439 227.399 240.223 228.123 237.263C228.862 234.32 226.676 230.649 222.14 227.177C216.332 223.068 209.785 220.136 202.863 218.545C198.06 217.311 193.128 216.661 188.171 216.61Z" fill="#231F20"/>
<path d="M220.891 234.006L216.701 233.311C216.438 233.311 216.388 233.311 216.471 233.477C216.777 233.965 216.961 234.522 217.007 235.098C217.053 235.674 216.959 236.252 216.734 236.784C216.142 237.793 214.712 238.223 212.559 238.107C212 238.107 211.376 237.991 210.751 237.941L207.744 233.411C208.489 233.592 209.273 233.528 209.979 233.229C210.247 232.968 210.479 232.674 210.669 232.352L210.538 232.253L202.715 230.963C202.715 231.096 202.715 231.228 202.83 231.377C203.174 232.357 203.32 233.398 203.258 234.436C203.077 236.089 201.614 236.718 198.738 236.453C196.028 236.193 193.399 235.377 191.014 234.056C189.197 233.121 187.565 231.86 186.199 230.335C185.509 229.525 184.95 228.681 184.325 227.921L181.449 227.458L180.266 224.15L183.093 224.613C183.091 224.061 183.124 223.508 183.191 222.96C183.309 222.425 183.587 221.939 183.986 221.567C184.385 221.195 184.888 220.954 185.426 220.876C186.815 220.6 188.245 220.6 189.634 220.876L191.277 224.035C189.288 223.853 188.122 224.217 188.138 225.424L195.895 226.68C195.895 226.052 195.747 225.457 195.714 224.862C195.661 224.547 195.699 224.223 195.824 223.93C195.95 223.636 196.157 223.385 196.421 223.208C197.273 222.756 198.244 222.583 199.198 222.712C200.875 222.809 202.533 223.126 204.129 223.654C206.704 224.462 209.114 225.727 211.245 227.392C212.05 228.02 212.707 228.681 213.447 229.359L213.693 229.591L217.818 230.252L220.891 234.006ZM189.666 228.863C190.159 229.588 190.791 230.206 191.524 230.682C192.17 231.163 192.907 231.507 193.69 231.691C194.472 231.876 195.284 231.898 196.076 231.757C196.766 231.393 196.602 230.666 196.618 230.103L189.666 228.863ZM208.484 228.764C207.76 228.218 207.185 227.722 206.495 227.292C204.852 226.234 202.551 225.788 201.959 226.383C201.631 226.697 201.746 227.193 201.828 227.689L208.484 228.764Z" fill="white"/>
<path d="M99.7881 242.638L108.778 248.177C114.628 252.146 126.855 244.209 136.025 230.467C145.196 216.726 147.94 202.356 142.073 198.388L133.1 192.848L99.7881 242.638Z" fill="url(#paint18_linear_2_874)"/>
<path d="M112.377 249.98C110.939 250.01 109.525 249.607 108.318 248.822L99.361 243.283C99.1771 243.161 99.0481 242.971 99.002 242.755C98.9559 242.538 98.9963 242.312 99.1145 242.125L132.427 192.335C132.541 192.157 132.721 192.031 132.927 191.985C133.133 191.938 133.348 191.975 133.528 192.087L142.501 197.627C148.861 201.943 146.297 216.527 136.716 230.881C128.877 242.638 119.131 249.98 112.377 249.98ZM100.873 242.323L109.09 247.433C114.497 251.088 126.445 243.068 135.237 229.955C144.029 216.842 146.889 202.67 141.498 199.016L133.281 193.906L100.873 242.323Z" fill="#231F20"/>
<path d="M127.049 224.85C136.246 211.098 138.953 196.734 133.095 192.767C127.237 188.801 115.031 196.732 105.834 210.484C96.6363 224.235 93.9293 238.599 99.7875 242.566C105.646 246.533 117.851 238.601 127.049 224.85Z" fill="url(#paint19_linear_2_874)"/>
<path d="M103.387 244.44C101.953 244.47 100.543 244.06 99.3445 243.266C96.222 241.149 95.1538 236.47 96.3699 230.037C99.8755 215.645 108.35 202.974 120.282 194.287C125.721 190.764 130.438 189.971 133.56 192.087C136.683 194.204 137.735 198.9 136.535 205.316C133.012 219.701 124.541 232.366 112.623 241.067C109.918 243.037 106.719 244.206 103.387 244.44ZM129.485 192.6C126.469 192.837 123.579 193.913 121.136 195.709C109.57 204.162 101.354 216.465 97.9476 230.434C96.8958 236.056 97.7175 240.273 100.215 242.009C102.713 243.746 106.904 242.902 111.719 239.793C123.279 231.334 131.492 219.033 134.908 205.068C135.976 199.446 135.154 195.246 132.64 193.493C131.702 192.881 130.602 192.569 129.485 192.6Z" fill="#231F20"/>
<path d="M127.118 199.214L125.048 202.951C124.916 203.183 124.933 203.249 125.048 203.233C125.627 203.088 126.234 203.096 126.809 203.255C127.385 203.414 127.91 203.72 128.334 204.142C129.074 205.035 128.975 206.523 128.137 208.524C127.907 209.053 127.628 209.599 127.365 210.178L122.106 211.467C122.529 210.828 122.737 210.069 122.697 209.301C122.539 208.959 122.341 208.637 122.106 208.342L121.974 208.441L118.112 215.403H118.523C119.559 215.41 120.582 215.629 121.531 216.048C122.977 216.759 123.075 218.446 121.876 221.009C120.679 223.479 119.002 225.683 116.946 227.491C115.451 228.898 113.713 230.019 111.818 230.798C110.832 231.178 109.895 231.443 108.926 231.757L107.512 234.304H104.045L105.425 231.79C104.899 231.604 104.388 231.377 103.897 231.112C103.44 230.82 103.083 230.394 102.874 229.891C102.666 229.388 102.615 228.833 102.73 228.301C102.935 226.892 103.415 225.537 104.143 224.316L107.644 223.836C106.806 225.655 106.74 226.895 107.89 227.276C109.161 224.983 110.432 222.684 111.703 220.38C111.095 220.231 110.503 220.099 109.945 219.934C109.621 219.883 109.32 219.737 109.08 219.513C108.84 219.289 108.672 218.998 108.597 218.677C108.46 217.716 108.632 216.737 109.09 215.883C109.741 214.335 110.598 212.883 111.637 211.567C113.267 209.409 115.271 207.566 117.554 206.126C118.425 205.581 119.197 205.184 120.134 204.704L120.446 204.555L122.484 200.884L127.118 199.214ZM111.654 226.995C112.498 226.771 113.291 226.384 113.987 225.854C114.658 225.409 115.231 224.831 115.669 224.153C116.108 223.476 116.402 222.715 116.535 221.918C116.436 221.141 115.713 221.042 115.105 220.81L111.654 226.995ZM117.981 209.152C117.225 209.665 116.568 210.045 115.927 210.541C114.382 211.749 113.182 213.766 113.527 214.527C113.708 214.94 114.217 214.99 114.71 215.089L117.981 209.152Z" fill="white"/>
<path d="M78.0786 274.403L78.7195 284.986C78.851 292.097 92.3106 297.587 108.778 297.289C125.245 296.991 138.491 290.972 138.359 283.862L137.718 273.279L78.0786 274.403Z" fill="url(#paint20_linear_2_874)"/>
<path d="M107.414 298.132C90.9796 298.132 78.0459 292.477 77.8323 285.003L77.2078 274.453C77.1977 274.344 77.2116 274.234 77.2485 274.131C77.2855 274.028 77.3445 273.935 77.4214 273.858C77.4931 273.774 77.5812 273.705 77.6801 273.657C77.779 273.609 77.8867 273.581 77.9966 273.576L137.702 272.402C137.91 272.398 138.112 272.474 138.265 272.616C138.418 272.758 138.511 272.954 138.524 273.163L139.165 283.746C139.165 287.566 136.026 291.138 130.126 293.816C123.348 296.621 116.09 298.059 108.761 298.05L107.414 298.132ZM78.9498 275.213L79.5414 284.937C79.6729 291.551 93.0503 296.76 108.761 296.512C115.873 296.509 122.914 295.099 129.485 292.361C134.678 290.013 137.702 286.921 137.57 283.878L136.979 274.122L78.9498 275.213Z" fill="#231F20"/>
<path d="M108.13 286.715C124.601 286.405 137.846 280.396 137.714 273.292C137.583 266.188 124.124 260.68 107.653 260.99C91.1822 261.299 77.937 267.309 78.0688 274.413C78.2007 281.517 91.6597 287.024 108.13 286.715Z" fill="url(#paint21_linear_2_874)"/>
<path d="M106.789 287.549C90.2564 287.549 77.4049 281.894 77.2077 274.42C77.0105 266.945 90.355 260.496 107.594 260.166C114.913 259.893 122.213 261.056 129.09 263.589C135.089 266.053 138.425 269.492 138.491 273.279C138.573 277.049 135.352 280.621 129.452 283.3C122.675 286.105 115.416 287.543 108.088 287.533L106.789 287.549ZM109.008 261.803H107.677C91.9656 262.1 78.7854 267.855 78.9004 274.387C79.0155 280.918 92.4257 286.16 108.137 285.863C115.232 285.868 122.26 284.48 128.827 281.778C134.021 279.414 137.045 276.321 136.897 273.279C136.897 270.253 133.791 267.276 128.515 265.11C122.275 262.793 115.658 261.671 109.008 261.803Z" fill="#231F20"/>
<path d="M129.074 272.055L124.85 272.469C124.571 272.469 124.538 272.551 124.653 272.683C125.094 273.077 125.428 273.575 125.627 274.133C125.825 274.691 125.88 275.29 125.787 275.875C125.475 276.999 124.144 277.777 122.106 278.24C121.547 278.355 120.939 278.438 120.314 278.554L116.239 274.965C117.002 274.939 117.737 274.673 118.342 274.205C118.539 273.879 118.694 273.529 118.802 273.163H118.638L110.75 273.957L110.963 274.321C111.553 275.176 111.962 276.144 112.163 277.165C112.41 278.818 111.095 279.81 108.317 280.29C105.635 280.738 102.891 280.637 100.248 279.992C98.2499 279.556 96.3459 278.76 94.6278 277.644C93.7568 277.049 92.9844 276.437 92.212 275.809L89.3031 276.106L87.3311 273.246L90.1742 272.948C90.0259 272.404 89.9106 271.852 89.829 271.294C89.8115 270.746 89.959 270.204 90.2522 269.741C90.5454 269.278 90.9707 268.914 91.4724 268.698C92.7392 268.062 94.119 267.685 95.5317 267.59L97.9311 270.203C95.9754 270.55 94.9236 271.212 95.2687 272.369L103.059 271.559C102.845 270.98 102.615 270.402 102.418 269.905C102.284 269.607 102.237 269.277 102.28 268.952C102.324 268.628 102.457 268.322 102.664 268.07C103.376 267.414 104.271 266.993 105.228 266.863C106.848 266.524 108.506 266.401 110.158 266.499C112.854 266.608 115.509 267.202 117.997 268.252C118.95 268.649 119.739 269.112 120.627 269.575L120.939 269.74L125.08 269.31L129.074 272.055ZM97.5695 275.247C98.2419 275.803 99.0109 276.229 99.8375 276.503C100.584 276.801 101.384 276.942 102.186 276.916C102.989 276.891 103.778 276.699 104.505 276.354C105.08 275.825 104.751 275.164 104.505 274.536L97.5695 275.247ZM115.647 270.286C114.809 269.955 114.119 269.624 113.33 269.376C111.473 268.798 109.139 268.963 108.728 269.69C108.498 270.087 108.728 270.534 108.942 270.98L115.647 270.286Z" fill="white"/>
<path d="M161.499 51.4987L168.401 59.4525C172.789 64.9755 186.725 61.1061 199.527 50.7711C212.329 40.4362 219.133 27.6208 214.745 22.0978L207.859 14.144L161.499 51.4987Z" fill="url(#paint22_linear_2_874)"/>
<path d="M174.909 62.8093C173.58 62.9143 172.244 62.7144 171.003 62.2245C169.762 61.7347 168.647 60.9678 167.744 59.9816L160.874 52.0444C160.802 51.9608 160.748 51.8636 160.714 51.7586C160.68 51.6535 160.667 51.5426 160.677 51.4326C160.702 51.2061 160.814 50.9985 160.989 50.8538L207.333 13.4991C207.501 13.3671 207.712 13.3054 207.924 13.327C208.135 13.3486 208.33 13.4518 208.467 13.6149L215.37 21.5686C217.72 24.5286 217.342 29.3075 214.302 35.0289C210.654 41.3748 205.808 46.9416 200.037 51.416C190.965 58.7249 181.515 62.8093 174.909 62.8093ZM162.682 51.6145L169.009 58.9068C173.068 63.9999 186.791 59.9651 199.001 50.1262C204.603 45.7933 209.309 40.4007 212.855 34.2517C215.518 29.2909 215.978 24.975 214.104 22.6765L207.744 15.3346L162.682 51.6145Z" fill="#231F20"/>
<path d="M192.633 42.8237C205.434 32.5079 212.252 19.6726 207.861 14.1552C203.469 8.63793 189.532 12.5279 176.73 22.8437C163.929 33.1595 157.111 45.9949 161.502 51.5122C165.894 57.0295 179.831 53.1395 192.633 42.8237Z" fill="url(#paint23_linear_2_874)"/>
<path d="M168.006 54.8555C166.68 54.9592 165.347 54.7586 164.109 54.2687C162.87 53.7789 161.759 53.0127 160.857 52.0279C156.108 46.0584 162.862 32.9454 176.207 22.2632C181.802 17.547 188.262 13.9797 195.221 11.7628C201.45 10.0266 206.15 10.688 208.5 13.6314C213.233 19.6009 206.495 32.6973 193.15 43.3961C184.079 50.8207 174.629 54.8555 168.006 54.8555ZM201.351 12.4739C199.426 12.5131 197.514 12.8077 195.665 13.3503C188.924 15.4846 182.665 18.9284 177.242 23.4868C165.015 33.4084 158.113 45.9261 162.139 50.9861C166.166 56.0461 179.905 52.0113 192.115 42.1724C204.326 32.3335 211.244 19.7332 207.218 14.6732C206.466 13.8886 205.548 13.2838 204.533 12.9032C203.517 12.5226 202.43 12.3759 201.351 12.4739Z" fill="#231F20"/>
<path d="M200.283 18.4599L197.21 21.3868C197.013 21.5687 197.013 21.6348 197.21 21.6679C197.797 21.7073 198.365 21.8965 198.859 22.2176C199.354 22.5387 199.759 22.9812 200.036 23.5034C200.464 24.5782 199.938 25.9507 198.557 27.6043L197.341 28.9437L191.967 28.613C192.608 27.9184 193.15 27.257 193.15 26.7279C193.117 26.3529 193.029 25.985 192.888 25.6365H192.74L187.004 31.143L187.382 31.3083C188.364 31.6167 189.272 32.1294 190.044 32.8131C191.211 33.921 190.8 35.5415 188.91 37.625C187.062 39.6274 184.825 41.226 182.337 42.3213C180.51 43.2295 178.532 43.7901 176.503 43.9748C175.451 43.9748 174.498 43.9748 173.479 43.9748L171.375 45.9757L168.088 44.9174L170.159 42.9496C169.718 42.6156 169.301 42.2509 168.91 41.8583C168.56 41.4446 168.343 40.9328 168.291 40.3919C168.238 39.8509 168.351 39.3066 168.614 38.8322C169.24 37.5769 170.099 36.4541 171.145 35.525L174.613 36.1368C173.282 37.6085 172.854 38.766 173.824 39.444L179.477 34.0202C178.968 33.706 178.425 33.4084 177.949 33.0777C177.646 32.9302 177.395 32.6925 177.23 32.3967C177.065 32.1009 176.995 31.7614 177.029 31.4241C177.199 30.4735 177.652 29.5972 178.327 28.9106C179.411 27.6506 180.654 26.5388 182.025 25.6034C184.213 24.0414 186.662 22.8876 189.256 22.197C190.242 21.9324 191.162 21.8167 192.132 21.6348H192.477L195.484 18.7575L200.283 18.4599ZM177.374 40.2377C178.239 40.2773 179.104 40.1482 179.921 39.8574C181.564 39.2952 183.339 37.84 183.504 36.8809C183.668 35.9218 182.978 35.8061 182.468 35.3927L177.374 40.2377ZM188.648 25.19C187.793 25.4381 187.004 25.6034 186.281 25.8845C184.457 26.5625 182.731 28.1169 182.83 28.9437C182.83 29.3902 183.356 29.6051 183.783 29.8366L188.648 25.19Z" fill="white"/>
<path d="M101.546 2.66807L94.2168 10.2085C89.1058 15.07 94.0853 28.7287 105.326 40.7338C116.567 52.7389 129.83 58.5596 134.908 53.7145L142.237 46.1576L101.546 2.66807Z" fill="url(#paint24_linear_2_874)"/>
<path d="M130.06 56.2445C127.328 56.1413 124.645 55.4832 122.172 54.3098C115.606 51.1545 109.717 46.7395 104.834 41.3126C93.0996 28.7783 88.2515 14.8551 93.7734 9.61316L101.087 2.0893C101.16 2.00498 101.251 1.93875 101.354 1.89573C101.456 1.85271 101.567 1.83407 101.678 1.84127C101.902 1.84797 102.115 1.94299 102.27 2.10584L142.977 45.5954C143.123 45.7491 143.204 45.9534 143.204 46.1659C143.204 46.3783 143.123 46.5826 142.977 46.7364L135.648 54.2933C134.111 55.6544 132.105 56.3549 130.06 56.2445ZM101.547 3.85865L94.8088 10.7872C90.0921 15.2685 95.1868 28.7122 105.918 40.1716C110.697 45.4674 116.473 49.7559 122.911 52.7885C128.104 55.0705 132.344 55.1862 134.53 53.1192L141.285 46.1576L101.547 3.85865Z" fill="#231F20"/>
<path d="M142.336 46.1836C147.451 41.3376 142.482 27.6698 131.238 15.6558C119.994 3.64178 106.733 -2.16907 101.619 2.6769C96.5044 7.52287 101.473 21.1906 112.717 33.2046C123.961 45.2187 137.222 51.0295 142.336 46.1836Z" fill="url(#paint25_linear_2_874)"/>
<path d="M137.373 48.7041C130.701 48.7041 120.939 43.1481 112.114 33.8218C100.38 21.2875 95.5318 7.36428 101.054 2.13892C103.782 -0.457225 108.548 -0.457225 114.464 2.13892C121.041 5.29055 126.942 9.70581 131.835 15.1362C136.928 20.3618 140.954 26.5415 143.684 33.3257C145.903 39.4109 145.623 44.1898 142.895 46.786C141.371 48.1203 139.391 48.8079 137.373 48.7041ZM106.559 1.79166C104.968 1.69995 103.403 2.22683 102.188 3.26336C97.4875 7.71153 102.582 21.1553 113.314 32.6312C124.045 44.1071 137.077 50.0105 141.778 45.5623C143.963 43.4953 144.095 39.229 142.156 33.8714C139.5 27.2871 135.592 21.288 130.652 16.211C125.919 10.9357 120.201 6.64863 113.823 3.59408C111.548 2.50322 109.077 1.88995 106.559 1.79166Z" fill="#231F20"/>
<path d="M137.456 38.9148L134.317 36.0707C134.119 35.8722 134.054 35.8888 134.037 36.0707C134.036 36.6661 133.884 37.2515 133.597 37.772C133.309 38.2925 132.895 38.7312 132.394 39.0471C131.375 39.5598 129.945 39.1464 128.203 37.8896C127.743 37.5424 127.283 37.162 126.79 36.7652L126.675 31.3579C127.207 31.9044 127.897 32.2688 128.647 32.3997C129.019 32.3336 129.379 32.2109 129.715 32.0359V31.8871L123.864 26.579C123.808 26.7069 123.764 26.8398 123.733 26.9759C123.499 27.9853 123.062 28.9361 122.451 29.7705C121.449 31.0272 119.805 30.7461 117.521 29.0098C115.395 27.3181 113.633 25.2082 112.344 22.8088C111.325 21.0422 110.634 19.1033 110.306 17.0874C110.158 16.0456 110.109 15.07 110.027 14.0613L107.874 12.1101L108.646 8.72022L110.766 10.6218C111.112 10.1588 111.391 9.66277 111.736 9.28244C112.12 8.90141 112.61 8.64679 113.142 8.55229C113.673 8.4578 114.22 8.52789 114.711 8.75329C116.029 9.26981 117.234 10.0392 118.26 11.0187L117.981 14.5409C116.42 13.3337 115.22 12.9865 114.596 14.0283L120.413 19.2701C120.693 18.7245 120.956 18.1622 121.235 17.6166C121.356 17.3115 121.564 17.0495 121.833 16.864C122.103 16.6784 122.421 16.5778 122.747 16.5748C123.704 16.659 124.611 17.0404 125.344 17.6662C126.682 18.6556 127.892 19.8112 128.943 21.1056C130.653 23.1813 131.988 25.5432 132.887 28.0838C133.232 29.0594 133.413 29.9689 133.676 30.928C133.676 31.0272 133.676 31.143 133.676 31.2752L136.782 34.0533L137.456 38.9148ZM114.053 17.7488C114.085 18.6212 114.28 19.4796 114.628 20.2788C115.319 21.9324 116.896 23.586 117.915 23.586C118.934 23.586 118.951 22.9742 119.312 22.4285L114.053 17.7488ZM129.863 27.8523C129.551 27.009 129.321 26.1987 128.975 25.5373C128.17 23.7679 126.477 22.1474 125.689 22.3293C125.245 22.412 125.081 22.8915 124.883 23.3545L129.863 27.8523Z" fill="white"/>
<path d="M193.578 315.28C187.727 325.086 194.284 346.814 194.284 346.814L202.962 353.164C209.197 356.936 216.665 358.06 223.725 356.291C230.784 354.522 236.856 350.004 240.604 343.73C244.353 337.457 245.471 329.942 243.712 322.839C241.954 315.736 237.463 309.626 231.228 305.855L221.582 301.109C221.582 301.109 199.445 305.474 193.578 315.28Z" fill="url(#paint26_linear_2_874)"/>
<path d="M217.062 357.926C211.949 357.931 206.931 356.53 202.551 353.875L193.808 347.492C193.667 347.384 193.563 347.233 193.512 347.062C193.233 346.153 186.939 324.854 192.888 314.85C198.87 304.929 220.53 300.48 221.45 300.298C221.617 300.25 221.793 300.25 221.96 300.298L231.607 305.044C236.913 308.24 241.03 313.099 243.327 318.876C245.625 324.653 245.974 331.029 244.323 337.025C242.672 343.021 239.111 348.307 234.186 352.071C229.262 355.834 223.246 357.868 217.062 357.86V357.926ZM195.008 346.351L203.455 352.519C209.504 356.102 216.715 357.134 223.517 355.391C230.319 353.648 236.161 349.271 239.771 343.214C243.38 337.156 244.465 329.909 242.788 323.051C241.111 316.193 236.808 310.279 230.818 306.599L221.516 301.985C219.002 302.514 199.576 306.946 194.317 315.71C189.042 324.507 194.301 343.838 195.008 346.318V346.351Z" fill="#231F20"/>
<path d="M211.13 353.495C226.278 353.495 238.558 341.138 238.558 325.896C238.558 310.654 226.278 298.298 211.13 298.298C195.981 298.298 183.701 310.654 183.701 325.896C183.701 341.138 195.981 353.495 211.13 353.495Z" fill="url(#paint27_linear_2_874)"/>
<path d="M211.097 354.321C205.981 354.328 200.961 352.921 196.585 350.254C193.405 348.331 190.633 345.796 188.426 342.795C186.219 339.794 184.622 336.385 183.725 332.763C182.827 329.141 182.648 325.376 183.196 321.684C183.745 317.992 185.011 314.445 186.922 311.245C188.833 308.046 191.352 305.256 194.334 303.036C197.317 300.815 200.705 299.208 204.305 298.305C207.905 297.402 211.646 297.221 215.316 297.773C218.985 298.325 222.51 299.599 225.69 301.522C230.992 304.723 235.104 309.586 237.395 315.365C239.685 321.143 240.029 327.519 238.372 333.512C236.715 339.506 233.15 344.788 228.223 348.547C223.296 352.306 217.28 354.334 211.097 354.321ZM211.179 299.124C204.747 299.12 198.531 301.461 193.683 305.715C188.836 309.968 185.685 315.846 184.814 322.258C183.943 328.671 185.412 335.183 188.948 340.589C192.485 345.995 197.849 349.928 204.046 351.66C210.244 353.391 216.855 352.803 222.655 350.005C228.455 347.208 233.05 342.389 235.59 336.443C238.129 330.497 238.441 323.826 236.467 317.667C234.492 311.507 230.366 306.277 224.852 302.944C220.722 300.449 215.996 299.129 211.179 299.124Z" fill="#231F20"/>
<path d="M195.747 313.263C196.898 313.941 198.032 314.635 199.166 315.33C199.396 315.462 199.511 315.445 199.675 315.247C201.02 313.749 202.714 312.613 204.605 311.94C206.581 311.238 208.743 311.285 210.686 312.072C211.212 312.287 211.738 312.535 212.329 312.783L209.158 318.108C208.346 317.641 207.405 317.455 206.479 317.579C205.772 317.767 205.075 317.993 204.392 318.257V318.405L210.965 322.39L211.458 321.894C212.594 320.644 213.874 319.533 215.271 318.587C216.303 317.844 217.516 317.396 218.78 317.291C220.045 317.186 221.314 317.429 222.453 317.992C224.666 318.9 226.436 320.646 227.383 322.854C228.164 324.654 228.359 326.656 227.942 328.575C227.695 329.749 227.301 330.923 226.956 332.147L229.536 333.701L226.611 338.662L223.965 337.008C223.11 337.835 222.321 338.662 221.483 339.389C219.851 340.829 217.784 341.674 215.616 341.787C213.752 341.833 211.916 341.321 210.341 340.315L213.48 335.074C214.403 335.585 215.469 335.777 216.512 335.619C217.554 335.46 218.516 334.961 219.248 334.197L212.165 329.931C211.294 330.741 210.522 331.584 209.536 332.378C208.502 333.384 207.237 334.116 205.854 334.511C204.425 334.867 202.921 334.769 201.549 334.23C199.853 333.617 198.354 332.555 197.21 331.155C196.394 330.139 195.811 328.953 195.504 327.684C195.198 326.414 195.174 325.092 195.435 323.813C195.673 322.777 195.97 321.755 196.323 320.753C196.323 320.638 196.323 320.538 196.454 320.39L192.904 318.24L195.747 313.263ZM222.174 329.236C222.551 328.363 222.676 327.4 222.535 326.458C222.388 325.665 221.958 324.952 221.325 324.456C220.692 323.959 219.901 323.713 219.1 323.763C217.96 324.082 216.927 324.705 216.109 325.565L222.174 329.236ZM200.809 323.052C200.692 323.862 200.637 324.68 200.645 325.499C200.681 325.942 200.813 326.372 201.032 326.759C201.25 327.145 201.55 327.479 201.91 327.737C202.269 327.995 202.681 328.172 203.115 328.253C203.55 328.335 203.996 328.321 204.425 328.211C205.296 327.832 206.075 327.268 206.709 326.558L200.809 323.052Z" fill="white"/>
<path d="M97.4052 309.641C86.2628 307.359 68.0702 320.803 68.0702 320.803L65.0135 331.138C64.2894 334.688 64.2674 338.348 64.9488 341.907C65.6302 345.466 67.0016 348.855 68.9847 351.88C70.9678 354.906 73.5238 357.509 76.5067 359.541C79.4896 361.573 82.8411 362.994 86.3697 363.722C93.496 365.193 100.911 363.756 106.984 359.726C113.058 355.696 117.291 349.404 118.753 342.234L120.002 331.518C120.002 331.518 108.531 311.94 97.4052 309.641Z" fill="url(#paint28_linear_2_874)"/>
<path d="M91.9491 365.119C87.7521 365.127 83.606 364.193 79.8121 362.387C76.0182 360.581 72.6716 357.948 70.0153 354.678C67.359 351.408 65.4596 347.585 64.4552 343.484C63.4507 339.384 63.3664 335.11 64.2083 330.973L67.2814 320.572C67.3306 320.395 67.4415 320.242 67.5937 320.142C68.3497 319.579 86.2136 306.499 97.5696 308.831C108.926 311.179 120.232 330.328 120.709 331.088C120.789 331.247 120.823 331.424 120.808 331.601L119.575 342.333C118.287 348.753 114.833 354.529 109.799 358.681C104.764 362.833 98.4588 365.108 91.9491 365.119ZM68.777 321.299L65.8024 331.386C64.3945 338.348 65.7931 345.588 69.6902 351.513C73.5874 357.437 79.6641 361.561 86.5834 362.978C93.5027 364.395 100.698 362.987 106.586 359.066C112.474 355.145 116.573 349.03 117.981 342.068L119.181 331.7C117.849 329.484 107.266 312.519 97.2738 310.452C87.2489 308.401 70.8805 319.811 68.777 321.299Z" fill="#231F20"/>
<path d="M93.2802 357.414C108.429 357.414 120.709 345.057 120.709 329.815C120.709 314.573 108.429 302.217 93.2802 302.217C78.1318 302.217 65.8516 314.573 65.8516 329.815C65.8516 345.057 78.1318 357.414 93.2802 357.414Z" fill="url(#paint29_linear_2_874)"/>
<path d="M93.3295 358.257C89.3435 358.317 85.3898 357.529 81.7281 355.943C78.0665 354.357 74.7796 352.01 72.0833 349.055C69.387 346.101 67.3424 342.606 66.0835 338.8C64.8247 334.994 64.3802 330.963 64.7791 326.972C65.1781 322.981 66.4116 319.12 68.3985 315.642C70.3855 312.165 73.081 309.15 76.3081 306.795C79.5351 304.44 83.2208 302.798 87.123 301.978C91.0252 301.157 95.0558 301.177 98.95 302.035C106.291 303.552 112.733 307.94 116.86 314.235C120.986 320.529 122.459 328.215 120.955 335.603C119.626 341.992 116.157 347.728 111.129 351.851C106.1 355.975 99.8167 358.236 93.3295 358.257ZM93.2145 303.043C88.187 303.061 83.2673 304.511 79.0253 307.226C74.7833 309.941 71.3927 313.81 69.2461 318.385C67.0996 322.959 66.2851 328.052 66.8969 333.073C67.5088 338.094 69.5219 342.838 72.7031 346.755C75.8843 350.672 80.1034 353.602 84.8717 355.206C89.6399 356.81 94.7621 357.021 99.6449 355.816C104.528 354.611 108.971 352.038 112.461 348.396C115.95 344.755 118.343 340.193 119.361 335.239L120.167 335.404L119.361 335.239C120.773 328.282 119.384 321.045 115.499 315.118C111.614 309.19 105.549 305.056 98.6377 303.622C96.8588 303.25 95.0477 303.056 93.2309 303.043H93.2145Z" fill="#231F20"/>
<path d="M100.018 311.014C99.7554 312.337 99.4924 313.643 99.213 314.949C99.213 315.214 99.213 315.313 99.4431 315.412C101.289 316.169 102.917 317.38 104.176 318.934C105.492 320.577 106.164 322.648 106.066 324.755C106.066 325.317 105.984 325.896 105.935 326.508L99.9033 325.317C100.082 324.4 99.943 323.449 99.5088 322.622C99.105 322.003 98.6603 321.412 98.1777 320.853H98.0627L96.5178 328.443L97.1423 328.724C98.7121 329.388 100.201 330.231 101.58 331.237C102.618 331.969 103.438 332.971 103.954 334.136C104.469 335.301 104.66 336.586 104.505 337.852C104.385 340.247 103.342 342.502 101.596 344.135C100.167 345.472 98.3555 346.322 96.4192 346.566C95.2195 346.715 94.0034 346.731 92.738 346.814L92.1463 349.774L86.5752 348.617L87.1997 345.574C86.1479 345.045 85.1125 344.582 84.1429 344.02C82.2508 342.955 80.7734 341.276 79.9522 339.257C79.2859 337.5 79.1543 335.583 79.5742 333.751L85.5234 334.991C85.3544 336.039 85.5313 337.114 86.0269 338.052C86.5225 338.99 87.3096 339.738 88.2679 340.183C88.8266 337.438 89.369 334.743 89.9113 332.031C88.8431 331.485 87.7748 330.94 86.7231 330.377C85.4166 329.731 84.2879 328.771 83.4362 327.583C82.6207 326.353 82.2176 324.893 82.2858 323.416C82.2864 321.602 82.7809 319.824 83.7156 318.273C84.3967 317.159 85.3143 316.211 86.4025 315.497C87.4907 314.782 88.7226 314.318 90.0099 314.139C91.0572 314.018 92.1111 313.962 93.1653 313.974H93.5433L94.3814 309.889L100.018 311.014ZM93.8391 341.407C94.7793 341.479 95.7204 341.278 96.5507 340.828C97.2478 340.424 97.7733 339.776 98.0278 339.008C98.2822 338.24 98.2478 337.405 97.9312 336.661C97.2586 335.684 96.3319 334.912 95.2524 334.429L93.8391 341.407ZM92.5572 319.149C91.7535 319.312 90.9626 319.533 90.1907 319.811C89.7888 319.993 89.4312 320.262 89.1426 320.597C88.8541 320.932 88.6414 321.327 88.5195 321.753C88.3976 322.179 88.3692 322.627 88.4364 323.066C88.5037 323.504 88.6648 323.923 88.9088 324.292C89.5433 324.995 90.3154 325.558 91.1767 325.946L92.5572 319.149Z" fill="white"/>
<path d="M178.212 105.985C175.352 98.0143 170.208 86.7699 163.043 82.8343C151.539 76.6333 127.019 85.4801 127.019 85.4801L120.281 95.8977C118.648 98.9992 117.537 102.352 116.995 105.819L178.212 105.985Z" fill="url(#paint30_linear_2_874)"/>
<path d="M178.212 106.811H116.962C116.844 106.814 116.727 106.79 116.619 106.741C116.511 106.692 116.415 106.62 116.337 106.53C116.258 106.439 116.2 106.33 116.169 106.213C116.137 106.095 116.133 105.972 116.157 105.852C116.731 102.258 117.904 98.7863 119.624 95.5835L126.395 85.1163C126.496 84.9675 126.64 84.8524 126.806 84.7856C127.825 84.4218 151.77 75.8727 163.487 82.1894C170.767 86.0919 175.977 97.0718 179.05 105.704C179.095 105.828 179.109 105.962 179.092 106.094C179.075 106.225 179.026 106.351 178.95 106.459C178.874 106.568 178.774 106.657 178.657 106.718C178.54 106.779 178.41 106.811 178.278 106.811H178.212ZM117.932 105.158H177.095C174.087 97.0387 169.239 87.1502 162.715 83.6611C152.246 78.0389 130.257 85.3147 127.628 86.2738L121.054 96.4434C119.597 99.1747 118.561 102.113 117.981 105.158H117.932Z" fill="#231F20"/>
<path d="M183.438 105.985C183.751 101.629 183.168 97.2558 181.727 93.137C180.285 89.0182 178.016 85.2425 175.06 82.0455C172.104 78.8484 168.524 76.2985 164.546 74.555C160.567 72.8114 156.273 71.9116 151.934 71.9116C147.594 71.9116 143.301 72.8114 139.322 74.555C135.343 76.2985 131.764 78.8484 128.808 82.0455C125.852 85.2425 123.582 89.0182 122.141 93.137C120.699 97.2558 120.117 101.629 120.429 105.985H183.438Z" fill="url(#paint31_linear_2_874)"/>
<path d="M183.438 106.811H120.429C120.222 106.812 120.023 106.734 119.87 106.593C119.718 106.452 119.624 106.258 119.608 106.051C119.291 101.584 119.892 97.1002 121.373 92.8777C122.854 88.6551 125.183 84.7848 128.216 81.5078C131.249 78.2308 134.92 75.6174 139 73.8304C143.081 72.0435 147.483 71.1213 151.934 71.1213C156.384 71.1213 160.786 72.0435 164.867 73.8304C168.947 75.6174 172.618 78.2308 175.651 81.5078C178.684 84.7848 181.013 88.6551 182.494 92.8777C183.975 97.1002 184.576 101.584 184.26 106.051C184.243 106.258 184.149 106.452 183.997 106.593C183.844 106.734 183.645 106.812 183.438 106.811ZM121.202 105.158H182.665C182.858 100.977 182.205 96.7999 180.748 92.8797C179.29 88.9596 177.057 85.3776 174.185 82.3504C171.312 79.3231 167.859 76.9135 164.034 75.2672C160.21 73.6209 156.093 72.772 151.934 72.772C147.774 72.772 143.657 73.6209 139.833 75.2672C136.008 76.9135 132.555 79.3231 129.683 82.3504C126.81 85.3776 124.577 88.9596 123.12 92.8797C121.662 96.7999 121.009 100.977 121.202 105.158Z" fill="#231F20"/>
<path d="M144.506 102.264C145.475 103.256 146.478 104.199 147.48 105.174L147.037 105.985H158.771C158.047 105.257 157.308 104.563 156.519 103.901L155.927 103.372L160.102 95.4678H160.266C160.61 96.2424 160.907 97.0376 161.154 97.849C161.359 98.9059 161.203 100.002 160.71 100.958L166.988 104.265C167.234 103.62 167.497 103.008 167.694 102.38C168.502 100.089 168.431 97.5772 167.497 95.3355C166.621 93.2024 165.225 91.3257 163.438 89.8786C163.208 89.6802 163.175 89.5479 163.306 89.2999C164.046 87.9439 164.769 86.5715 165.492 85.2155L159.707 82.239L157.423 86.4226L157.012 86.3069C155.845 85.9507 154.66 85.6581 153.462 85.4305C151.982 85.2099 150.471 85.3192 149.037 85.7506C147.603 86.1821 146.28 86.9252 145.163 87.9274C143.609 89.3236 142.471 91.127 141.876 93.1362C141.327 94.7393 141.299 96.4764 141.794 98.097C142.339 99.6913 143.271 101.124 144.506 102.264ZM151.77 91.7637C152.711 91.6987 153.655 91.6987 154.596 91.7637C153.298 94.1945 152.082 96.4765 150.866 98.7915C150.034 98.0948 149.362 97.2263 148.894 96.245C148.752 95.7592 148.716 95.2484 148.788 94.7474C148.86 94.2464 149.039 93.7669 149.312 93.3416C149.585 92.9163 149.945 92.5552 150.37 92.2829C150.794 92.0106 151.271 91.8335 151.77 91.7637Z" fill="white"/>
<path d="M192.822 106.811H110.257C110.039 106.811 109.83 106.724 109.676 106.569C109.522 106.414 109.435 106.204 109.435 105.985C109.435 105.765 109.522 105.555 109.676 105.4C109.83 105.245 110.039 105.158 110.257 105.158H192.822C193.04 105.158 193.249 105.245 193.403 105.4C193.557 105.555 193.644 105.765 193.644 105.985C193.644 106.204 193.557 106.414 193.403 106.569C193.249 106.724 193.04 106.811 192.822 106.811Z" fill="#231F20"/>
</g>
<defs>
<linearGradient id="paint0_linear_2_874" x1="128.699" y1="288.6" x2="185.399" y2="291.639" gradientUnits="userSpaceOnUse">
<stop stop-color="#C61E36"/>
<stop offset="1" stop-color="#4665D3"/>
</linearGradient>
<linearGradient id="paint1_linear_2_874" x1="121.152" y1="285.713" x2="179.41" y2="288.968" gradientUnits="userSpaceOnUse">
<stop stop-color="#C61E36"/>
<stop offset="1" stop-color="#4665D3"/>
</linearGradient>
<linearGradient id="paint2_linear_2_874" x1="143.267" y1="141.24" x2="199.92" y2="144.337" gradientUnits="userSpaceOnUse">
<stop stop-color="#C61E36"/>
<stop offset="1" stop-color="#4665D3"/>
</linearGradient>
<linearGradient id="paint3_linear_2_874" x1="136.42" y1="136.377" x2="194.678" y2="139.632" gradientUnits="userSpaceOnUse">
<stop stop-color="#C61E36"/>
<stop offset="1" stop-color="#4665D3"/>
</linearGradient>
<linearGradient id="paint4_linear_2_874" x1="77.5693" y1="334.73" x2="138.559" y2="343.083" gradientUnits="userSpaceOnUse">
<stop stop-color="#C61E36"/>
<stop offset="1" stop-color="#4665D3"/>
</linearGradient>
<linearGradient id="paint5_linear_2_874" x1="84.4385" y1="315.266" x2="145.427" y2="323.624" gradientUnits="userSpaceOnUse">
<stop stop-color="#C61E36"/>
<stop offset="1" stop-color="#4665D3"/>
</linearGradient>
<linearGradient id="paint6_linear_2_874" x1="78.5386" y1="293.557" x2="139.53" y2="301.904" gradientUnits="userSpaceOnUse">
<stop stop-color="#C61E36"/>
<stop offset="1" stop-color="#4665D3"/>
</linearGradient>
<linearGradient id="paint7_linear_2_874" x1="154.333" y1="332.25" x2="215.323" y2="340.602" gradientUnits="userSpaceOnUse">
<stop stop-color="#C61E36"/>
<stop offset="1" stop-color="#4665D3"/>
</linearGradient>
<linearGradient id="paint8_linear_2_874" x1="150.537" y1="315.416" x2="211.527" y2="323.769" gradientUnits="userSpaceOnUse">
<stop stop-color="#C61E36"/>
<stop offset="1" stop-color="#4665D3"/>
</linearGradient>
<linearGradient id="paint9_linear_2_874" x1="155.237" y1="294.912" x2="216.227" y2="303.264" gradientUnits="userSpaceOnUse">
<stop stop-color="#C61E36"/>
<stop offset="1" stop-color="#4665D3"/>
</linearGradient>
<linearGradient id="paint10_linear_2_874" x1="150.537" y1="274.324" x2="211.527" y2="282.677" gradientUnits="userSpaceOnUse">
<stop stop-color="#C61E36"/>
<stop offset="1" stop-color="#4665D3"/>
</linearGradient>
<linearGradient id="paint11_linear_2_874" x1="159.937" y1="257.489" x2="220.892" y2="265.838" gradientUnits="userSpaceOnUse">
<stop stop-color="#C61E36"/>
<stop offset="1" stop-color="#4665D3"/>
</linearGradient>
<linearGradient id="paint12_linear_2_874" x1="153.544" y1="240.657" x2="214.535" y2="249.01" gradientUnits="userSpaceOnUse">
<stop stop-color="#C61E36"/>
<stop offset="1" stop-color="#4665D3"/>
</linearGradient>
<linearGradient id="paint13_linear_2_874" x1="153.544" y1="230.488" x2="213.95" y2="240.654" gradientUnits="userSpaceOnUse">
<stop stop-color="#C61E36"/>
<stop offset="1" stop-color="#4665D3"/>
</linearGradient>
<linearGradient id="paint14_linear_2_874" x1="121.399" y1="348.99" x2="184.362" y2="357.879" gradientUnits="userSpaceOnUse">
<stop stop-color="#C61E36"/>
<stop offset="1" stop-color="#4665D3"/>
</linearGradient>
<linearGradient id="paint15_linear_2_874" x1="121.187" y1="337.427" x2="183.816" y2="344.411" gradientUnits="userSpaceOnUse">
<stop stop-color="#C61E36"/>
<stop offset="1" stop-color="#4665D3"/>
</linearGradient>
<linearGradient id="paint16_linear_2_874" x1="168.771" y1="226.059" x2="232.151" y2="232.745" gradientUnits="userSpaceOnUse">
<stop stop-color="#C61E36"/>
<stop offset="1" stop-color="#4665D3"/>
</linearGradient>
<linearGradient id="paint17_linear_2_874" x1="173.535" y1="236.876" x2="180.828" y2="210.474" gradientUnits="userSpaceOnUse">
<stop stop-color="#C61E36"/>
<stop offset="1" stop-color="#4665D3"/>
</linearGradient>
<linearGradient id="paint18_linear_2_874" x1="99.7881" y1="198.266" x2="148.028" y2="200.45" gradientUnits="userSpaceOnUse">
<stop stop-color="#C61E36"/>
<stop offset="1" stop-color="#4665D3"/>
</linearGradient>
<linearGradient id="paint19_linear_2_874" x1="91.2201" y1="236.764" x2="133.191" y2="189.472" gradientUnits="userSpaceOnUse">
<stop stop-color="#C61E36"/>
<stop offset="1" stop-color="#4665D3"/>
</linearGradient>
<linearGradient id="paint20_linear_2_874" x1="78.0786" y1="275.589" x2="141.044" y2="284.472" gradientUnits="userSpaceOnUse">
<stop stop-color="#C61E36"/>
<stop offset="1" stop-color="#4665D3"/>
</linearGradient>
<linearGradient id="paint21_linear_2_874" x1="77.876" y1="264.024" x2="140.505" y2="271.008" gradientUnits="userSpaceOnUse">
<stop stop-color="#C61E36"/>
<stop offset="1" stop-color="#4665D3"/>
</linearGradient>
<linearGradient id="paint22_linear_2_874" x1="161.499" y1="18.7425" x2="219.404" y2="22.4579" gradientUnits="userSpaceOnUse">
<stop stop-color="#C61E36"/>
<stop offset="1" stop-color="#4665D3"/>
</linearGradient>
<linearGradient id="paint23_linear_2_874" x1="155.08" y1="43.4433" x2="208.911" y2="11.0274" gradientUnits="userSpaceOnUse">
<stop stop-color="#C61E36"/>
<stop offset="1" stop-color="#4665D3"/>
</linearGradient>
<linearGradient id="paint24_linear_2_874" x1="92.208" y1="7.74054" x2="145.354" y2="10.5742" gradientUnits="userSpaceOnUse">
<stop stop-color="#C61E36"/>
<stop offset="1" stop-color="#4665D3"/>
</linearGradient>
<linearGradient id="paint25_linear_2_874" x1="96.2736" y1="15.6346" x2="116.551" y2="-2.44719" gradientUnits="userSpaceOnUse">
<stop stop-color="#C61E36"/>
<stop offset="1" stop-color="#4665D3"/>
</linearGradient>
<linearGradient id="paint26_linear_2_874" x1="191.149" y1="306.493" x2="247.849" y2="309.532" gradientUnits="userSpaceOnUse">
<stop stop-color="#C61E36"/>
<stop offset="1" stop-color="#4665D3"/>
</linearGradient>
<linearGradient id="paint27_linear_2_874" x1="183.701" y1="303.605" x2="241.959" y2="306.86" gradientUnits="userSpaceOnUse">
<stop stop-color="#C61E36"/>
<stop offset="1" stop-color="#4665D3"/>
</linearGradient>
<linearGradient id="paint28_linear_2_874" x1="64.4536" y1="314.66" x2="123.439" y2="318.015" gradientUnits="userSpaceOnUse">
<stop stop-color="#C61E36"/>
<stop offset="1" stop-color="#4665D3"/>
</linearGradient>
<linearGradient id="paint29_linear_2_874" x1="65.8516" y1="307.524" x2="124.11" y2="310.779" gradientUnits="userSpaceOnUse">
<stop stop-color="#C61E36"/>
<stop offset="1" stop-color="#4665D3"/>
</linearGradient>
<linearGradient id="paint30_linear_2_874" x1="116.995" y1="83.0673" x2="181.03" y2="91.7596" gradientUnits="userSpaceOnUse">
<stop stop-color="#C61E36"/>
<stop offset="1" stop-color="#4665D3"/>
</linearGradient>
<linearGradient id="paint31_linear_2_874" x1="120.347" y1="75.1878" x2="186.922" y2="82.1276" gradientUnits="userSpaceOnUse">
<stop stop-color="#C61E36"/>
<stop offset="1" stop-color="#4665D3"/>
</linearGradient>
<clipPath id="clip0_2_874">
<rect width="257" height="383" fill="white"/>
</clipPath>
</defs>
</svg>
