<svg width="407" height="311" viewBox="0 0 407 311" fill="none" xmlns="http://www.w3.org/2000/svg">
<g clip-path="url(#clip0_2_805)">
<path d="M351.04 304.187C363.387 304.187 373.396 301.588 373.396 298.382C373.396 295.176 363.387 292.577 351.04 292.577C338.693 292.577 328.684 295.176 328.684 298.382C328.684 301.588 338.693 304.187 351.04 304.187Z" fill="#D1D3D4"/>
<path d="M60.8183 311.044C91.5566 311.044 116.475 307.442 116.475 302.999C116.475 298.555 91.5566 294.953 60.8183 294.953C30.08 294.953 5.16162 298.555 5.16162 302.999C5.16162 307.442 30.08 311.044 60.8183 311.044Z" fill="#D1D3D4"/>
<path d="M208.549 286.066C257.03 286.066 296.332 282.659 296.332 278.456C296.332 274.254 257.03 270.847 208.549 270.847C160.067 270.847 120.766 274.254 120.766 278.456C120.766 282.659 160.067 286.066 208.549 286.066Z" fill="#D1D3D4"/>
<path d="M254.164 228.965H162.918V266.997H254.164V228.965Z" fill="white"/>
<path d="M254.164 267.689H162.918C162.736 267.685 162.562 267.611 162.433 267.482C162.304 267.353 162.229 267.179 162.226 266.997V228.965C162.229 228.783 162.304 228.609 162.433 228.48C162.562 228.352 162.736 228.277 162.918 228.274H254.164C254.346 228.277 254.52 228.352 254.649 228.48C254.778 228.609 254.852 228.783 254.856 228.965V266.997C254.852 267.179 254.778 267.353 254.649 267.482C254.52 267.611 254.346 267.685 254.164 267.689ZM163.671 266.305H253.531V229.657H163.671V266.305Z" fill="#231F20"/>
<path d="M279.667 266.366H137.431C133.972 266.366 131.168 269.166 131.168 272.622C131.168 276.077 133.972 278.877 137.431 278.877H279.667C283.125 278.877 285.929 276.077 285.929 272.622C285.929 269.166 283.125 266.366 279.667 266.366Z" fill="white"/>
<path d="M279.591 279.569H137.431C136.491 279.613 135.553 279.466 134.672 279.137C133.791 278.808 132.986 278.303 132.305 277.655C131.625 277.006 131.083 276.226 130.713 275.362C130.343 274.498 130.152 273.569 130.152 272.629C130.152 271.689 130.343 270.76 130.713 269.896C131.083 269.032 131.625 268.252 132.305 267.603C132.986 266.954 133.791 266.45 134.672 266.121C135.553 265.792 136.491 265.645 137.431 265.689H279.591C280.531 265.645 281.469 265.792 282.35 266.121C283.231 266.45 284.037 266.954 284.717 267.603C285.397 268.252 285.939 269.032 286.309 269.896C286.679 270.76 286.87 271.689 286.87 272.629C286.87 273.569 286.679 274.498 286.309 275.362C285.939 276.226 285.397 277.006 284.717 277.655C284.037 278.303 283.231 278.808 282.35 279.137C281.469 279.466 280.531 279.613 279.591 279.569ZM137.371 267.057C135.894 267.057 134.477 267.644 133.432 268.687C132.387 269.73 131.801 271.146 131.801 272.621C131.801 274.097 132.387 275.512 133.432 276.556C134.477 277.599 135.894 278.186 137.371 278.186H279.591C281.068 278.186 282.485 277.599 283.53 276.556C284.574 275.512 285.161 274.097 285.161 272.621C285.161 271.146 284.574 269.73 283.53 268.687C282.485 267.644 281.068 267.057 279.591 267.057H137.371Z" fill="#231F20"/>
<path d="M254.164 228.965V233.101C226.298 235.928 181.902 247.147 162.918 252.169V228.965H254.164Z" fill="#231F20"/>
<path d="M162.918 252.831C162.772 252.832 162.629 252.785 162.512 252.696C162.433 252.632 162.37 252.552 162.325 252.461C162.281 252.37 162.257 252.27 162.256 252.169V228.965C162.256 228.79 162.326 228.621 162.45 228.497C162.574 228.373 162.743 228.304 162.918 228.304H254.164C254.34 228.304 254.508 228.373 254.632 228.497C254.756 228.621 254.826 228.79 254.826 228.965V233.101C254.827 233.264 254.768 233.422 254.66 233.544C254.551 233.666 254.401 233.744 254.239 233.762C226.223 236.605 181.164 248.019 163.084 252.801L162.918 252.831ZM163.581 229.627V251.297C182.068 246.425 225.786 235.417 253.501 232.514V229.627H163.581Z" fill="#231F20"/>
<path d="M386.9 5.67682H30.1822C21.8928 5.67682 15.1729 12.3895 15.1729 20.67V214.047C15.1729 222.328 21.8928 229.041 30.1822 229.041H386.9C395.189 229.041 401.909 222.328 401.909 214.047V20.67C401.909 12.3895 395.189 5.67682 386.9 5.67682Z" fill="white"/>
<path d="M386.9 229.732H30.1824C26.0192 229.728 22.0277 228.074 19.0838 225.134C16.14 222.193 14.4845 218.206 14.4805 214.047V20.6849C14.4845 16.5263 16.14 12.539 19.0838 9.59841C22.0277 6.65778 26.0192 5.00398 30.1824 5H386.975C391.125 5.02382 395.097 6.68637 398.025 9.62486C400.953 12.5634 402.598 16.5392 402.602 20.6849V214.047C402.598 218.206 400.942 222.193 397.998 225.134C395.055 228.074 391.063 229.728 386.9 229.732ZM30.1824 6.39856C26.3839 6.40255 22.7424 7.91264 20.0579 10.5971C17.3734 13.2815 15.8655 16.9207 15.8655 20.715V214.047C15.8655 217.842 17.3734 221.481 20.0579 224.165C22.7424 226.85 26.3839 228.36 30.1824 228.364H386.975C390.774 228.36 394.415 226.85 397.1 224.165C399.784 221.481 401.292 217.842 401.292 214.047V20.6849C401.288 18.8023 400.912 16.939 400.187 15.2016C399.461 13.4642 398.399 11.8868 397.062 10.5598C395.726 9.2328 394.14 8.1822 392.396 7.46816C390.652 6.75412 388.784 6.39065 386.9 6.39856H30.1824Z" fill="#231F20"/>
<path d="M397.182 35.3624H16.1364C15.9539 35.3585 15.78 35.2844 15.6509 35.1555C15.5219 35.0266 15.4477 34.8529 15.4438 34.6706C15.4478 34.4898 15.5225 34.3177 15.6519 34.1912C15.7814 34.0647 15.9553 33.9939 16.1364 33.9939H397.182C397.362 33.9939 397.534 34.0652 397.661 34.1921C397.788 34.319 397.859 34.4911 397.859 34.6706C397.859 34.8515 397.789 35.0252 397.662 35.1545C397.535 35.2838 397.363 35.3585 397.182 35.3624Z" fill="#231F20"/>
<path d="M209.362 205.671H207.691C207.119 205.37 206.562 205.039 205.974 204.784C180.141 193.054 160.314 175.97 147.262 152.992C140.911 141.813 136.502 129.64 134.224 116.99C132.92 109.905 132.385 102.7 132.629 95.5005C132.629 94.3726 133.095 93.8463 134.375 93.6358C136.181 93.335 137.973 92.8989 139.734 92.4327C148.526 90.0266 155.587 85.6053 160.239 78.4321C163.71 73.1361 165.354 66.852 164.921 60.5365C164.845 59.4537 165.177 59.0327 166.426 58.777C174.616 57.4536 182.76 55.9348 190.965 54.6715C200.412 53.0367 210.047 52.7784 219.569 53.9046C230.001 55.3182 240.359 57.213 250.747 58.8372C251.861 59.0176 252.026 59.4688 252.056 60.341C252.005 62.6685 252.136 64.9965 252.448 67.3037C253.12 71.2192 254.563 74.9629 256.692 78.3184C258.821 81.6739 261.595 84.5747 264.853 86.8535C269.991 90.3598 275.85 92.6722 282 93.6207C283.972 93.9816 284.394 94.7787 284.439 96.3878C284.741 107.676 283.169 118.937 279.787 129.713C270.754 159.067 252.026 182.211 223.016 198.693C218.605 201.205 213.923 203.4 209.362 205.671Z" fill="url(#paint0_linear_2_805)"/>
<path d="M239.968 110.133H177.115C170.763 110.133 165.613 115.277 165.613 121.622V153.338C165.613 159.683 170.763 164.827 177.115 164.827H239.968C246.32 164.827 251.469 159.683 251.469 153.338V121.622C251.469 115.277 246.32 110.133 239.968 110.133Z" fill="white"/>
<path d="M230.001 119.908H187.081C186.282 119.908 185.516 119.591 184.952 119.027C184.387 118.463 184.07 117.698 184.07 116.9V99.8916C184.228 93.5134 186.876 87.4497 191.448 82.9945C196.02 78.5394 202.154 76.0457 208.541 76.0457C214.928 76.0457 221.062 78.5394 225.634 82.9945C230.206 87.4497 232.854 93.5134 233.012 99.8916V116.9C233.012 117.698 232.695 118.463 232.13 119.027C231.566 119.591 230.8 119.908 230.001 119.908ZM190.092 113.892H226.99V99.8916C226.853 95.0949 224.849 90.5407 221.404 87.1964C217.959 83.852 213.345 81.9811 208.541 81.9811C203.737 81.9811 199.123 83.852 195.678 87.1964C192.233 90.5407 190.229 95.0949 190.092 99.8916V113.892Z" fill="white"/>
<path d="M208.549 137.187C213.089 137.187 216.769 133.511 216.769 128.976C216.769 124.441 213.089 120.765 208.549 120.765C204.009 120.765 200.329 124.441 200.329 128.976C200.329 133.511 204.009 137.187 208.549 137.187Z" fill="url(#paint1_linear_2_805)"/>
<path d="M210.837 130.555H206.245V149.683H210.837V130.555Z" fill="url(#paint2_linear_2_805)"/>
<path d="M35.1956 26.61C37.9809 26.61 40.2389 24.3545 40.2389 21.5722C40.2389 18.7898 37.9809 16.5343 35.1956 16.5343C32.4103 16.5343 30.1523 18.7898 30.1523 21.5722C30.1523 24.3545 32.4103 26.61 35.1956 26.61Z" fill="url(#paint3_linear_2_805)"/>
<path d="M52.8245 26.61C55.6099 26.61 57.8678 24.3545 57.8678 21.5722C57.8678 18.7898 55.6099 16.5343 52.8245 16.5343C50.0392 16.5343 47.7812 18.7898 47.7812 21.5722C47.7812 24.3545 50.0392 26.61 52.8245 26.61Z" fill="#D1D3D4"/>
<path d="M70.4534 26.61C73.2387 26.61 75.4967 24.3545 75.4967 21.5722C75.4967 18.7898 73.2387 16.5343 70.4534 16.5343C67.6681 16.5343 65.4102 18.7898 65.4102 21.5722C65.4102 24.3545 67.6681 26.61 70.4534 26.61Z" fill="#D1D3D4"/>
<path d="M273.735 201.566C273.598 201.573 273.461 201.538 273.344 201.467C273.227 201.395 273.134 201.289 273.079 201.163C273.023 201.037 273.007 200.898 273.033 200.763C273.059 200.628 273.125 200.504 273.223 200.408L369.919 98.5382C370.048 98.4088 370.224 98.336 370.408 98.336C370.591 98.336 370.767 98.4088 370.897 98.5382C371.023 98.6698 371.093 98.8449 371.093 99.027C371.093 99.2091 371.023 99.3842 370.897 99.5157L274.277 201.385C274.204 201.451 274.118 201.501 274.025 201.532C273.932 201.563 273.833 201.575 273.735 201.566Z" fill="#D1D3D4"/>
<path d="M101.947 87.3045C101.809 87.3044 101.675 87.2632 101.561 87.1862C101.446 87.1092 101.358 87 101.306 86.8724C101.254 86.7449 101.242 86.6048 101.27 86.4702C101.299 86.3355 101.367 86.2123 101.465 86.1165L142.594 45.7988C142.658 45.7328 142.734 45.6804 142.818 45.6445C142.902 45.6086 142.992 45.5901 143.084 45.5901C143.175 45.5901 143.266 45.6086 143.35 45.6445C143.434 45.6804 143.51 45.7328 143.573 45.7988C143.703 45.9285 143.775 46.1043 143.775 46.2876C143.775 46.4708 143.703 46.6466 143.573 46.7763L102.414 87.094C102.355 87.1596 102.283 87.2123 102.203 87.2485C102.122 87.2848 102.035 87.3039 101.947 87.3045Z" fill="#D1D3D4"/>
<path d="M307.728 112.328C307.639 112.33 307.55 112.313 307.467 112.28C307.384 112.246 307.309 112.196 307.246 112.133C307.117 112.003 307.044 111.827 307.044 111.644C307.044 111.461 307.117 111.285 307.246 111.155L355.541 60.8222C355.668 60.6942 355.841 60.6208 356.021 60.6176C356.201 60.6145 356.376 60.6818 356.507 60.8053C356.639 60.9288 356.717 61.0987 356.725 61.2788C356.733 61.4589 356.67 61.635 356.55 61.7696L308.195 112.118C308.071 112.244 307.905 112.319 307.728 112.328Z" fill="#D1D3D4"/>
<path d="M19.7044 200.092L20.8335 207.611C20.8335 207.611 25.3499 209.626 25.5908 210.889C25.8316 212.153 27.0962 215.641 26.7951 216.634C26.1478 218.303 23.9799 217.702 23.9799 217.702C24.229 218.684 24.2953 219.703 24.1756 220.709C23.8595 221.386 13.6374 222.213 12.132 220.108C10.6265 218.002 7.23926 196.212 7.23926 196.212" fill="white"/>
<path d="M18.1688 222.138C15.6246 222.138 12.4782 221.852 11.5147 220.529C9.93399 218.378 6.8478 198.573 6.50155 196.332C6.48658 196.243 6.48959 196.152 6.51039 196.064C6.53119 195.976 6.56937 195.894 6.62267 195.821C6.67598 195.748 6.74334 195.687 6.82078 195.64C6.89822 195.594 6.98419 195.563 7.07363 195.55C7.16272 195.535 7.25391 195.538 7.34183 195.559C7.42975 195.58 7.51261 195.618 7.58556 195.671C7.6585 195.724 7.72003 195.792 7.76656 195.869C7.81308 195.946 7.84365 196.032 7.85646 196.122C9.15115 204.498 11.59 218.303 12.6287 219.717C13.6675 221.13 22.0529 220.8 23.5734 220.288C23.584 219.494 23.4981 218.701 23.3175 217.927C23.292 217.812 23.2967 217.692 23.3309 217.578C23.3652 217.465 23.4279 217.363 23.5132 217.281C23.6007 217.199 23.7073 217.142 23.8231 217.113C23.9389 217.084 24.0602 217.085 24.1756 217.115C24.1756 217.115 25.681 217.521 26.1477 216.453C26.0627 215.086 25.7786 213.739 25.3047 212.453C25.1391 211.927 25.0036 211.461 24.9283 211.13C23.6949 209.88 22.1984 208.919 20.5474 208.318C20.4417 208.27 20.3493 208.197 20.2784 208.105C20.2075 208.014 20.1603 207.906 20.141 207.791L19.0269 200.272C19.001 200.093 19.0475 199.91 19.1562 199.765C19.2649 199.62 19.4269 199.524 19.6065 199.498C19.7862 199.472 19.9688 199.518 20.1142 199.627C20.2596 199.735 20.3559 199.897 20.3818 200.077L21.4507 207.295C22.9562 208.032 25.9671 209.551 26.2682 210.889C26.2682 211.19 26.4789 211.626 26.6144 212.137C27.3069 214.438 27.7736 216.138 27.4274 217.025C27.2242 217.535 26.8638 217.968 26.3983 218.26C25.9328 218.552 25.3863 218.688 24.838 218.649C25.0298 219.45 25.0298 220.284 24.838 221.085C24.7175 221.371 24.5218 221.762 21.7368 222.048C21.541 221.988 20.0205 222.138 18.1688 222.138Z" fill="#231F20"/>
<path d="M23.9797 217.777C23.2344 216.462 22.677 215.05 22.3237 213.581L23.9797 217.777Z" fill="white"/>
<path d="M23.9797 218.438C23.8654 218.438 23.753 218.409 23.653 218.354C23.553 218.299 23.4686 218.219 23.4076 218.123C22.618 216.743 22.0252 215.26 21.6462 213.716C21.6045 213.539 21.6329 213.353 21.7254 213.196C21.818 213.039 21.9676 212.924 22.143 212.874C22.3207 212.829 22.5093 212.855 22.6673 212.948C22.8254 213.041 22.94 213.193 22.9861 213.371C23.3089 214.769 23.8151 216.119 24.4916 217.386C24.561 217.489 24.6004 217.61 24.6054 217.735C24.6105 217.859 24.5811 217.983 24.5203 218.092C24.4596 218.2 24.37 218.29 24.2613 218.352C24.1526 218.413 24.0291 218.443 23.9044 218.438H23.9797Z" fill="#231F20"/>
<path d="M104.627 200.092L103.513 207.611C103.513 207.611 98.9965 209.626 98.7406 210.889C98.4847 212.153 97.2352 215.641 97.5363 216.634C98.1836 218.303 100.351 217.702 100.351 217.702C100.102 218.684 100.036 219.703 100.156 220.709C100.472 221.386 110.694 222.213 112.199 220.108C113.705 218.002 117.092 196.212 117.092 196.212" fill="white"/>
<path d="M106.162 222.138C104.311 222.138 102.79 221.987 102.64 221.972C99.8546 221.687 99.6288 221.296 99.5385 221.01C99.3466 220.209 99.3466 219.375 99.5385 218.574C98.9902 218.613 98.4437 218.476 97.9782 218.184C97.5127 217.892 97.1522 217.46 96.9491 216.95C96.6028 216.062 97.0695 214.363 97.762 212.062C97.9126 211.551 98.033 211.115 98.1083 210.814C98.4244 209.476 101.36 207.957 102.926 207.22L103.995 200.001C104.021 199.822 104.117 199.66 104.262 199.552C104.408 199.443 104.59 199.397 104.77 199.422C104.95 199.448 105.112 199.545 105.22 199.69C105.329 199.835 105.375 200.017 105.35 200.197L104.236 207.716C104.219 207.831 104.173 207.94 104.101 208.033C104.03 208.125 103.936 208.197 103.829 208.242C102.178 208.844 100.682 209.804 99.4481 211.055C99.3729 211.385 99.2374 211.852 99.0718 212.378C98.5978 213.663 98.3138 215.011 98.2287 216.378C98.6352 217.446 100.141 217.055 100.216 217.04C100.33 217.008 100.451 217.006 100.566 217.034C100.68 217.063 100.786 217.121 100.871 217.204C100.957 217.286 101.019 217.389 101.052 217.503C101.085 217.617 101.087 217.737 101.059 217.852C100.878 218.626 100.792 219.418 100.803 220.213C102.309 220.724 110.649 221.16 111.748 219.641C112.847 218.123 115.225 204.423 116.52 196.046C116.533 195.957 116.563 195.871 116.61 195.794C116.656 195.716 116.718 195.649 116.791 195.596C116.864 195.543 116.947 195.505 117.035 195.484C117.123 195.463 117.214 195.46 117.303 195.475C117.392 195.488 117.478 195.518 117.556 195.565C117.633 195.611 117.7 195.673 117.754 195.746C117.807 195.818 117.845 195.901 117.866 195.989C117.887 196.077 117.89 196.168 117.875 196.257C117.529 198.498 114.442 218.303 112.862 220.454C111.853 221.852 108.707 222.138 106.162 222.138Z" fill="#231F20"/>
<path d="M101.947 217.777C102.694 216.461 103.256 215.049 103.618 213.581L101.947 217.777Z" fill="white"/>
<path d="M101.948 218.439C101.819 218.439 101.694 218.403 101.586 218.333C101.431 218.237 101.32 218.083 101.278 217.906C101.236 217.729 101.265 217.542 101.36 217.386C102.08 216.13 102.617 214.778 102.956 213.371C103.002 213.197 103.115 213.047 103.269 212.955C103.424 212.862 103.609 212.833 103.784 212.874C103.873 212.895 103.957 212.934 104.031 212.988C104.104 213.042 104.166 213.111 104.213 213.19C104.259 213.268 104.289 213.355 104.301 213.446C104.312 213.537 104.306 213.629 104.281 213.717C103.909 215.255 103.321 216.733 102.535 218.108C102.472 218.207 102.386 218.29 102.283 218.347C102.181 218.405 102.065 218.437 101.948 218.439Z" fill="#231F20"/>
<path d="M113.991 133.683C113.991 133.683 108.421 113.637 101.872 106.403C95.3234 99.1699 77.4386 91.5003 47.7962 95.3351C47.7962 95.3351 32.4104 99.4105 23.1368 108.223C13.8632 117.035 10.5362 132.72 10.5362 132.72C10.5362 132.72 -0.649353 173.324 5.61334 202.874L23.9498 203.987C23.9498 203.987 21.1496 169.293 30.5587 141.743C32.2749 176.331 34.9546 231.672 36.8214 285.825L58.4849 285.374L64.6573 215.822L66.9305 284.607H89.1059C89.1059 284.607 95.3234 198.017 92.2974 137.893C103.483 165.88 100.382 204.062 100.382 204.062L118.718 202.949C124.439 175.985 115.602 139.728 113.991 133.683Z" fill="#231F20"/>
<path d="M52.7039 71.4241C51.8308 65.9953 42.783 64.6569 43.2346 71.0632C43.2998 73.2898 44.1533 75.4212 45.6433 77.0785C46.3971 77.8789 47.3702 78.4398 48.4411 78.6912C49.5121 78.9426 50.6334 78.8733 51.6652 78.4921" fill="white"/>
<path d="M49.8287 79.665C48.9425 79.6521 48.0675 79.4648 47.2538 79.1139C46.4401 78.763 45.7036 78.2553 45.0865 77.6198C43.4631 75.8121 42.5302 73.4903 42.452 71.0631C42.3427 70.4708 42.3587 69.8622 42.499 69.2765C42.6393 68.6907 42.9007 68.1408 43.2666 67.662C43.6324 67.1833 44.0945 66.7863 44.6231 66.4966C45.1518 66.207 45.7352 66.0311 46.336 65.9802C47.9659 65.8143 49.5991 66.2619 50.9161 67.2353C52.2331 68.2088 53.1391 69.6381 53.4568 71.2436C53.4859 71.3471 53.4929 71.4556 53.4773 71.562C53.4617 71.6683 53.4239 71.7703 53.3664 71.8611C53.3088 71.952 53.2327 72.0297 53.1431 72.0893C53.0535 72.1489 52.9524 72.189 52.8463 72.207C52.7402 72.225 52.6315 72.2206 52.5272 72.1939C52.4229 72.1672 52.3254 72.119 52.241 72.0522C52.1566 71.9855 52.0873 71.9018 52.0374 71.8065C51.9874 71.7112 51.9582 71.6065 51.9514 71.4992C51.6886 70.2897 50.993 69.2176 49.9952 68.4839C48.9974 67.7502 47.7659 67.4054 46.5317 67.5141C45.508 67.6344 43.837 68.2359 44.0176 70.9428C44.0747 73.0121 44.8641 74.9942 46.2457 76.5371C46.8916 77.2338 47.7293 77.724 48.6535 77.9461C49.5778 78.1682 50.5471 78.1123 51.4395 77.7852C51.6274 77.7036 51.8399 77.6988 52.0313 77.7719C52.2227 77.845 52.3778 77.9902 52.4632 78.1762C52.5456 78.3661 52.5508 78.5805 52.4778 78.7742C52.4047 78.9678 52.2591 79.1255 52.0718 79.2139C51.3638 79.519 50.5997 79.6726 49.8287 79.665Z" fill="#231F20"/>
<path d="M75.2256 71.4241C76.0837 65.9953 85.1315 64.6569 84.6798 71.0632C84.6147 73.2898 83.7612 75.4212 82.2711 77.0785C81.5173 77.8789 80.5442 78.4398 79.4733 78.6912C78.4024 78.9426 77.2811 78.8733 76.2493 78.4921" fill="white"/>
<path d="M78.0859 79.6651C77.33 79.6665 76.5819 79.5129 75.8879 79.214C75.6883 79.1282 75.5309 78.9667 75.4504 78.7651C75.37 78.5635 75.373 78.3381 75.4588 78.1387C75.5447 77.9393 75.7063 77.7821 75.9082 77.7017C76.11 77.6214 76.3356 77.6244 76.5352 77.7101C77.4254 78.0359 78.3922 78.0912 79.3138 77.8691C80.2353 77.647 81.0705 77.1574 81.714 76.4619C83.0316 74.9619 83.7965 73.057 83.8818 71.0632C84.0625 68.3563 82.3764 67.7548 81.3677 67.6345C80.1335 67.5258 78.902 67.8706 77.9042 68.6043C76.9064 69.338 76.2109 70.4101 75.9481 71.6196C75.9413 71.7269 75.912 71.8316 75.8621 71.9269C75.8122 72.0221 75.7428 72.1059 75.6584 72.1726C75.574 72.2393 75.4765 72.2876 75.3723 72.3143C75.268 72.3409 75.1593 72.3454 75.0532 72.3274C74.9471 72.3094 74.8459 72.2693 74.7563 72.2097C74.6667 72.1501 74.5907 72.0723 74.5331 71.9815C74.4755 71.8907 74.4377 71.7887 74.4222 71.6823C74.4066 71.576 74.4136 71.4675 74.4427 71.364C74.7572 69.7568 75.6624 68.3255 76.9802 67.3514C78.298 66.3774 79.9329 65.9312 81.5634 66.1006C82.1535 66.1513 82.7268 66.3226 83.2478 66.6039C83.7688 66.8853 84.2263 67.2706 84.592 67.736C84.9576 68.2014 85.2236 68.7369 85.3733 69.3092C85.5231 69.8816 85.5535 70.4786 85.4626 71.0632C85.3767 73.4709 84.4439 75.7712 82.828 77.5597C82.2159 78.2061 81.4817 78.7249 80.6678 79.0863C79.8538 79.4476 78.9763 79.6444 78.0859 79.6651Z" fill="#231F20"/>
<path d="M74.4277 98.6135L68.0897 136.51L65.7713 150.315L62.8206 136.36L54.8267 98.6135H74.4277Z" fill="url(#paint4_linear_2_805)"/>
<path d="M66.1629 111.667L68.0898 136.495L65.8166 150.315L62.8057 136.359L63.9197 112.058L61.5562 107.997L64.3111 103.741L68.135 107.681L66.1629 111.667Z" fill="white"/>
<path d="M74.4277 98.6133C73.4897 100.306 72.0953 101.703 70.4028 102.644C68.7103 103.585 66.7876 104.033 64.853 103.937C62.8633 103.993 60.893 103.532 59.1353 102.599C57.3776 101.666 55.8929 100.292 54.8267 98.6133L55.1278 94.8087L55.8203 85.9661L56.4827 77.7101H72.7717L73.3137 84.4623L73.4792 86.6579L74.4277 98.6133Z" fill="white"/>
<path d="M64.853 104.704C62.7213 104.766 60.6104 104.27 58.73 103.264C56.8497 102.259 55.2653 100.78 54.1342 98.9743C54.059 98.8475 54.0273 98.6997 54.0439 98.5532L55.7149 77.65C55.7264 77.4545 55.8124 77.2708 55.9551 77.1366C56.0979 77.0024 56.2867 76.9278 56.4827 76.9282H72.7717C72.9667 76.9313 73.1535 77.0071 73.2955 77.1406C73.4375 77.2741 73.5245 77.4558 73.5395 77.65L75.2105 98.5532C75.2389 98.6769 75.2389 98.8055 75.2105 98.9292C74.2122 100.776 72.7077 102.3 70.8732 103.322C69.0387 104.345 66.9504 104.824 64.853 104.704ZM55.6095 98.4179C56.6239 99.9235 58.0038 101.148 59.6203 101.976C61.2368 102.804 63.0371 103.21 64.853 103.155C66.6087 103.245 68.3556 102.854 69.905 102.024C71.4545 101.195 72.7476 99.9581 73.6449 98.448L72.0491 78.4771H57.2053L55.6095 98.4179Z" fill="#231F20"/>
<path d="M74.5784 83.8307C74.4007 84.8358 74.0273 85.7963 73.4794 86.6579C72.1078 88.6358 70.2663 90.2427 68.12 91.3348C64.6123 93.2747 59.3733 95.4553 55.1279 94.8086L55.8204 85.9661C58.9409 86.3354 62.094 86.3354 65.2145 85.9661C67.975 85.8782 70.7061 85.3712 73.3138 84.4623C73.7354 84.2668 74.1719 84.0713 74.5784 83.8307Z" fill="#231F20"/>
<path d="M56.7836 95.6658C56.2043 95.6712 55.6254 95.6309 55.0524 95.5455C54.8646 95.5192 54.6942 95.4218 54.5765 95.2734C54.4588 95.125 54.4028 94.937 54.4201 94.7485L55.1126 85.906C55.1401 85.7014 55.2419 85.5141 55.3986 85.3796C55.5623 85.2567 55.7676 85.2027 55.9707 85.2292C59.0313 85.5885 62.1235 85.5885 65.1841 85.2292C67.8699 85.1307 70.5249 84.6236 73.0576 83.7254C73.4641 83.5449 73.8705 83.3495 74.2469 83.1389C74.3694 83.0646 74.51 83.0252 74.6534 83.0252C74.7967 83.0252 74.9373 83.0646 75.0599 83.1389C75.1727 83.2225 75.2605 83.3354 75.3136 83.4653C75.3667 83.5952 75.383 83.7372 75.3609 83.8758C75.1559 84.9461 74.7471 85.9672 74.1566 86.8834C72.7318 88.9787 70.8003 90.6806 68.5412 91.831C65.8164 93.4401 61.1193 95.6658 56.7836 95.6658ZM55.9707 94.162C60.3666 94.5079 65.6658 91.8762 67.8036 90.7032C69.8562 89.6561 71.6076 88.1034 72.892 86.1917C73.0913 85.8687 73.2674 85.532 73.4189 85.1841C70.8067 86.0763 68.0782 86.5829 65.3196 86.688C62.4071 86.9965 59.4702 86.9965 56.5578 86.688L55.9707 94.162Z" fill="#231F20"/>
<path d="M65.0939 88.0416H63.5885C60.2889 88.0257 57.13 86.7052 54.8025 84.3689C52.475 82.0327 51.1684 78.8708 51.1685 75.5748V55.8446L65.5305 59.4087L77.5741 55.8446V75.5748C77.5741 77.212 77.2513 78.8331 76.6241 80.3456C75.9969 81.8582 75.0777 83.2325 73.9188 84.3901C72.7599 85.5478 71.3841 86.4661 69.8699 87.0926C68.3557 87.7191 66.7328 88.0416 65.0939 88.0416Z" fill="white"/>
<path d="M65.094 88.8235H63.5886C60.0827 88.8036 56.7269 87.3995 54.2535 84.9175C51.78 82.4354 50.3897 79.0769 50.3857 75.5748V55.8445C50.3878 55.726 50.4159 55.6094 50.4679 55.5029C50.5199 55.3964 50.5946 55.3025 50.6868 55.2279C50.7811 55.1592 50.889 55.1116 51.0033 55.0882C51.1176 55.0649 51.2356 55.0664 51.3492 55.0926L65.5156 58.5965L77.3635 55.1076C77.4777 55.0712 77.5991 55.0631 77.7171 55.0841C77.8352 55.105 77.9463 55.1544 78.0409 55.2279C78.1384 55.2987 78.2178 55.3914 78.2727 55.4985C78.3276 55.6057 78.3565 55.7242 78.3571 55.8445V75.5748C78.3531 79.0873 76.9545 82.4549 74.468 84.9386C71.9816 87.4224 68.6104 88.8195 65.094 88.8235ZM51.9364 56.837V75.5748C51.9443 78.6739 53.1813 81.6436 55.3766 83.8336C57.5718 86.0237 60.5463 87.2555 63.6488 87.2595H65.1542C68.2463 87.2397 71.2054 86.0008 73.3876 83.8125C75.5699 81.6242 76.7986 78.6635 76.8065 75.5748V56.8822L65.8167 60.1455C65.6837 60.1827 65.5431 60.1827 65.4102 60.1455L51.9364 56.837Z" fill="#231F20"/>
<path d="M51.1382 66.5518V65.4239H51.364L53.4867 64.9878C54.6249 64.7077 55.7921 64.5613 56.9643 64.5517C58.6547 64.6099 60.3346 64.8417 61.9775 65.2434C63.6967 65.671 65.4869 65.7325 67.2315 65.4239C68.5262 65.1833 69.8058 64.9276 71.1005 64.7171C72.0597 64.5517 73.0357 64.5063 74.006 64.5818C75.4816 64.7898 76.9442 65.081 78.3869 65.454C78.4883 65.4689 78.5797 65.5229 78.6417 65.6045C78.7036 65.686 78.731 65.7886 78.7181 65.8901V66.8676C78.7216 66.9553 78.701 67.0423 78.6586 67.1192C78.6161 67.1961 78.5534 67.2599 78.4772 67.3037C78.2205 67.4708 78.0209 67.7121 77.9052 67.9955C77.8242 68.1905 77.7588 68.3916 77.7095 68.597C77.4987 69.3339 77.318 70.1008 77.0922 70.8377C76.9024 71.5241 76.5421 72.1514 76.0447 72.6614C75.5472 73.1715 74.9288 73.5477 74.2469 73.7551C73.2173 74.1148 72.1102 74.1927 71.0403 73.9807C70.2383 73.8747 69.4735 73.5775 68.8106 73.1143C68.1477 72.651 67.6061 72.0352 67.2315 71.3189C66.8674 70.6164 66.57 69.8813 66.3433 69.1233C66.2042 68.7506 66.0276 68.3928 65.8164 68.0556C65.7762 67.9911 65.7235 67.9353 65.6615 67.8914C65.5994 67.8475 65.5293 67.8165 65.4551 67.8C65.1896 67.7771 64.9226 67.7771 64.6572 67.8C64.5344 67.795 64.4132 67.8286 64.3106 67.896C64.208 67.9634 64.1291 68.0613 64.0851 68.1759C63.9358 68.5007 63.8149 68.8378 63.7238 69.1835C63.4875 70.1326 63.0682 71.0265 62.4893 71.8152C61.8916 72.7837 60.9599 73.5004 59.8698 73.8303C59.459 73.9309 59.0414 74.0013 58.6203 74.0409C57.423 74.1706 56.2122 74.0001 55.0975 73.5446C54.3726 73.2745 53.7796 72.736 53.4415 72.0408C52.9386 70.9494 52.5452 69.811 52.2673 68.6421C52.1731 68.226 51.9706 67.8421 51.6801 67.5293C51.4021 67.2677 51.2127 66.926 51.1382 66.5518Z" fill="black"/>
<path d="M80.1034 66.5518H79.8174C79.6292 66.4717 79.479 66.3225 79.3977 66.135C79.3165 65.9475 79.3104 65.736 79.3808 65.5442C80.4161 63.1195 80.9497 60.5107 80.9497 57.8747C80.9497 55.2387 80.4161 52.6298 79.3808 50.2051C78.3158 47.8423 76.6374 45.8071 74.5197 44.3105C72.402 42.8139 69.9222 41.9103 67.3372 41.6935C65.2493 41.6829 63.1706 41.9715 61.1648 42.5507C58.8032 43.0113 56.5536 43.9255 54.5408 45.2425C51.8552 47.4073 50.0645 50.4867 49.5126 53.8895C48.9668 57.371 48.8455 60.9057 49.1513 64.4163C49.1595 64.6213 49.0868 64.8213 48.9488 64.9732C48.8108 65.1251 48.6186 65.2167 48.4136 65.2284C48.3115 65.2345 48.2093 65.2201 48.1128 65.1862C48.0164 65.1523 47.9277 65.0994 47.852 65.0308C47.7762 64.9621 47.715 64.8791 47.6718 64.7865C47.6287 64.6939 47.6045 64.5936 47.6007 64.4915C47.2803 60.84 47.4118 57.163 47.9921 53.5436C48.6089 49.7878 50.5859 46.3893 53.5472 43.9943C55.7164 42.5342 58.1509 41.5124 60.7132 40.9867C62.8616 40.3717 65.0873 40.0679 67.3221 40.0844C70.1999 40.3064 72.9649 41.2975 75.3275 42.9538C77.6901 44.61 79.5632 46.8705 80.7508 49.4984C81.8646 52.1139 82.4388 54.927 82.4388 57.7694C82.4388 60.6118 81.8646 63.4249 80.7508 66.0405C80.7028 66.1784 80.6164 66.2998 80.5017 66.3904C80.387 66.481 80.2489 66.537 80.1034 66.5518Z" fill="#231F20"/>
<path d="M66.2679 79.2592C65.6139 79.2661 64.9602 79.2309 64.3108 79.1539C64.2089 79.1448 64.1099 79.1149 64.0199 79.0663C63.9299 79.0176 63.8508 78.9512 63.7874 78.8709C63.724 78.7907 63.6776 78.6984 63.6512 78.5997C63.6247 78.501 63.6186 78.3979 63.6333 78.2967C63.6445 78.1957 63.6757 78.098 63.725 78.0091C63.7743 77.9202 63.8409 77.8421 63.9207 77.7791C64.0005 77.7161 64.0921 77.6696 64.1901 77.6423C64.2881 77.615 64.3905 77.6074 64.4914 77.62C65.5726 77.729 66.662 77.729 67.7432 77.62C67.969 76.7027 67.0357 73.0333 65.6055 69.3339C65.5689 69.2352 65.5522 69.1302 65.5562 69.025C65.5602 68.9198 65.585 68.8164 65.629 68.7207C65.673 68.6251 65.7355 68.539 65.8128 68.4675C65.8902 68.3959 65.9809 68.3403 66.0797 68.3038C66.1786 68.2673 66.2836 68.2505 66.389 68.2546C66.4943 68.2586 66.5978 68.2833 66.6935 68.3273C66.7893 68.3713 66.8754 68.4337 66.9471 68.5109C67.0187 68.5882 67.0744 68.6788 67.1109 68.7775C68.0293 71.1686 70.1218 76.9132 69.0831 78.5373C68.9887 78.7031 68.8562 78.8442 68.6965 78.9487C68.5369 79.0533 68.3546 79.1185 68.1647 79.1389C67.5361 79.2239 66.9022 79.2641 66.2679 79.2592Z" fill="#231F20"/>
<path d="M60.9991 82.7781C60.8197 82.7624 60.6514 82.6841 60.5239 82.557C60.3963 82.4299 60.3176 82.2621 60.3014 82.0828C60.2853 81.9036 60.3327 81.7244 60.4355 81.5766C60.5383 81.4287 60.6898 81.3217 60.8636 81.2743C61.1045 81.2743 66.9607 80.1163 70.6943 81.0487C70.7941 81.0733 70.8881 81.1174 70.9709 81.1784C71.0537 81.2393 71.1237 81.316 71.1768 81.404C71.23 81.492 71.2652 81.5895 71.2806 81.6911C71.2959 81.7927 71.2911 81.8964 71.2663 81.9961C71.213 82.1955 71.0844 82.3664 70.9075 82.473C70.7307 82.5796 70.5193 82.6135 70.3179 82.5676C66.9005 81.7104 61.2852 82.7781 61.1497 82.7931L60.9991 82.7781Z" fill="#231F20"/>
<path d="M67.5475 284.607L67.397 298.908L77.4233 300.698L77.8749 297.69C79.4082 299.609 81.3129 301.2 83.4752 302.367C86.6216 303.871 105.018 310.247 103.453 304.082C101.887 297.916 94.2543 295.344 90.8821 291.735C89.906 290.758 89.1583 289.577 88.6924 288.277C88.2266 286.977 88.0541 285.59 88.1873 284.216" fill="white"/>
<path d="M100.081 307.345C94.3149 307.345 84.3939 303.525 83.1896 302.954C81.3576 302.012 79.7104 300.749 78.3269 299.224L78.1011 300.728C78.0858 300.818 78.0525 300.905 78.0034 300.982C77.9543 301.06 77.8903 301.127 77.8151 301.179C77.7434 301.235 77.6606 301.274 77.5723 301.295C77.4839 301.316 77.3922 301.317 77.3032 301.299L67.3221 299.51C67.1625 299.482 67.0179 299.399 66.9134 299.275C66.8089 299.151 66.7511 298.995 66.75 298.833L66.9005 284.532C66.9045 284.351 66.9792 284.179 67.1086 284.052C67.2381 283.926 67.412 283.855 67.5931 283.855C67.6833 283.855 67.7726 283.873 67.8558 283.908C67.939 283.943 68.0144 283.994 68.0775 284.058C68.1406 284.123 68.1902 284.199 68.2233 284.283C68.2565 284.367 68.2725 284.457 68.2705 284.547L68.135 298.262L76.8968 299.766L77.228 297.48C77.2485 297.346 77.3081 297.22 77.3992 297.12C77.4904 297.019 77.6091 296.948 77.7407 296.914C77.8723 296.881 78.0108 296.886 78.1391 296.931C78.2675 296.975 78.3799 297.056 78.4624 297.164C79.9265 299.013 81.7495 300.547 83.8218 301.675C86.9833 303.179 100.051 307.495 102.58 305.42C102.806 305.239 103.031 304.939 102.836 304.172C101.857 300.337 98.3194 297.991 95.0375 295.72C93.3759 294.693 91.8312 293.488 90.4308 292.126C89.385 291.085 88.5844 289.824 88.0871 288.435C87.5898 287.046 87.4081 285.563 87.5554 284.096C87.6041 283.935 87.7098 283.797 87.8527 283.708C87.9957 283.62 88.1661 283.586 88.3321 283.613C88.4981 283.641 88.6483 283.728 88.7548 283.858C88.8612 283.989 88.9164 284.153 88.9103 284.321C88.7934 285.584 88.9568 286.858 89.3887 288.051C89.8207 289.244 90.5106 290.327 91.4093 291.224C92.7434 292.5 94.2065 293.633 95.7752 294.607C99.1775 296.908 103.031 299.525 104.13 303.856C104.299 304.319 104.322 304.822 104.196 305.298C104.069 305.774 103.799 306.2 103.423 306.518C102.431 307.155 101.256 307.446 100.081 307.345Z" fill="#231F20"/>
<path d="M57.6719 284.607L57.8225 298.908L47.751 300.623L47.2994 297.615C45.7779 299.542 43.8835 301.143 41.7292 302.322C38.5828 303.826 20.1711 310.202 21.7518 304.037C23.3325 297.871 30.9501 295.299 34.3223 291.69C35.2984 290.713 36.0461 289.532 36.512 288.232C36.9778 286.932 37.1503 285.545 37.0171 284.171" fill="white"/>
<path d="M25.1692 307.345C23.9991 307.445 22.8288 307.154 21.8422 306.518C21.4657 306.2 21.196 305.774 21.0694 305.298C20.9429 304.822 20.9657 304.319 21.1346 303.856C22.2336 299.525 26.0875 296.908 29.4899 294.607C31.0585 293.633 32.5216 292.499 33.8557 291.224C34.7556 290.334 35.4476 289.256 35.8822 288.068C36.3168 286.88 36.4833 285.611 36.3698 284.351C36.3437 284.172 36.389 283.99 36.496 283.843C36.6029 283.697 36.763 283.599 36.9419 283.569C37.031 283.552 37.1226 283.553 37.2114 283.571C37.3002 283.59 37.3843 283.627 37.4588 283.679C37.5332 283.73 37.5964 283.797 37.6447 283.874C37.693 283.95 37.7253 284.036 37.7398 284.126C37.8701 285.59 37.6776 287.066 37.1756 288.448C36.6736 289.83 35.8744 291.086 34.8342 292.126C33.4338 293.487 31.8892 294.693 30.2275 295.72C26.8704 297.991 23.4078 300.337 22.4293 304.172C22.2336 304.939 22.4293 305.239 22.6852 305.42C25.2144 307.495 38.2817 303.179 41.4432 301.675C43.5156 300.547 45.3385 299.013 46.8026 297.164C46.8863 297.058 46.9994 296.978 47.1278 296.935C47.2563 296.893 47.3944 296.888 47.5252 296.923C47.6535 296.957 47.7689 297.028 47.8572 297.127C47.9456 297.226 48.0029 297.348 48.022 297.48L48.3683 299.765L57.13 298.262L56.9795 284.547C56.9795 284.363 57.0524 284.187 57.1823 284.058C57.3122 283.928 57.4883 283.855 57.672 283.855C57.8531 283.855 58.027 283.926 58.1564 284.052C58.2859 284.179 58.3606 284.351 58.3645 284.532L58.515 298.833C58.514 298.995 58.4562 299.151 58.3516 299.275C58.2471 299.398 58.1025 299.482 57.943 299.51L47.9166 301.299C47.8253 301.317 47.7311 301.316 47.6403 301.295C47.5495 301.275 47.4642 301.235 47.3897 301.179C47.3167 301.126 47.2551 301.058 47.2085 300.981C47.162 300.903 47.1315 300.817 47.1187 300.728L46.8929 299.224C45.5095 300.749 43.8623 302.012 42.0303 302.954C40.8259 303.525 30.8899 307.345 25.1692 307.345Z" fill="#231F20"/>
<path d="M88.8047 187.144H71.3716C71.2081 187.146 71.0484 187.094 70.9176 186.996C70.7868 186.898 70.6923 186.76 70.649 186.602L66.0272 169.805L61.9625 185.535C61.9195 185.698 61.8239 185.842 61.6906 185.945C61.5572 186.048 61.3936 186.105 61.2248 186.106L37.3634 185.505C37.2652 185.503 37.1684 185.481 37.0786 185.441C36.9888 185.402 36.9079 185.344 36.8406 185.273C36.7733 185.201 36.721 185.117 36.6867 185.025C36.6523 184.933 36.6367 184.836 36.6408 184.738C36.6447 184.541 36.7257 184.353 36.8665 184.216C37.0072 184.078 37.1964 184.001 37.3935 184.001L60.6528 184.587L65.2745 166.692C65.315 166.531 65.4083 166.389 65.5394 166.288C65.6704 166.188 65.8316 166.134 65.9971 166.135C66.1626 166.134 66.3238 166.188 66.4549 166.288C66.5859 166.389 66.6792 166.531 66.7197 166.692L71.9437 185.64H88.8047C89.0044 185.64 89.1958 185.719 89.337 185.86C89.4782 186.001 89.5575 186.192 89.5575 186.392C89.5575 186.491 89.538 186.588 89.5002 186.68C89.4624 186.771 89.4069 186.854 89.337 186.923C89.2671 186.993 89.1841 187.049 89.0928 187.086C89.0015 187.124 88.9036 187.144 88.8047 187.144Z" fill="white"/>
<path d="M350.633 220.86C350.797 218.472 350.275 216.088 349.128 213.987C348.024 212.594 346.993 211.143 346.042 209.641C344.732 206.844 345.65 203.551 345.349 200.483C345.079 197.913 343.943 195.511 342.128 193.67C340.532 192.046 338.454 190.933 336.919 189.249C334.405 186.467 333.682 182.572 332.252 179.113C330.22 174.224 326.71 170.091 322.21 167.293C324.95 172.812 318.703 179.805 321.533 185.339C322.421 187.069 324.137 188.347 324.8 190.166C326.381 194.678 321.096 199.4 322.783 203.791C323.626 205.987 325.989 207.265 327.088 209.34C328.594 212.152 327.404 215.551 327.525 218.724C327.69 223.1 330.355 227.01 333.547 230.033C335.519 231.928 337.702 233.552 339.839 235.251C342.384 237.296 343.452 239.432 345.696 236.169C348.8 231.655 350.516 226.334 350.633 220.86Z" fill="#231F20"/>
<path d="M353.479 223.371C352.666 219.987 352.079 216.318 353.479 213.13C354.984 209.521 358.929 206.964 359.38 203.054C359.681 200.498 358.372 197.911 358.883 195.385C359.395 192.858 361.473 191.129 363.174 189.264C367.093 184.959 369.424 179.447 369.783 173.639C372.409 176.755 374.533 180.261 376.076 184.031C376.832 185.928 377.142 187.974 376.983 190.01C376.824 192.046 376.199 194.019 375.157 195.776C374.5 196.559 373.962 197.436 373.562 198.377C372.794 200.859 374.932 203.19 376.031 205.551C376.686 206.902 376.959 208.406 376.821 209.9C376.683 211.395 376.139 212.824 375.248 214.032C373.02 216.814 368.699 217.897 367.6 221.296C367.33 222.561 367.204 223.852 367.224 225.146C366.987 227.393 366.084 229.518 364.63 231.249C363.177 232.98 361.238 234.237 359.064 234.86C356.429 235.492 356.475 234.454 356.053 232.229C355.346 229.236 354.201 226.349 353.479 223.371Z" fill="#231F20"/>
<path d="M345.063 199.039C343.181 192.542 342.429 185.76 340.442 179.279C338.748 174.229 336.69 169.309 334.284 164.556L342.353 167.955C344.943 169.038 347.743 170.331 348.962 172.857C351.085 177.249 347.276 182.888 349.504 187.234C350.473 188.645 351.539 189.987 352.696 191.249C355.075 194.573 354.713 199.159 353.403 203.039C352.846 204.693 350.393 213.325 348.21 210.934C347.336 209.972 347.261 206.423 346.9 205.084C346.328 203.054 345.635 201.069 345.063 199.039Z" fill="#231F20"/>
<path d="M349.414 285.374C347.803 274.757 342.76 237.326 342.715 236.951L344.22 236.74C344.22 237.116 349.309 274.546 350.92 285.148L349.414 285.374Z" fill="#231F20"/>
<path d="M351.416 295.404H349.911C350.001 282.787 355.27 234.56 358.311 231.251L359.425 232.259C357.107 234.77 351.521 281.389 351.416 295.404Z" fill="#231F20"/>
<path d="M354.156 292.998L352.651 292.923C353.855 265.749 348.135 208.709 348.014 208.077L349.52 207.927C349.58 208.498 355.361 265.704 354.156 292.998Z" fill="#231F20"/>
<path d="M335.639 259.764H365.673L363.58 290.141C363.405 292.675 362.274 295.047 360.416 296.78C358.558 298.514 356.111 299.478 353.569 299.48H347.758C345.216 299.478 342.769 298.514 340.911 296.78C339.053 295.047 337.922 292.675 337.747 290.141L335.639 259.764Z" fill="white"/>
<path d="M353.569 300.262H347.758C345.02 300.254 342.387 299.213 340.385 297.347C338.383 295.481 337.161 292.929 336.964 290.201L334.871 259.824C334.864 259.717 334.879 259.61 334.916 259.509C334.952 259.408 335.009 259.315 335.082 259.237C335.154 259.161 335.24 259.101 335.336 259.06C335.432 259.018 335.535 258.997 335.639 258.997H365.673C365.78 258.994 365.887 259.014 365.986 259.056C366.085 259.097 366.174 259.159 366.248 259.236C366.322 259.314 366.379 259.407 366.414 259.508C366.45 259.609 366.464 259.717 366.456 259.824L364.348 290.201C364.154 292.927 362.935 295.48 360.936 297.346C358.937 299.212 356.305 300.253 353.569 300.262ZM336.482 260.546L338.515 290.096C338.685 292.43 339.733 294.613 341.447 296.208C343.161 297.803 345.415 298.693 347.758 298.698H353.569C355.91 298.692 358.163 297.803 359.874 296.207C361.586 294.612 362.63 292.428 362.797 290.096L364.845 260.546H336.482Z" fill="#231F20"/>
</g>
<defs>
<linearGradient id="paint0_linear_2_805" x1="132.571" y1="67.876" x2="293.89" y2="76.9131" gradientUnits="userSpaceOnUse">
<stop stop-color="#C61E36"/>
<stop offset="1" stop-color="#4665D3"/>
</linearGradient>
<linearGradient id="paint1_linear_2_805" x1="200.329" y1="122.344" x2="217.787" y2="123.326" gradientUnits="userSpaceOnUse">
<stop stop-color="#C61E36"/>
<stop offset="1" stop-color="#4665D3"/>
</linearGradient>
<linearGradient id="paint2_linear_2_805" x1="206.245" y1="132.394" x2="211.136" y2="132.46" gradientUnits="userSpaceOnUse">
<stop stop-color="#C61E36"/>
<stop offset="1" stop-color="#4665D3"/>
</linearGradient>
<linearGradient id="paint3_linear_2_805" x1="30.1523" y1="17.5031" x2="40.8637" y2="18.106" gradientUnits="userSpaceOnUse">
<stop stop-color="#C61E36"/>
<stop offset="1" stop-color="#4665D3"/>
</linearGradient>
<linearGradient id="paint4_linear_2_805" x1="54.8267" y1="103.585" x2="75.6983" y2="104.03" gradientUnits="userSpaceOnUse">
<stop stop-color="#C61E36"/>
<stop offset="1" stop-color="#4665D3"/>
</linearGradient>
<clipPath id="clip0_2_805">
<rect width="407" height="311" fill="white"/>
</clipPath>
</defs>
</svg>
