<svg width="373" height="391" viewBox="0 0 373 391" fill="none" xmlns="http://www.w3.org/2000/svg">
<g clip-path="url(#clip0_2_1184)">
<path d="M28.8279 271.879C24.1128 271.879 17.8417 271.314 11.382 270.278C3.27209 269.006 -2.99898 277.437 0.725941 284.737C13.6924 310.171 39.2954 329.482 73.3855 333.109C89.0396 334.804 85.5976 335.888 96.1122 347.097C111.153 363.064 132.796 368.669 154.721 369.376L156.041 373.379L162.406 375.028C167.074 376.582 181.785 381.104 203.758 383.835C207.907 388.687 214.084 391.654 220.779 391.654H249.73C256.331 391.654 262.366 388.828 266.516 384.118C292.731 380.915 308.621 374.415 309.329 374.133L314.515 371.966L316.26 367.209C355.301 360.615 378.64 324.442 371.096 287.186C377.462 268.723 369.776 249.931 356.904 235.282C351.953 223.225 342.947 214.229 334.602 208.012C337.855 202.313 340.684 196.048 343.042 189.313C359.969 178.009 363.081 170.426 364.165 167.836C367.701 159.263 367.041 147.536 367.701 138.869L366.947 138.775C366.428 129.214 364.778 116.544 359.733 110.044C356.432 105.805 351.057 102.508 343.089 99.7763C331.301 67.4658 305.179 43.3036 274.06 31.9525C267.647 18.011 250.673 14.714 235.255 14.714C219.883 14.714 202.862 18.0581 196.449 31.9525C165.235 43.3507 139.161 67.56 127.42 99.7763C119.452 102.508 114.077 105.805 110.776 110.044C102.383 120.83 101.252 155.213 106.438 167.836C107.523 170.426 110.635 178.009 127.468 189.313C129.259 194.447 131.287 199.345 133.644 203.867C126.525 208.106 119.499 213.098 112.662 218.75C83.0043 238.014 60.7019 271.879 28.8279 271.879Z" fill="white"/>
<path d="M351.769 337.275C364.749 320.107 366.492 295.18 355.982 276.412C354.336 273.453 352.156 270.447 348.863 269.428C344.359 268.07 339.806 271.077 336.125 273.987C311.182 293.725 289.048 317.1 270.644 343.046L294.327 357.837C315.347 362.881 338.837 354.442 351.769 337.275Z" fill="#4665D3"/>
<path d="M88.5842 328.012C94.0087 331.407 97.5443 337.081 101.903 341.736C117.935 358.807 143.943 361.523 167.336 360.359C188.598 359.292 193.732 353.133 198.188 339.312C207.051 311.766 210.877 282.571 209.424 253.667C208.94 244.55 207.729 234.851 201.82 227.916C189.567 213.561 166.222 218.313 133.675 221.029C102.969 232.571 83.7409 262.299 55.2623 277.818C41.023 285.578 23.8293 289.457 8.47607 284.365C20.3421 304.879 41.9432 319.428 65.4332 322.677C73.2309 323.744 81.7551 323.744 88.5842 328.012Z" fill="#4665D3"/>
<path d="M171.211 274.811L197.268 232.183L168.692 213.852C168.692 213.852 130.091 225.782 112.946 254.2C94.6867 284.559 120.744 301.533 120.744 301.533C134.16 290.961 150.917 282.765 171.211 274.811Z" fill="#E8EDEC"/>
<path d="M174.068 258.808C167.433 260.069 161.088 263.027 155.809 267.246C155.083 267.828 154.308 268.555 154.356 269.477C154.356 270.35 154.453 270.204 160.604 279.128C162.735 278.206 164.915 277.285 167.191 276.412C169.467 270.544 171.744 264.676 174.068 258.808Z" fill="#D0DBE2"/>
<path d="M160.604 279.176C160.604 279.176 123.31 292.561 119.097 303.327C114.835 314.142 132.948 321.901 132.948 321.901C132.948 321.901 126.313 330.485 132.464 338.972C137.985 346.634 147.769 351.387 160.119 351.145C156.535 331.407 155.421 300.999 160.604 279.176Z" fill="#F7343E"/>
<path d="M129.897 330.097C140.262 329.273 145.057 324.763 145.057 324.763C140.504 324.763 132.9 321.901 132.9 321.901C132.9 321.901 130.285 325.393 129.897 330.097Z" fill="#C61E36"/>
<path d="M357.29 254.2C340.193 225.782 301.544 213.852 301.544 213.852L272.968 232.183L299.025 274.811C319.367 282.765 336.125 290.961 349.444 301.533C349.492 301.533 375.549 284.559 357.29 254.2Z" fill="#E8EDEC"/>
<path d="M315.929 269.525C315.929 268.604 315.202 267.877 314.476 267.295C309.196 263.027 302.852 260.117 296.216 258.856C298.493 264.724 300.817 270.592 303.094 276.46C305.322 277.382 307.501 278.255 309.681 279.176C315.88 270.253 315.929 270.398 315.929 269.525Z" fill="#D0DBE2"/>
<path d="M351.188 303.327C346.974 292.561 309.681 279.176 309.681 279.176C314.863 300.999 313.749 331.407 310.165 351.145C322.564 351.387 332.299 346.634 337.82 338.972C343.971 330.485 337.336 321.901 337.336 321.901C337.336 321.901 355.45 314.142 351.188 303.327Z" fill="#F7343E"/>
<path d="M306.145 366.421C306.145 366.421 315.105 343.676 312.78 299.981C310.407 256.286 284.399 227.237 284.399 227.237H235.142V227.673H185.886C185.886 227.673 159.877 256.722 157.504 300.417C155.131 344.113 164.14 366.857 164.14 366.857C164.14 366.857 194.41 377.527 236.886 377.527C279.362 377.575 306.145 366.421 306.145 366.421Z" fill="#E8EDEC"/>
<path d="M166.367 261.087C161.96 272.096 158.376 285.384 157.553 300.418C155.179 344.113 164.188 366.857 164.188 366.857C164.188 366.857 194.458 377.527 236.934 377.527C279.41 377.527 306.193 366.373 306.193 366.373C306.193 366.373 315.153 343.628 312.829 299.933C312.054 285.481 308.663 272.581 304.498 261.863L303.965 261.039C303.965 261.039 330.603 345.519 235.191 345.519C139.729 345.568 166.367 261.087 166.367 261.087Z" fill="#D0DBE2"/>
<path d="M328.037 217.392C320.336 211.863 313.604 209.099 313.604 209.099C282.994 229.273 227.005 239.021 157.117 209.099C157.117 209.099 150.239 211.912 142.393 217.634C182.496 268.216 287.789 268.507 328.037 217.392Z" fill="#D0DBE2"/>
<path d="M306.145 366.421C306.145 366.421 308.47 360.504 310.456 348.865C298.59 351.872 272.533 357.255 237.128 357.255C200.949 357.255 172.422 351.872 159.732 349.011C161.718 360.844 164.091 366.857 164.091 366.857C164.091 366.857 194.362 377.527 236.838 377.527C279.362 377.575 306.145 366.421 306.145 366.421Z" fill="#FDCC00"/>
<path d="M306.145 366.421C306.145 366.421 307.21 363.754 308.47 358.516C300.188 361.426 274.228 369.379 237.079 369.379C199.108 369.379 170.242 361.426 161.718 358.759C163.025 364.142 164.091 366.857 164.091 366.857C164.091 366.857 194.362 377.527 236.837 377.527C279.361 377.575 306.145 366.421 306.145 366.421Z" fill="#FCA800"/>
<path d="M140.068 182.474L143.12 105.171C143.12 105.171 122.778 108.469 117.741 114.968C112.849 121.224 111.105 151.582 115.077 161.233C119 170.738 140.068 182.474 140.068 182.474Z" fill="#F7343E"/>
<path d="M140.068 182.474L141.86 136.646C133.675 143.241 123.456 147.363 112.994 148.382C113.236 153.668 113.914 158.372 115.077 161.185C119 170.738 140.068 182.474 140.068 182.474Z" fill="#C61E36"/>
<path d="M355.207 161.233C359.179 151.582 357.435 121.224 352.543 114.968C347.506 108.518 327.165 105.171 327.165 105.171L330.216 182.474C330.216 182.474 351.284 170.738 355.207 161.233Z" fill="#F7343E"/>
<path d="M355.304 161.233C356.467 158.372 357.145 153.716 357.387 148.43C346.926 147.412 336.706 143.289 328.521 136.694L330.216 182.523C330.216 182.474 351.381 170.738 355.304 161.233Z" fill="#C61E36"/>
<path d="M321.547 234.366C337.917 233.881 348.33 242.125 348.33 242.125C340.145 220.059 313.555 209.147 313.555 209.147L279.265 223.842C286.239 231.989 305.176 234.802 321.547 234.366Z" fill="#5B79FD"/>
<path d="M191.407 223.745L154.211 206.432C154.211 206.432 137.937 212.057 117.014 229.419C140.988 226.8 174.795 243.725 191.407 223.745Z" fill="#5B79FD"/>
<path d="M159.2 233.299C171.889 234.366 183.561 233.202 191.407 223.745L154.211 206.432C154.211 206.432 148.496 208.42 139.487 213.658C143.265 219.041 147.527 223.793 152.177 227.818C154.405 229.758 156.729 231.553 159.2 233.299Z" fill="#4665D3"/>
<path d="M328.037 217.392C320.675 212.106 314.233 209.341 313.652 209.099C313.604 209.099 313.604 209.099 313.604 209.099C304.498 215.113 293.116 220.156 279.797 223.551L279.313 223.745C284.689 230.098 297.185 233.202 310.165 234.123C316.994 229.37 323 223.793 328.037 217.392Z" fill="#4665D3"/>
<path d="M310.94 219.429C339.709 194.696 348.136 137.518 332.347 97.8C316.558 58.033 275.681 32.4755 235.142 32.4755C194.652 32.4755 153.726 58.033 137.937 97.8C122.148 137.567 130.576 194.744 159.345 219.429C198.43 253.037 271.806 253.037 310.94 219.429Z" fill="#E8EDEC"/>
<path d="M260.424 84.3665C260.424 84.3665 268.512 42.4173 262.7 31.4086C259.165 24.7161 248.897 21.9033 235.142 21.9033C221.339 21.9033 211.119 24.7646 207.584 31.4086C201.772 42.4173 209.86 84.3665 209.86 84.3665H235.142H260.424Z" fill="#F7343E"/>
<path d="M207.535 31.4086C201.723 42.4172 209.812 84.3665 209.812 84.3665H235.094H260.376C260.376 84.3665 268.464 42.4172 262.652 31.4086C261.683 29.5657 260.23 28.0623 258.293 26.7529C259.262 40.7199 258.196 67.9748 235.045 67.9748C211.943 67.9748 210.829 40.7684 211.797 26.7529C210.005 28.0138 208.504 29.5657 207.535 31.4086Z" fill="#C61E36"/>
<path d="M329.49 124.764C318.06 87.3734 275.148 75.0553 235.142 75.0553C195.137 75.0553 152.225 87.3734 140.795 124.764C133.627 148.285 132.513 232.232 235.142 232.232C337.772 232.232 336.706 148.236 329.49 124.764Z" fill="#2A0E59"/>
<path d="M310.213 182.474C309.244 184.22 309.922 186.451 311.666 187.373C313.41 188.343 315.637 187.664 316.558 185.918C316.412 186.209 321.595 177.382 324.501 164.628C326.147 157.256 326.874 149.74 326.438 142.271C326.341 140.574 323.774 140.574 323.726 142.271C323.726 141.98 323.677 151.534 319.706 163.27C315.88 174.764 310.649 181.602 310.213 182.474Z" fill="#5F30B2"/>
<path d="M146.655 157.305C148.689 168.023 151.837 177.819 158.909 189.264C159.538 190.234 161.04 189.506 160.652 188.44C152.564 166.277 149.658 142.223 162.929 122.388C165.447 118.508 168.595 114.677 172.179 111.67C172.131 111.718 172.809 111.185 172.809 111.136C175.037 109.294 175.424 105.947 173.681 103.62C171.84 101.195 168.45 100.758 166.028 102.553C166.803 101.922 141.037 119.187 146.655 157.305Z" fill="#5F30B2"/>
<path d="M181.527 104.492C185.192 104.492 188.162 101.518 188.162 97.8485C188.162 94.1791 185.192 91.2045 181.527 91.2045C177.862 91.2045 174.892 94.1791 174.892 97.8485C174.892 101.518 177.862 104.492 181.527 104.492Z" fill="#5F30B2"/>
<path d="M310.698 194.017C310.698 191.543 308.663 189.506 306.193 189.506C303.723 189.506 301.689 191.543 301.689 194.017C301.689 196.49 303.723 198.527 306.193 198.527C308.663 198.527 310.698 196.49 310.698 194.017Z" fill="#5F30B2"/>
<path d="M250.011 383.443C255.387 383.443 259.794 379.079 259.794 373.647V358.759C259.794 353.376 255.436 348.962 250.011 348.962H220.273C214.897 348.962 210.49 353.327 210.49 358.759V373.647C210.49 379.03 214.849 383.443 220.273 383.443H250.011Z" fill="#F7343E"/>
<path d="M250.011 383.443C255.387 383.443 259.794 379.078 259.794 373.647V358.759C259.794 358.516 259.795 358.322 259.746 358.08V358.128C259.746 363.511 255.387 367.924 249.963 367.924H220.225C215.042 367.924 210.829 363.899 210.49 358.807V373.647C210.49 379.03 214.849 383.443 220.273 383.443H250.011Z" fill="#C61E36"/>
<path d="M245.265 372.386C247.154 372.386 248.704 370.834 248.704 368.943V363.511C248.704 361.62 247.154 360.068 245.265 360.068H224.971C223.083 360.068 221.533 361.62 221.533 363.511V368.943C221.533 370.834 223.083 372.386 224.971 372.386H245.265Z" fill="#E8EDEC"/>
<path d="M245.265 372.386C247.154 372.386 248.704 370.834 248.704 368.943V363.511C248.704 361.62 247.202 360.068 245.313 360.068V364.578C245.313 366.469 243.763 368.021 241.875 368.021H221.533V368.943C221.533 370.834 223.083 372.386 224.971 372.386H245.265Z" fill="#D0DBE2"/>
<path d="M138.422 344.937C143.992 349.011 151.402 351.339 160.168 351.145C156.584 331.407 155.47 300.999 160.653 279.176C165.835 257.353 157.94 280.146 153.92 281.795C144.331 307.062 157.553 323.987 151.935 334.559C149.271 339.457 144.282 343.046 138.422 344.937Z" fill="#C61E36"/>
<path d="M316.413 281.746C312.393 280.098 309.681 279.128 309.681 279.128C314.863 300.951 313.749 331.358 310.165 351.096C318.931 351.29 326.342 348.962 331.911 344.889C326.051 343.046 321.014 339.457 318.399 334.51C312.78 323.938 325.954 307.013 316.413 281.746Z" fill="#C61E36"/>
<path d="M325.228 324.763C325.228 324.763 330.071 329.273 340.387 330.097C340 325.393 337.336 321.901 337.336 321.901C337.336 321.901 329.78 324.763 325.228 324.763Z" fill="#C61E36"/>
<path d="M259.985 286.554L250.205 317.334H244.265C243.585 317.334 243.115 316.894 242.855 316.014L237.335 298.224C237.155 297.624 236.985 297.034 236.825 296.454C236.685 295.854 236.565 295.254 236.465 294.654C236.345 295.254 236.205 295.864 236.045 296.484C235.905 297.084 235.745 297.684 235.565 298.284L229.955 316.014C229.715 316.894 229.185 317.334 228.365 317.334H222.665L212.915 286.554H218.825C219.365 286.554 219.825 286.684 220.205 286.944C220.585 287.204 220.835 287.534 220.955 287.934L225.365 304.374C225.585 305.274 225.775 306.154 225.935 307.014C226.115 307.874 226.265 308.734 226.385 309.594C226.605 308.734 226.835 307.874 227.075 307.014C227.335 306.154 227.605 305.274 227.885 304.374L232.985 287.874C233.105 287.474 233.335 287.144 233.675 286.884C234.035 286.624 234.465 286.494 234.965 286.494H238.235C238.755 286.494 239.195 286.624 239.555 286.884C239.935 287.144 240.185 287.474 240.305 287.874L245.255 304.374C245.515 305.274 245.755 306.164 245.975 307.044C246.215 307.904 246.445 308.764 246.665 309.624C246.925 307.924 247.295 306.174 247.775 304.374L252.305 287.934C252.445 287.534 252.695 287.204 253.055 286.944C253.415 286.684 253.845 286.554 254.345 286.554H259.985Z" fill="#F7343E"/>
</g>
<defs>
<clipPath id="clip0_2_1184">
<rect width="373" height="391" fill="white"/>
</clipPath>
</defs>
</svg>
